<svg width="28" height="27" viewBox="0 0 28 27" fill="none" xmlns="http://www.w3.org/2000/svg">
<g id="apple_831329" clip-path="url(#clip0_391_14625)">
<g id="Group">
<g id="Group_2">
<path id="Vector" d="M22.003 0.337891H6.39709C3.40525 0.337891 0.971191 2.77195 0.971191 5.76379V21.3697C0.971191 24.3615 3.40525 26.7956 6.39709 26.7956H22.003C24.9948 26.7956 27.4289 24.3615 27.4289 21.3697V5.76379C27.4289 2.77195 24.9948 0.337891 22.003 0.337891ZM14.9588 5.57176C16.1403 4.01443 17.783 4.00683 17.783 4.00683C17.783 4.00683 18.0273 5.47094 16.8535 6.88142C15.6002 8.38749 14.1756 8.141 14.1756 8.141C14.1756 8.141 13.9081 6.95656 14.9588 5.57176ZM17.5491 21.9634C16.4984 21.9634 15.6816 21.2553 14.5745 21.2553C13.4464 21.2553 12.3269 21.9898 11.5978 21.9898C9.50892 21.9898 6.86997 17.468 6.86997 13.8333C6.86997 10.2572 9.10368 8.38119 11.1989 8.38119C12.5609 8.38119 13.6178 9.16665 14.3259 9.16665C14.9338 9.16665 16.0619 8.33112 17.5303 8.33112C20.058 8.33112 21.0523 10.1297 21.0523 10.1297C21.0523 10.1297 19.1075 11.1241 19.1075 13.5368C19.1075 16.2586 21.5302 17.1966 21.5302 17.1966C21.5302 17.1966 19.8366 21.9634 17.5491 21.9634Z" fill="#FCFCFC"/>
</g>
</g>
</g>
<defs>
<clipPath id="clip0_391_14625">
<rect width="26.4577" height="26.4577" fill="white" transform="translate(0.971191 0.337891)"/>
</clipPath>
</defs>
</svg>
