<svg width="20" height="21" viewBox="0 0 20 21" fill="none" xmlns="http://www.w3.org/2000/svg">
<g id="batch.svg">
<path id="Vector" fill-rule="evenodd" clip-rule="evenodd" d="M9.62746 1.3663C9.86204 1.249 10.1382 1.249 10.3728 1.3663L18.7061 5.53296C18.9885 5.67412 19.1668 5.96268 19.1668 6.27832C19.1668 6.59396 18.9885 6.88252 18.7061 7.02368L10.3728 11.1903C10.1382 11.3077 9.86204 11.3077 9.62746 11.1903L1.29409 7.02368C1.01177 6.88252 0.833435 6.59396 0.833435 6.27832C0.833435 5.96268 1.01177 5.67412 1.29409 5.53296L9.62746 1.3663ZM3.53016 6.27832L10.0001 9.51332L16.47 6.27832L10.0001 3.04335L3.53016 6.27832ZM0.921414 10.0723C1.12724 9.66066 1.6278 9.49382 2.03945 9.69966L10.0001 13.68L17.9608 9.69966C18.3724 9.49382 18.873 9.66066 19.0788 10.0723C19.2846 10.484 19.1178 10.9845 18.7061 11.1903L10.3728 15.357C10.1382 15.4743 9.86204 15.4743 9.62746 15.357L1.29409 11.1903C0.882439 10.9845 0.715587 10.484 0.921414 10.0723ZM0.921414 14.239C1.12724 13.8273 1.6278 13.6605 2.03945 13.8663L10.0001 17.8467L17.9608 13.8663C18.3724 13.6605 18.873 13.8273 19.0788 14.239C19.2846 14.6507 19.1178 15.1512 18.7061 15.357L10.3728 19.5237C10.1382 19.641 9.86204 19.641 9.62746 19.5237L1.29409 15.357C0.882439 15.1512 0.715587 14.6507 0.921414 14.239Z" fill="#FCFCFC"/>
</g>
</svg>
