<svg width="20" height="21" viewBox="0 0 20 21" fill="none" xmlns="http://www.w3.org/2000/svg">
<g id="bobble_head.svg">
<path id="Vector" d="M11.9667 12.3082C11.4097 12.7574 10.7157 13.0023 10.0001 13.0023C9.2845 13.0023 8.5905 12.7574 8.03342 12.3082C7.86324 12.1668 7.64384 12.0987 7.42348 12.1191C7.20312 12.1394 6.99987 12.2464 6.85842 12.4166C6.71697 12.5867 6.64892 12.8062 6.66923 13.0265C6.68955 13.2468 6.79657 13.4502 6.96675 13.5916C7.81786 14.3021 8.89142 14.6912 10.0001 14.6912C11.1087 14.6912 12.1823 14.3021 13.0334 13.5916C13.2036 13.4502 13.3106 13.2468 13.3309 13.0265C13.3512 12.8062 13.2832 12.5867 13.1417 12.4166C13.0717 12.3323 12.9857 12.2627 12.8888 12.2117C12.7918 12.1606 12.6858 12.1292 12.5767 12.1191C12.3563 12.0987 12.1369 12.1668 11.9667 12.3082ZM7.50008 9.61658C7.66491 9.61658 7.82602 9.56774 7.96306 9.47616C8.1001 9.38458 8.20691 9.25441 8.26998 9.10216C8.33306 8.94991 8.34958 8.78232 8.31741 8.62067C8.28525 8.45902 8.20588 8.31053 8.08934 8.19398C7.9728 8.07744 7.82432 7.99808 7.66266 7.96592C7.50101 7.93377 7.33346 7.95027 7.18118 8.01334C7.02891 8.07642 6.89877 8.18323 6.80719 8.32027C6.71562 8.45731 6.66675 8.61843 6.66675 8.78324C6.66675 9.00424 6.75455 9.21624 6.91083 9.37249C7.06711 9.52874 7.27907 9.61658 7.50008 9.61658ZM12.5001 7.94991C12.3352 7.94991 12.1742 7.99879 12.0371 8.09035C11.9001 8.18192 11.7932 8.31207 11.7302 8.46434C11.6671 8.61661 11.6506 8.78416 11.6827 8.94583C11.7149 9.10749 11.7942 9.25599 11.9108 9.37249C12.0274 9.48908 12.1758 9.56841 12.3375 9.60058C12.4992 9.63274 12.6667 9.61624 12.819 9.55316C12.9712 9.49008 13.1014 9.38324 13.193 9.24624C13.2846 9.10916 13.3334 8.94808 13.3334 8.78324C13.3334 8.56223 13.2456 8.35027 13.0893 8.19398C12.9331 8.03771 12.7211 7.94991 12.5001 7.94991ZM10.0001 2.11658C8.35192 2.11658 6.74074 2.60532 5.37033 3.52099C3.99992 4.43668 2.93182 5.73816 2.30109 7.26089C1.67036 8.78358 1.50533 10.4592 1.82687 12.0757C2.14842 13.6922 2.94209 15.177 4.10753 16.3425C5.27296 17.5079 6.75782 18.3016 8.37433 18.6232C9.99083 18.9447 11.6664 18.7797 13.1891 18.1489C14.7118 17.5182 16.0133 16.4501 16.929 15.0797C17.8447 13.7092 18.3334 12.0981 18.3334 10.4499C18.3334 9.35558 18.1178 8.27193 17.6991 7.26089C17.2803 6.24984 16.6665 5.33118 15.8927 4.55735C15.1188 3.78354 14.2002 3.1697 13.1891 2.75091C12.1781 2.33213 11.0944 2.11658 10.0001 2.11658ZM10.0001 17.1166C8.68158 17.1166 7.39262 16.7256 6.29628 15.9931C5.19996 15.2605 4.34547 14.2193 3.84089 13.0012C3.33631 11.783 3.20428 10.4425 3.46152 9.14933C3.71875 7.8561 4.35369 6.66822 5.28604 5.73587C6.21839 4.80352 7.40627 4.16858 8.6995 3.91134C9.99267 3.65411 11.3332 3.78613 12.5513 4.29071C13.7695 4.7953 14.8107 5.64978 15.5432 6.74611C16.2757 7.84244 16.6667 9.13133 16.6667 10.4499C16.6667 12.218 15.9644 13.9137 14.7142 15.164C13.4639 16.4142 11.7682 17.1166 10.0001 17.1166Z" fill="#FCFCFC"/>
</g>
</svg>
