<svg width="21" height="21" viewBox="0 0 21 21" fill="none" xmlns="http://www.w3.org/2000/svg">
<g id="Outline / Time / Clock Circle">
<path id="Vector" fill-rule="evenodd" clip-rule="evenodd" d="M10.1422 2.79102C5.88498 2.79102 2.43384 6.24215 2.43384 10.4993C2.43384 14.7565 5.88498 18.2077 10.1422 18.2077C14.3994 18.2077 17.8505 14.7565 17.8505 10.4993C17.8505 6.24215 14.3994 2.79102 10.1422 2.79102ZM1.18384 10.4993C1.18384 5.5518 5.19462 1.54102 10.1422 1.54102C15.0897 1.54102 19.1005 5.5518 19.1005 10.4993C19.1005 15.4469 15.0897 19.4577 10.1422 19.4577C5.19462 19.4577 1.18384 15.4469 1.18384 10.4993ZM10.1422 6.54102C10.4873 6.54102 10.7672 6.82084 10.7672 7.16602V10.2405L12.6674 12.1407C12.9115 12.3848 12.9115 12.7805 12.6674 13.0246C12.4234 13.2687 12.0276 13.2687 11.7836 13.0246L9.70023 10.9413C9.58302 10.8241 9.51717 10.6651 9.51717 10.4993V7.16602C9.51717 6.82084 9.79699 6.54102 10.1422 6.54102Z" fill="white"/>
</g>
</svg>
