<svg width="41" height="40" viewBox="0 0 41 40" fill="none" xmlns="http://www.w3.org/2000/svg">
<g id="Line">
<path id="Vector" d="M3.47412 19.9987C3.47412 12.142 3.47412 8.21358 5.9149 5.77281C8.35567 3.33203 12.284 3.33203 20.1408 3.33203C27.9975 3.33203 31.9259 3.33203 34.3667 5.77281C36.8075 8.21358 36.8075 12.142 36.8075 19.9987C36.8075 27.8554 36.8075 31.7838 34.3667 34.2246C31.9259 36.6654 27.9975 36.6654 20.1408 36.6654C12.284 36.6654 8.35567 36.6654 5.9149 34.2246C3.47412 31.7838 3.47412 27.8554 3.47412 19.9987Z" stroke="white" stroke-width="2.5"/>
<path id="Vector_2" d="M24.3074 15.8321L15.9741 24.1654M15.9741 15.832L24.3074 24.1653" stroke="white" stroke-width="2.5" stroke-linecap="round"/>
</g>
</svg>
