<svg width="41" height="40" viewBox="0 0 41 40" fill="none" xmlns="http://www.w3.org/2000/svg">
<g id="fi_9382189" clip-path="url(#clip0_941_28969)">
<g id="Currency">
<g id="Dollar">
<g id="Coin">
<g id="Bottom">
<path id="Vector" d="M24.0502 36.2273C32.5514 34.367 37.8673 25.6579 35.9235 16.775C33.9797 7.89208 25.5123 2.1991 17.011 4.05939C8.50978 5.91967 3.19393 14.6288 5.13775 23.5117C7.08156 32.3946 15.5489 38.0876 24.0502 36.2273Z" fill="#E88102"/>
<path id="Vector_2" d="M23.6772 34.5321C32.0917 32.6908 37.4203 24.3769 35.579 15.9624C33.7377 7.54787 25.4237 2.21925 17.0092 4.06055C8.59474 5.90186 3.26611 14.2158 5.10742 22.6303C6.94872 31.0448 15.2627 36.3735 23.6772 34.5321Z" fill="#FDD835"/>
</g>
<g id="Shade">
<path id="Vector_3" opacity="0.5" d="M23.3766 3.98987L7.70902 28.4268C6.69993 27.0346 5.91327 25.4555 5.40404 23.7301L18.1388 3.85222C19.9206 3.60058 21.6839 3.65582 23.3766 3.98987Z" fill="white"/>
<path id="Vector_4" opacity="0.5" d="M31.9904 8.91331L15.7794 34.2065C14.3256 33.7609 12.9577 33.1056 11.7012 32.2679L28.532 6.01615C29.8102 6.803 30.9783 7.77853 31.9904 8.91331Z" fill="white"/>
<path id="Vector_5" opacity="0.5" d="M27.7822 5.58018L10.9969 31.7693C10.5787 31.4526 10.1689 31.1144 9.78149 30.758L26.3557 4.89819C26.8413 5.10137 27.3198 5.33243 27.7822 5.58018Z" fill="white"/>
<path id="Vector_6" opacity="0.5" d="M34.2729 12.2646L19.7748 34.8853C19.184 34.8632 18.5989 34.8068 18.0208 34.7227L33.3926 10.7389C33.7105 11.229 34.006 11.7371 34.2729 12.2646Z" fill="white"/>
<path id="Vector_7" opacity="0.5" d="M35.5868 15.9604C35.6102 16.0672 35.6322 16.1678 35.6493 16.2759C33.6766 8.04351 25.4667 2.86797 17.1545 4.68688C8.84238 6.50579 3.54432 14.6372 5.19025 22.9411C5.16688 22.8343 5.1386 22.7352 5.11523 22.6284C3.27432 14.2157 8.60437 5.89951 17.017 4.0586C25.4297 2.21769 33.7459 7.54775 35.5868 15.9604Z" fill="white"/>
<path id="Vector_8" opacity="0.5" d="M32.8771 17.2441C34.3193 23.8348 30.1426 30.3514 23.5519 31.7936C19.8514 32.6034 16.1705 31.6379 13.399 29.4726C16.0947 31.3516 19.5341 32.1462 23.0022 31.3872C29.5928 29.945 33.7695 23.4284 32.3273 16.8377C31.6949 13.9476 30.092 11.5267 27.9307 9.83359C30.3633 11.5331 32.1924 14.1153 32.8771 17.2441Z" fill="white"/>
</g>
<g id="Top">
<path id="Vector_9" d="M22.9889 31.3894C29.5817 29.9467 33.7567 23.4327 32.314 16.8399C30.8713 10.2471 24.3573 6.07209 17.7645 7.51476C11.1717 8.95744 6.99667 15.4715 8.43934 22.0643C9.88201 28.6571 16.3961 32.8321 22.9889 31.3894Z" fill="#F39E09"/>
<path id="Vector_10" d="M27.7191 9.68165C25.2323 8.33631 22.274 7.84469 19.296 8.49636C12.7053 9.93856 8.52866 16.4552 9.97086 23.0459C10.6225 26.0239 12.3048 28.5065 14.5658 30.2041C11.5477 28.5669 9.23124 25.6832 8.43934 22.0643C6.99713 15.4736 11.1738 8.95697 17.7645 7.51476C21.3771 6.72423 24.971 7.62321 27.7191 9.68165Z" fill="#E88102"/>
</g>
</g>
<g id="Icon">
<path id="Bottom-2" d="M18.9611 16.5761C18.8011 16.8678 18.7623 17.2319 18.8571 17.6654C18.952 18.0989 19.156 18.4295 19.4637 18.6321C19.7714 18.8347 20.2271 18.9918 20.8322 19.1095C21.436 19.221 22.0111 19.3519 22.5561 19.496C23.1012 19.6401 23.5854 19.837 24.0136 20.079C24.4419 20.3211 24.8008 20.6375 25.0953 21.0208C25.2065 21.1676 25.5 21.426 25.5 21.426C25.5 21.426 25.7282 22.4689 25.7351 22.5004C25.9578 23.5182 25.8189 24.4176 25.312 25.2001C24.8051 25.9825 24.0143 26.5506 22.9256 26.9008L23.3161 28.6851L21.8961 28.9958L21.5016 27.1926C20.1771 27.3376 19.0881 27.115 18.2258 26.5137C17.3697 25.911 16.8083 25.0002 16.5388 23.7688L16.3326 22.8264L19.542 23.1116C19.6905 23.7902 19.954 24.2724 20.3326 24.5582C20.7111 24.844 21.1768 24.9265 21.7297 24.8055C22.1318 24.7175 22.4261 24.528 22.605 24.2321C22.7838 23.9362 22.8254 23.5848 22.7333 23.1638C22.6302 22.6926 22.4374 22.3529 22.1458 22.1337C21.8542 21.9144 21.3908 21.7524 20.7606 21.6402C20.124 21.5293 19.5377 21.4074 18.9878 21.271C18.4378 21.1345 17.955 20.9439 17.5268 20.7019C17.0985 20.4598 16.7473 20.1483 16.4604 19.7699C16.1798 19.3902 15.9742 18.9019 15.8422 18.2988L15.6236 17.2998C15.6236 17.2998 15.9532 16.1282 16.3169 15.5944C16.8525 14.7925 17.6747 14.2175 18.776 13.8646L18.3663 11.9923L19.7862 11.6816L20.2055 13.5979C21.3282 13.5234 22.2803 13.7825 23.0631 14.3815C23.6003 14.7906 24.3985 16.0314 24.3985 16.0314L24.6048 16.9738L21.589 17.6338C21.4543 17.0181 21.2304 16.5667 20.9188 16.2859C20.6072 16.0052 20.2322 15.9161 19.7924 16.0123C19.4015 16.0913 19.1274 16.2829 18.9611 16.5761Z" fill="#DB6704"/>
<path id="Top-2" d="M22.53 22.2273C22.4269 21.7561 22.2341 21.4165 21.9425 21.1972C21.6509 20.9779 21.1875 20.8159 20.5573 20.7037C19.9207 20.5928 19.3345 20.4709 18.7845 20.3345C18.2345 20.1981 17.7517 20.0074 17.3235 19.7654C16.8952 19.5233 16.544 19.2118 16.2571 18.8334C15.9765 18.4537 15.7695 17.9592 15.6389 17.3623C15.4189 16.357 15.5767 15.4535 16.1137 14.6579C16.6506 13.8623 17.4715 13.281 18.5727 12.9281L18.1616 11.0496L19.5815 10.7388L20.0009 12.6551C21.1235 12.5806 22.0756 12.8397 22.8585 13.4387C23.6413 14.0377 24.1527 14.9002 24.4001 16.0311L21.3844 16.691C21.2496 16.0753 21.0258 15.6239 20.7142 15.3432C20.4026 15.0624 20.0275 14.9733 19.5877 15.0695C19.1982 15.1548 18.9178 15.3478 18.7579 15.6396C18.5979 15.9313 18.559 16.2954 18.6539 16.7289C18.7487 17.1624 18.9528 17.493 19.2604 17.6956C19.5681 17.8982 20.0238 18.0553 20.6227 18.1744C21.2264 18.2859 21.8015 18.4168 22.3466 18.5609C22.8916 18.7049 23.3758 18.9018 23.8041 19.1439C24.2323 19.3859 24.5912 19.7024 24.8858 20.0857C25.1803 20.4689 25.3936 20.9621 25.5242 21.559C25.7469 22.5768 25.608 23.4762 25.1011 24.2587C24.5942 25.0411 23.8033 25.6092 22.7147 25.9593L23.1051 27.7437L21.6852 28.0544L21.2906 26.2512C19.9661 26.3962 18.8772 26.1736 18.0148 25.5723C17.1587 24.9696 16.5973 24.0588 16.3279 22.8274L19.331 22.1702C19.4795 22.8488 19.7431 23.331 20.1216 23.6168C20.5002 23.9026 20.9659 23.9851 21.5188 23.8641C21.9209 23.7761 22.2152 23.5866 22.394 23.2907C22.5729 22.9948 22.6221 22.6483 22.53 22.2273Z" fill="#FDD835"/>
<g id="Shade-2">
<path id="Vector_11" opacity="0.5" d="M16.1052 14.6593C16.3926 14.2277 16.767 13.8627 17.2207 13.5593L15.5583 16.1615C15.6116 15.6232 15.7932 15.1292 16.1052 14.6593Z" fill="white"/>
<path id="Vector_12" opacity="0.5" d="M18.9406 10.8791L18.3279 11.8352L18.1562 11.0508L18.9406 10.8791Z" fill="white"/>
<path id="Vector_13" opacity="0.5" d="M24.8465 20.0358L20.8367 26.2921C19.7162 26.3464 18.7745 26.1047 18.0207 25.5784C17.5301 25.2315 17.136 24.7845 16.8385 24.2373L17.9673 22.476L19.337 22.1763C19.4854 22.8548 19.749 23.337 20.1275 23.6229C20.5061 23.9087 20.9718 23.9912 21.5247 23.8702C21.9268 23.7822 22.2211 23.5927 22.4 23.2968C22.5788 23.0009 22.6204 22.6494 22.5283 22.2285C22.4252 21.7573 22.2323 21.4176 21.9408 21.1983C21.6492 20.979 21.1858 20.8171 20.5555 20.7048C20.1038 20.6259 19.6771 20.5415 19.2679 20.4467L20.7207 18.1801C21.2916 18.2922 21.8312 18.4111 22.3484 18.5481C22.8934 18.6922 23.3776 18.8891 23.8058 19.1311C24.2139 19.371 24.5624 19.67 24.8465 20.0358Z" fill="white"/>
<path id="Vector_14" opacity="0.5" d="M24.3935 16.0266L21.7233 16.6109L23.4166 13.969C23.8843 14.5119 24.2121 15.1973 24.3935 16.0266Z" fill="white"/>
<path id="Vector_15" opacity="0.5" d="M16.3369 22.8262L16.7824 22.7287L16.4491 23.2488C16.4064 23.1135 16.3685 22.9705 16.3369 22.8262Z" fill="white"/>
<path id="Vector_16" opacity="0.5" d="M19.2538 17.6909C19.4083 17.7954 19.5992 17.8853 19.834 17.9656L18.3812 20.2322C17.9931 20.1131 17.6371 19.9605 17.3196 19.7733C17.1922 19.7024 17.0759 19.6225 16.966 19.5412L18.6887 16.8534C18.79 17.2262 18.983 17.5066 19.2538 17.6909Z" fill="white"/>
<path id="Vector_17" opacity="0.5" d="M22.7735 13.3787L21.1342 15.9363C21.0213 15.6911 20.879 15.4918 20.7148 15.3434C20.4686 15.1208 20.1829 15.0187 19.8564 15.0309L21.3239 12.7413C21.8558 12.8553 22.3364 13.0661 22.7735 13.3787Z" fill="white"/>
<path id="Vector_18" opacity="0.5" d="M22.3761 27.9017L22.9447 27.0145L23.104 27.7424L22.3761 27.9017Z" fill="white"/>
<path id="Vector_19" opacity="0.5" d="M25.6045 22.8645C25.5492 23.3638 25.3796 23.8223 25.1048 24.2511C24.8299 24.6799 24.4681 25.0422 24.0193 25.3379L25.6045 22.8645Z" fill="white"/>
<path id="Vector_20" opacity="0.25" d="M28.8866 10.6851C21.7526 15.0903 16.85 22.411 15.4658 30.6472C15.1593 30.5102 14.8577 30.3655 14.5582 30.2006C12.2973 28.503 10.615 26.0204 9.96473 23.0487C8.52252 16.458 12.6992 9.94134 19.2899 8.49914C22.2679 7.84747 25.2262 8.33909 27.7067 9.68581C28.1235 9.99619 28.5131 10.3323 28.8866 10.6851Z" fill="white"/>
</g>
</g>
</g>
</g>
</g>
<defs>
<clipPath id="clip0_941_28969">
<rect width="32.9291" height="32.9291" fill="white" transform="translate(0.930664 7.57812) rotate(-12.3432)"/>
</clipPath>
</defs>
</svg>
