<svg xmlns="http://www.w3.org/2000/svg" viewBox="0 0 37 36" fill="none">
  <path d="M9.35016 13.8456L9.34993 13.8458L9.35446 13.8494L17.0652 19.9529L18.4654 35.8425L0.0799909 13.826L6.20891 10.7202L9.35016 13.8456Z" fill="#CC00FF" stroke="#28241F" stroke-width="0.101689"/>
  <path d="M31.5824 11.0148L36.9796 13.826L18.6061 35.8281L20.9377 20.3519L27.7058 13.8491L31.5824 11.0148Z" fill="#5E00FF" stroke="#28241F" stroke-width="0.101689"/>
  <path d="M9.38602 0.947266L12.2511 5.95117L9.38602 13.8099H0L9.38602 0.947266Z" fill="#FF66DE"/>
  <path d="M37.0604 13.8099H27.6744L25.0547 6.07429L27.6744 0.947266L37.0604 13.8099Z" fill="#782AFF"/>
  <path d="M9.38721 13.8099L14.8786 17.4619L18.5315 13.8099L21.9164 10.0343L18.5315 0.947266L11.883 5.35617L9.38721 13.8099Z" fill="#FF66DE"/>
  <path d="M18.5288 0.947266V13.8099L21.9138 16.8464L27.6731 13.8099L25.9148 6.05373L18.5288 0.947266Z" fill="#782AFF"/>
  <path d="M27.6731 0.947266V13.8099L18.5288 0.947266H27.6731Z" fill="#CC00FF"/>
  <path d="M18.5315 0.947266L9.38721 13.8099V0.947266H18.5315Z" fill="#782AFF"/>
  <path d="M9.38721 13.8105L18.5315 36.0006L22.2652 21.2769L18.5315 13.8105H9.38721Z" fill="#782AFF"/>
  <path d="M18.5288 13.8105V36.0006L27.6731 13.8105H18.5288Z" fill="#CC00FF"/>
</svg>