<svg width="16" height="17" viewBox="0 0 16 17" fill="none" xmlns="http://www.w3.org/2000/svg">
<path id="Subtract" fill-rule="evenodd" clip-rule="evenodd" d="M8 16.5C12.4183 16.5 16 12.9183 16 8.5C16 4.08172 12.4183 0.5 8 0.5C3.58172 0.5 0 4.08172 0 8.5C0 12.9183 3.58172 16.5 8 16.5ZM8.6 3.7C8.6 3.36863 8.33137 3.1 8 3.1C7.66863 3.1 7.4 3.36863 7.4 3.7V3.95339C6.09565 4.18694 5 5.16689 5 6.5C5 8.03372 6.45022 9.1 8 9.1C9.10119 9.1 9.8 9.82458 9.8 10.5C9.8 11.1754 9.10119 11.9 8 11.9C6.89881 11.9 6.2 11.1754 6.2 10.5C6.2 10.1686 5.93137 9.9 5.6 9.9C5.26863 9.9 5 10.1686 5 10.5C5 11.8331 6.09565 12.8131 7.4 13.0466V13.3C7.4 13.6314 7.66863 13.9 8 13.9C8.33137 13.9 8.6 13.6314 8.6 13.3V13.0466C9.90435 12.8131 11 11.8331 11 10.5C11 8.96628 9.54978 7.9 8 7.9C6.89881 7.9 6.2 7.17542 6.2 6.5C6.2 5.82458 6.89881 5.1 8 5.1C9.10119 5.1 9.8 5.82458 9.8 6.5C9.8 6.83137 10.0686 7.1 10.4 7.1C10.7314 7.1 11 6.83137 11 6.5C11 5.16689 9.90435 4.18694 8.6 3.95339V3.7Z" fill="#B6B8BD"/>
</svg>
