<svg width="26" height="26" viewBox="0 0 26 26" fill="none" xmlns="http://www.w3.org/2000/svg">
<g id="download_10118797 1" clip-path="url(#clip0_234_11342)">
<g id="Icon">
<path id="97" d="M18.4185 0.778564H8.06689C4.02393 0.778564 0.742676 4.05981 0.742676 8.10278V18.4543C0.742676 22.4973 4.02393 25.7786 8.06689 25.7786H18.4185C22.4614 25.7786 25.7427 22.4973 25.7427 18.4543V8.10278C25.7427 4.05981 22.4614 0.778564 18.4185 0.778564ZM10.3232 11.7161H11.6802V7.76099C11.6802 7.35669 12.0083 7.02856 12.4126 7.02856H14.0728C14.4771 7.02856 14.8052 7.35669 14.8052 7.76099V11.7161H16.1621C16.8145 11.7161 17.1416 12.5051 16.6802 12.9666L13.7607 15.886C13.4746 16.1721 13.0107 16.1721 12.7251 15.886L9.80566 12.9666C9.34424 12.5051 9.6709 11.7161 10.3237 11.7161H10.3232ZM17.9302 18.7961C17.9302 19.2004 17.6021 19.5286 17.1978 19.5286H9.2876C8.8833 19.5286 8.55518 19.2004 8.55518 18.7961V17.9172C8.55518 17.5129 8.8833 17.1848 9.2876 17.1848H17.1978C17.6021 17.1848 17.9302 17.5129 17.9302 17.9172V18.7961Z" fill="#FCFCFC"/>
</g>
</g>
<defs>
<clipPath id="clip0_234_11342">
<rect width="25" height="25" fill="white" transform="translate(0.742676 0.778564)"/>
</clipPath>
</defs>
</svg>
