<svg width="80" height="80" viewBox="0 0 80 80" fill="none" xmlns="http://www.w3.org/2000/svg">
<g id="Group">
<rect id="Rectangle" width="80" height="80" rx="16" fill="#232323"/>
<g id="&#240;&#159;&#166;&#134; emoji &#34;thumbs up&#34;">
<path id="Vector" d="M48.0224 58.1177C45.0952 58.0943 40.7026 57.9809 36.3813 57.5804C33.4066 57.3034 30.3336 56.8662 27.9999 55.5646C27.3419 55.1975 26.6228 55.1074 25.9852 55.0306C25.7138 54.9973 25.4594 54.9672 25.2423 54.9172C23.5871 54.5334 22.4304 53.125 22.4237 51.493L22.3999 40.5632C22.3965 39.0514 23.4921 37.7866 25.0083 37.5529C25.0354 37.5496 25.0592 37.5429 25.0863 37.5363C25.2729 37.4762 29.7298 36.0478 33.0878 33.4647C34.6684 32.2499 36.0218 30.3776 36.7104 28.4587C37.3955 26.5464 37.3921 24.4605 37.3887 22.7852C37.3887 21.7039 37.3854 20.3589 37.6838 20.162C38.4097 19.6915 39.2102 19.4512 40.0616 19.4512C42.6801 19.4512 45.3529 21.804 45.4581 24.2002C45.5327 25.8622 44.9663 27.8246 44.4202 29.7202C43.7757 31.9662 43.216 33.9052 43.7214 35.2235C43.7961 35.4204 43.986 35.5472 44.1963 35.5472C44.2031 35.5472 46.669 35.4638 46.669 35.4638H46.6927C49.4605 35.4638 51.7128 37.6798 51.7162 40.3997L51.7331 54.4866C51.7331 55.4578 51.3532 56.3689 50.6545 57.0531C49.9591 57.7372 49.0332 58.1177 48.0461 58.1177H48.0224Z" fill="url(#paint0_radial_270_33012)"/>
<path id="Vector_2" d="M39.6897 19.7947C41.9892 19.7947 44.426 21.9687 44.5199 24.0989C44.5903 25.6941 44.0439 27.6325 43.5143 29.507C42.8506 31.8559 42.2808 33.8852 42.8372 35.3693C42.9847 35.763 43.3601 36.0222 43.7791 36.0222H43.816L46.2294 35.938H46.2495C48.7065 35.938 50.7076 37.9438 50.7109 40.4139L50.7277 54.6188C50.7277 55.4601 50.4025 56.2543 49.8093 56.8499C49.216 57.4456 48.4283 57.7754 47.5869 57.7754H47.5601C44.6774 57.7518 40.3501 57.6374 36.0998 57.237C33.2172 56.9644 30.2406 56.5336 28.0183 55.2683C27.2809 54.8476 26.4831 54.75 25.8429 54.6692C25.5881 54.639 25.3501 54.6087 25.1624 54.5616C23.7546 54.2284 22.7692 53.0102 22.7658 51.6001L22.739 40.5788C22.7356 39.3067 23.6407 38.2399 24.8909 38.0447C24.9412 38.038 24.9948 38.0245 25.0418 38.0077C25.2295 37.9471 29.7144 36.4765 33.1032 33.8179C34.7356 32.5357 36.1367 30.5637 36.8473 28.5411C37.5546 26.5321 37.5512 24.3816 37.5479 22.6519C37.5479 21.8307 37.5445 20.7202 37.6853 20.3837C38.302 19.9899 38.9758 19.7947 39.6897 19.7947ZM39.6897 18.7852C38.8015 18.7852 37.9032 19.0275 37.0618 19.5861C35.9758 20.3063 37.1523 24.6408 35.9021 28.2012C35.1512 30.3382 33.7199 32.0545 32.4864 33.0203C29.2015 35.5981 24.7367 37.0452 24.7367 37.0452C23.0038 37.3178 21.7301 38.8187 21.7334 40.5821L21.7602 51.6035C21.7669 53.5015 23.0909 55.1067 24.9312 55.5442C25.6753 55.7192 26.6909 55.6721 27.5222 56.1466C29.7445 57.412 32.5937 57.9167 36.006 58.2398C40.2294 58.6403 44.5199 58.7581 47.5534 58.785H47.5869C49.8763 58.785 51.7366 56.9206 51.7333 54.6188L51.7165 40.4139C51.7132 37.3818 49.2629 34.9318 46.2495 34.9318H46.2093L43.7825 35.0159C42.9445 32.7814 45.6897 27.7537 45.5288 24.0552C45.4115 21.4269 42.6193 18.7852 39.6897 18.7852Z" fill="#EDA600"/>
<path id="Vector_3" d="M41.137 38.0319C41.763 39.7354 41.7697 42.3929 41.137 44.0351C40.2213 46.4065 37.9803 48.4814 35.3929 48.8459C34.7603 48.9345 35.1365 49.5308 35.7659 49.4422C38.5663 49.0469 42.3557 47.8851 43.3414 45.3128C46.0452 38.2431 42.8819 34.5396 41.47 35.6435C40.7907 36.1818 40.784 37.0677 41.137 38.0319Z" fill="#EDA600"/>
<path id="Vector_4" d="M48.1287 40.7858C45.2929 40.7858 41.8838 40.2847 41.738 37.8889C41.6973 37.2035 41.9144 36.628 42.4028 36.1334C43.6884 34.8337 46.8465 34.1191 51.2969 34.1191C52.9115 34.1191 54.0886 34.2194 54.1021 34.2194C54.1157 34.2194 54.1327 34.2226 54.1462 34.2226H54.1768C54.2243 34.2194 54.2684 34.2194 54.3158 34.2194C55.7575 34.2194 56.9617 35.4576 57.0601 37.0386C57.1618 38.6746 56.0322 40.0713 54.5431 40.1521C54.5194 40.1521 54.4922 40.1553 54.4685 40.1618C54.438 40.165 51.2969 40.7858 48.1287 40.7858Z" fill="url(#paint1_radial_270_33012)"/>
<path id="Vector_5" d="M50.9259 34.4673C52.4791 34.4673 53.6142 34.5689 53.6242 34.5689C53.654 34.5723 53.6839 34.5723 53.7138 34.5723C53.7337 34.5723 53.7536 34.5723 53.7702 34.5689C53.8067 34.5655 53.8432 34.5655 53.8764 34.5655C55.0214 34.5655 55.9839 35.6527 56.0635 37.0379C56.1034 37.756 55.9042 38.4368 55.5026 38.9583C55.1276 39.4461 54.6165 39.7306 54.0689 39.7644C54.0191 39.7678 53.9693 39.7746 53.9229 39.7848C53.893 39.7915 50.8628 40.4317 47.8228 40.4317C46.0571 40.4317 44.6565 40.2217 43.6642 39.8085C42.3001 39.2395 42.0977 38.4334 42.0678 37.8779C42.0346 37.2987 42.2006 36.8347 42.5856 36.4147C43.7306 35.1785 46.7707 34.4673 50.9259 34.4673ZM50.9259 33.4512C47.1357 33.4512 40.8498 34.0371 41.0721 37.9389C41.2348 40.7568 44.5669 41.4511 47.8228 41.4511C51.0122 41.4511 54.1286 40.7839 54.1286 40.7839C55.8611 40.6789 57.1754 38.9787 57.0592 36.9838C56.9497 35.0532 55.5425 33.5528 53.8797 33.5528C53.8233 33.5528 53.7702 33.5528 53.7138 33.5562C53.7138 33.5562 52.5488 33.4512 50.9259 33.4512Z" fill="#EDA600"/>
<path id="Vector_6" d="M49.8016 47.4524C46.12 47.4524 41.7332 46.8176 41.7332 43.7858C41.7332 40.754 46.12 40.1191 49.8016 40.1191C52.923 40.1191 55.7677 40.5874 55.7946 40.5909C55.8216 40.5944 55.8486 40.5979 55.8756 40.5979C57.3638 40.5979 58.3998 42.2144 58.3998 43.6644C58.3998 45.1942 57.2963 46.9703 55.8756 46.9703C55.8486 46.9703 55.8216 46.9737 55.7946 46.9772C55.7643 46.9841 52.9196 47.4524 49.8016 47.4524Z" fill="url(#paint2_radial_270_33012)"/>
<path id="Vector_7" d="M50.1401 40.4454C53.1574 40.4454 55.9101 40.8861 55.9366 40.8894C55.9895 40.8994 56.0424 40.9027 56.0954 40.9027C57.2269 40.9027 58.0739 42.1885 58.0739 43.3352C58.0739 44.5315 57.1607 45.9963 56.0954 45.9963C56.0424 45.9963 55.9895 45.9996 55.9366 46.0096C55.9101 46.0129 53.1541 46.4536 50.1401 46.4536C47.8804 46.4536 46.0838 46.215 44.7968 45.7411C42.9408 45.0584 42.7257 44.104 42.7257 43.4478C42.7257 42.7884 42.9408 41.8372 44.7968 41.1546C46.0805 40.684 47.8804 40.4454 50.1401 40.4454ZM50.1401 39.4512C46.193 39.4512 41.7332 40.1769 41.7332 43.4512C41.7332 46.7254 46.1897 47.4511 50.1401 47.4511C53.2798 47.4511 56.0954 46.9938 56.0954 46.9938C57.8026 46.9938 59.0664 45.0352 59.0664 43.3385C59.0664 41.6417 57.8026 39.9118 56.0954 39.9118C56.0954 39.9085 53.2765 39.4512 50.1401 39.4512Z" fill="#EDA600"/>
<path id="Vector_8" d="M53.0802 58.1191C51.6614 58.1191 44.473 58.0137 42.296 55.9478C41.9151 55.5869 41.7332 55.1974 41.7332 54.7567C41.7399 53.0803 44.7696 52.1191 50.0438 52.1191C51.9243 52.1191 53.3802 52.2469 53.397 52.2469C53.4105 52.2469 53.4273 52.2501 53.4408 52.2501C54.2294 52.2533 54.9742 52.5566 55.5303 53.109C56.0931 53.6646 56.3998 54.4055 56.3998 55.191C56.393 56.8035 55.0618 58.1127 53.4307 58.1127C53.4071 58.1191 53.2892 58.1191 53.0802 58.1191Z" fill="url(#paint3_radial_270_33012)"/>
<path id="Vector_9" d="M49.6907 52.4613C51.5007 52.4613 52.9084 52.5926 52.9216 52.5959C52.9512 52.5993 52.9809 52.5993 53.0106 52.5993C53.6469 52.6027 54.2469 52.8687 54.6985 53.3502C55.1601 53.8417 55.4139 54.4983 55.4106 55.1953C55.4073 56.6161 54.326 57.7744 52.9908 57.7744H52.9875H52.9677C52.9611 57.7744 52.849 57.7777 52.6545 57.7777C46.6709 57.7777 43.4203 56.6229 42.4544 55.6363C42.0884 55.2626 42.0489 54.9461 42.0489 54.7407C42.0587 53.3333 44.983 52.4613 49.6907 52.4613ZM49.6907 51.4512C46.1566 51.4512 41.073 51.936 41.0664 54.734C41.0532 58.5926 50.7259 58.7845 52.6578 58.7845C52.8721 58.7845 52.9908 58.7811 52.9908 58.7811H53.0007C54.8733 58.7811 56.3931 57.1784 56.3997 55.1953C56.4062 53.2087 54.8897 51.5926 53.0139 51.5858C53.0139 51.5892 51.5732 51.4512 49.6907 51.4512Z" fill="#EDA600"/>
<path id="Vector_10" d="M51.6654 52.7858C48.6781 52.7858 41.7332 52.4387 41.7332 49.2228C41.7332 46.5207 46.7408 46.1191 49.7281 46.1191C52.3699 46.1191 54.6461 46.4186 54.6693 46.422C54.6893 46.4254 54.7125 46.4254 54.7325 46.4254C56.1181 46.4254 57.7331 47.1265 57.7331 49.1036C57.7331 50.9753 56.3042 52.6769 54.7325 52.6769H54.6926C54.6793 52.6803 53.4 52.7858 51.6654 52.7858Z" fill="url(#paint4_radial_270_33012)"/>
<g id="Group_2">
<path id="Vector_11" d="M49.0615 46.1191V47.093C51.7148 47.093 54.0124 47.3754 54.0327 47.3787C54.0767 47.3852 54.1208 47.3852 54.1649 47.3852C55.3983 47.3852 56.7166 47.9273 56.7166 49.4531C56.7166 50.9561 55.4763 52.3747 54.1649 52.3747C54.1377 52.3747 54.1106 52.3747 54.0801 52.3779C54.0666 52.3779 52.7823 52.4786 51.0337 52.4786C49.1868 52.4786 46.547 52.3649 44.4562 51.8326C42.4399 51.3164 41.4165 50.5535 41.4165 49.5699C41.4165 49.268 41.4165 48.3493 43.565 47.7033C44.9035 47.3008 46.7503 47.0963 49.0581 47.0963L49.0615 46.1191ZM49.0615 46.1191C45.1441 46.1191 40.3999 46.71 40.3999 49.5667C40.3999 52.933 46.974 53.4524 51.0371 53.4524C52.8534 53.4524 54.1649 53.3486 54.1649 53.3486C56.0761 53.3486 57.7332 51.456 57.7332 49.4531C57.7332 47.4501 56.0761 46.4113 54.1649 46.4113C54.1649 46.4113 51.8165 46.1191 49.0615 46.1191Z" fill="#EDA600"/>
<path id="Vector_12" d="M27.7331 56.1198L26.3223 49.4531L25.7332 55.4496L27.7331 56.1198Z" fill="#EDA600"/>
</g>
</g>
</g>
<defs>
<radialGradient id="paint0_radial_270_33012" cx="0" cy="0" r="1" gradientUnits="userSpaceOnUse" gradientTransform="translate(36.5744 27.9918) rotate(90.127) scale(29.048 23.2434)">
<stop offset="0.6" stop-color="#FFCA28"/>
<stop offset="1" stop-color="#FFB300"/>
</radialGradient>
<radialGradient id="paint1_radial_270_33012" cx="0" cy="0" r="1" gradientUnits="userSpaceOnUse" gradientTransform="translate(53.7841 37.1703) rotate(176.88) scale(9.58858 4.47325)">
<stop offset="0.5993" stop-color="#FFCA28"/>
<stop offset="1" stop-color="#FFB300"/>
</radialGradient>
<radialGradient id="paint2_radial_270_33012" cx="0" cy="0" r="1" gradientUnits="userSpaceOnUse" gradientTransform="translate(54.8185 43.6945) rotate(-179.935) scale(10.737 4.4262)">
<stop offset="0.5993" stop-color="#FFCA28"/>
<stop offset="1" stop-color="#FFB300"/>
</radialGradient>
<radialGradient id="paint3_radial_270_33012" cx="0" cy="0" r="1" gradientUnits="userSpaceOnUse" gradientTransform="translate(53.1993 55.0556) rotate(-179.74) scale(9.00525 4.44227)">
<stop offset="0.5993" stop-color="#FFCA28"/>
<stop offset="1" stop-color="#FFB300"/>
</radialGradient>
<radialGradient id="paint4_radial_270_33012" cx="0" cy="0" r="1" gradientUnits="userSpaceOnUse" gradientTransform="translate(54.2893 49.3714) rotate(-179.932) scale(10.1163 4.30932)">
<stop offset="0.5993" stop-color="#FFCA28"/>
<stop offset="1" stop-color="#FFB300"/>
</radialGradient>
</defs>
</svg>
