<svg viewBox="0 0 40 40" fill="none" xmlns="http://www.w3.org/2000/svg">
<g id="&#240;&#159;&#166;&#134; emoji &#34;fire&#34;">
<path id="Vector" d="M9.93682 11.6325C9.75509 13.558 9.62756 16.9656 10.7721 18.416C10.7721 18.416 10.2333 14.6727 15.0635 9.97626C17.0084 8.08564 17.4579 5.51413 16.7788 3.5855C16.393 2.49292 15.6884 1.59036 15.0763 0.960152C14.7192 0.589627 14.9934 -0.0215815 15.5131 0.000586686C18.6567 0.139929 23.7515 1.00765 25.9163 6.40402C26.8664 8.77285 26.9366 11.2208 26.4839 13.71C26.1969 15.2998 25.1767 18.834 27.5041 19.2679C29.1652 19.5782 29.9686 18.2672 30.3289 17.3234C30.4787 16.9307 30.9984 16.8326 31.279 17.1461C34.0847 20.3161 34.3238 24.0499 33.7435 27.2643C32.6212 33.4777 26.2862 38 19.9926 38C12.1303 38 5.8718 33.5315 4.24898 25.4433C3.59538 22.1783 3.92696 15.7178 8.99629 11.1575C9.3725 10.8155 9.98783 11.1195 9.93682 11.6325Z" fill="url(#paint0_radial_270_32893)"/>
<path id="Vector_2" d="M22.7133 23.2714C19.7938 19.5722 21.101 15.3513 21.8172 13.6693C21.9136 13.448 21.6566 13.2393 21.4543 13.3753C20.1984 14.2163 17.6258 16.1955 16.4277 18.981C14.8058 22.7466 14.9214 24.5899 15.8817 26.841C16.4599 28.1974 15.7886 28.4851 15.4513 28.5357C15.1237 28.5863 14.8218 28.3713 14.5809 28.1468C13.8904 27.4986 13.3925 26.6545 13.1549 25.7439C13.1035 25.5479 12.8433 25.4941 12.7245 25.6554C11.8252 26.8789 11.3594 28.8424 11.337 30.2304C11.2663 34.5208 14.8668 37.9987 19.222 37.9987C24.7111 37.9987 28.7098 32.0231 25.5558 27.0275C24.6404 25.5732 23.7797 24.6215 22.7133 23.2714Z" fill="url(#paint1_radial_270_32893)"/>
</g>
<defs>
<radialGradient id="paint0_radial_270_32893" cx="0" cy="0" r="1" gradientUnits="userSpaceOnUse" gradientTransform="translate(18.4355 38.0985) rotate(-179.753) scale(22.5051 36.6789)">
<stop offset="0.3144" stop-color="#FF9800"/>
<stop offset="0.6616" stop-color="#FF6D00"/>
<stop offset="0.9715" stop-color="#F44336"/>
</radialGradient>
<radialGradient id="paint1_radial_270_32893" cx="0" cy="0" r="1" gradientUnits="userSpaceOnUse" gradientTransform="translate(19.5239 15.8853) rotate(90.5879) scale(23.3513 17.8522)">
<stop offset="0.2141" stop-color="#FFF176"/>
<stop offset="0.3275" stop-color="#FFF27D"/>
<stop offset="0.4868" stop-color="#FFF48F"/>
<stop offset="0.6722" stop-color="#FFF7AD"/>
<stop offset="0.7931" stop-color="#FFF9C4"/>
<stop offset="0.8221" stop-color="#FFF8BD" stop-opacity="0.804"/>
<stop offset="0.8627" stop-color="#FFF6AB" stop-opacity="0.529"/>
<stop offset="0.9101" stop-color="#FFF38D" stop-opacity="0.2088"/>
<stop offset="0.9409" stop-color="#FFF176" stop-opacity="0"/>
</radialGradient>
</defs>
</svg>
