<svg width="80" height="80" viewBox="0 0 80 80" fill="none" xmlns="http://www.w3.org/2000/svg">
<g id="Group">
<rect id="Rectangle" opacity="0.5" width="80" height="80" rx="16" fill="white"/>
<g id="&#240;&#159;&#166;&#134; emoji &#34;rocket&#34;">
<path id="Vector" d="M17.6511 54.7478C13.8076 58.5925 13.6008 65.6004 13.6008 65.6004C13.6008 65.6004 20.6019 65.3936 24.4502 61.5489C28.2984 57.7041 29.8913 53.0651 28.0118 51.1897C26.1323 49.3097 21.4947 50.903 17.6511 54.7478Z" fill="url(#paint0_linear_270_32943)"/>
<path id="Vector_2" opacity="0.2" d="M25.8175 51.3401C26.4894 51.3401 27.0016 51.514 27.3446 51.8523C28.6368 53.1444 27.4903 57.1711 23.783 60.883C21.1047 63.5612 16.6456 64.3506 14.6252 64.5761C14.8507 62.5557 15.6401 58.0967 18.3137 55.4185C20.7899 52.9376 23.736 51.3401 25.8175 51.3401ZM25.8175 50.4004C23.5574 50.4004 20.3999 51.9979 17.6511 54.7513C13.8076 58.5948 13.6008 65.6004 13.6008 65.6004C13.6008 65.6004 20.6019 65.3937 24.4502 61.5502C28.2984 57.7067 29.8913 53.0692 28.0118 51.1945C27.4762 50.6494 26.7197 50.4004 25.8175 50.4004Z" fill="white"/>
<path id="Vector_3" d="M18.5614 55.5486C16.1328 57.9766 16.0007 62.3988 16.0007 62.3988C16.0007 62.3988 20.4241 62.2668 22.8527 59.8388C25.2813 57.4109 26.2905 54.4785 25.1021 53.2951C23.9138 52.1118 20.9947 53.116 18.5614 55.5486Z" fill="url(#paint1_linear_270_32943)"/>
<path id="Vector_4" d="M24.0672 56.2849C26.4292 58.8135 29.5287 58.5476 29.7842 58.1318L31.9437 54.612C32.0739 54.3993 31.9534 54.0609 31.8618 53.9738L26.034 48.1286C25.9424 48.0367 25.6194 47.9303 25.4073 48.0609L21.8981 50.2269C21.4884 50.4831 21.0256 53.0214 24.0672 56.2849Z" fill="#546E7A"/>
<path id="Vector_5" d="M39.2719 62.1657C38.8123 62.5478 38.1964 62.4629 38.1183 61.8967C37.9023 60.3302 38.0447 57.1831 36.1235 55.2109C34.2482 53.2858 31.2009 53.0027 31.2009 53.0027L42.6732 47.1992C42.6732 47.1992 44.8334 50.62 43.643 55.4893C42.6502 59.514 40.9542 60.7549 39.2719 62.1657Z" fill="#275DAD"/>
<path id="Vector_6" opacity="0.2" d="M42.03 49.1004C42.1128 49.3316 42.2001 49.5957 42.2782 49.8882C42.5908 51.0582 42.8528 52.9216 42.3058 55.1389C41.6117 57.9789 40.573 59.196 39.3549 60.2622C39.1986 58.4601 38.8585 56.0069 37.0981 54.2048C36.4546 53.5443 35.7008 53.0443 34.9608 52.6716L42.03 49.1004ZM42.6735 47.1992L31.2009 53.0018C31.2009 53.0018 34.2529 53.2896 36.1237 55.2096C38.0449 57.1816 37.9025 60.3282 38.1185 61.8944C38.1645 62.2294 38.4035 62.3992 38.6838 62.3992C38.8769 62.3992 39.0883 62.319 39.2722 62.1633C40.9545 60.7528 42.6505 59.5121 43.6388 55.488C44.8384 50.6147 42.6735 47.1992 42.6735 47.1992Z" fill="white"/>
<path id="Vector_7" d="M17.0683 40.0918C16.6071 40.4893 16.7718 41.1991 17.3365 41.2796C18.8989 41.502 22.0379 41.3553 24.0051 43.3333C25.9252 45.264 26.3252 47.9992 26.3252 47.9992L32.0008 35.918C32.0008 35.918 28.9983 34.5031 24.631 35.6436C21.6191 36.4338 18.6307 38.7384 17.0683 40.0918Z" fill="#275DAD"/>
<path id="Vector_8" opacity="0.2" d="M28.0182 36.6188C28.8043 36.6188 29.4822 36.704 30.0189 36.8081L26.4882 44.3319C26.1116 43.6553 25.6267 42.9597 25.0006 42.335C23.3294 40.6552 21.1074 40.234 19.3562 40.0542C20.8768 38.8902 22.9434 37.5557 24.9771 37.021C25.9939 36.7513 27.0155 36.6188 28.0182 36.6188ZM28.0182 35.1992C27.0249 35.1992 25.8809 35.3175 24.6287 35.644C21.6159 36.4343 18.6313 38.7387 17.0683 40.0921C16.607 40.4896 16.7718 41.1994 17.3367 41.2798C18.8996 41.5022 22.0395 41.3555 24.0073 43.3335C25.928 45.2641 26.3281 47.9992 26.3281 47.9992L32.0008 35.9185C32.0008 35.9185 30.4755 35.1992 28.0182 35.1992Z" fill="white"/>
<path id="Vector_9" opacity="0.2" d="M25.5463 49.6874L30.3287 54.4837L28.8197 56.9447C28.7715 56.9495 28.7185 56.9495 28.6606 56.9495C28.193 56.9495 26.5635 56.8286 25.1269 55.2911C23.3094 53.3426 23.0249 51.8196 23.049 51.2249L25.5463 49.6874ZM25.6475 48C25.5656 48 25.4836 48.0193 25.4113 48.058L21.9016 50.2241C21.487 50.4803 21.0242 53.0187 24.0663 56.2823C25.6138 57.9407 27.4795 58.4 28.6558 58.4C29.2729 58.4 29.6971 58.2743 29.7839 58.1292L31.9437 54.6094C32.0739 54.3967 31.9534 54.0582 31.8618 53.9712L26.038 48.1305C25.9802 48.0725 25.8163 48 25.6475 48Z" fill="white"/>
<path id="Vector_10" d="M47.3075 20C49.2266 20.8811 51.8137 22.3971 54.2824 24.8652C55.1543 25.7369 55.8982 26.6275 56.5426 27.4991C57.7888 29.1809 58.6417 30.7868 59.2008 32.0422C57.9546 35.3157 55.6044 39.1244 53.3063 41.422C43.9196 50.8066 33.5521 56.1645 28.1882 52.3699C27.8755 52.1473 27.5675 51.9436 27.2879 51.6925C22.687 47.5568 27.956 35.7183 37.5275 26.149C39.9299 23.7472 43.9338 21.2933 47.3075 20Z" fill="url(#paint2_radial_270_32943)"/>
<path id="Vector_11" d="M44.4007 38.3996C46.8308 38.3996 48.8007 36.4297 48.8007 33.9996C48.8007 31.5696 46.8308 29.5996 44.4007 29.5996C41.9707 29.5996 40.0007 31.5696 40.0007 33.9996C40.0007 36.4297 41.9707 38.3996 44.4007 38.3996Z" fill="#455A64"/>
<path id="Vector_12" opacity="0.2" d="M44.4007 30.5878C45.3094 30.5878 46.1686 30.9436 46.8106 31.5859C47.4526 32.2282 47.8081 33.088 47.8081 33.9971C47.8081 34.9063 47.4526 35.766 46.8106 36.4084C46.1686 37.0507 45.3094 37.4065 44.4007 37.4065C43.4921 37.4065 42.6328 37.0507 41.9909 36.4084C40.6625 35.0792 40.6625 32.9151 41.9909 31.5859C42.6328 30.9436 43.4872 30.5878 44.4007 30.5878ZM44.4007 29.5996C43.2748 29.5996 42.1489 30.0295 41.2896 30.8892C39.5711 32.6087 39.5711 35.3905 41.2896 37.11C42.1489 37.9697 43.2748 38.3996 44.4007 38.3996C45.5267 38.3996 46.6526 37.9697 47.5118 37.11C49.2304 35.3905 49.2304 32.6087 47.5118 30.8892C46.6526 30.0295 45.5267 29.5996 44.4007 29.5996Z" fill="white"/>
<path id="Vector_13" d="M36.0008 46.4C37.7681 46.4 39.2008 44.9673 39.2008 43.2C39.2008 41.4327 37.7681 40 36.0008 40C34.2335 40 32.8008 41.4327 32.8008 43.2C32.8008 44.9673 34.2335 46.4 36.0008 46.4Z" fill="#455A64"/>
<path id="Vector_14" d="M47.2688 20.3115C46.4094 24.7794 53.8979 33.529 58.929 32.751C60.4945 28.4887 61.1356 25.5966 61.563 20.6198C61.7813 18.0997 61.0799 17.3803 58.864 17.6543C52.9874 18.3786 50.6647 18.8484 47.2688 20.3115Z" fill="#E53935"/>
<g id="Group_2">
<path id="Vector_15" opacity="0.2" d="M59.6361 19.0435C59.9178 19.0435 60.0587 19.0772 60.1104 19.0964C60.1479 19.1831 60.2418 19.52 60.162 20.4393C59.7441 25.18 59.1431 27.8753 57.5888 31.9856C56.3961 35.1862 54.1234 38.897 52.062 41.0099C44.8729 48.3786 37.3222 52.9605 32.3542 52.9605C31.0159 52.9605 29.8796 52.6284 28.978 51.9739L28.823 51.8632C28.5836 51.6947 28.3816 51.5455 28.2126 51.3915C27.4519 50.6888 27.0481 49.6155 27.0105 48.2005C26.879 43.0506 31.5653 34.5509 38.4116 27.5336C40.5575 25.3341 44.3423 22.8987 47.6105 21.6184L47.6386 21.604C50.9585 20.2131 53.2688 19.7751 58.9881 19.0868C59.237 19.0579 59.453 19.0435 59.6361 19.0435ZM59.6361 17.5996C59.3919 17.5996 59.129 17.6189 58.8331 17.6526C52.8931 18.3649 50.5453 18.8269 47.1127 20.266C43.7694 21.5751 39.8015 24.0682 37.4208 26.5084C27.9356 36.2306 22.714 48.2583 27.2735 52.46C27.5458 52.7103 27.851 52.922 28.1656 53.1482C29.3396 54.0001 30.7577 54.3996 32.3542 54.3996C37.9796 54.3996 45.812 49.4567 53.0621 42.0303C55.3396 39.696 57.6686 35.8263 58.9036 32.5006C60.486 28.3085 61.134 25.464 61.566 20.5692C61.7492 18.4178 61.242 17.5996 59.6361 17.5996Z" fill="white"/>
<path id="Vector_16" opacity="0.2" d="M36.0015 40.9938C36.5935 40.9938 37.1457 41.2224 37.5636 41.6398C37.9815 42.0571 38.2103 42.6087 38.2103 43.2C38.2103 43.7913 37.9815 44.3429 37.5636 44.7602C37.1457 45.1776 36.5935 45.4062 36.0015 45.4062C35.4095 45.4062 34.8573 45.1776 34.4394 44.7602C34.0216 44.3429 33.7927 43.7913 33.7927 43.2C33.7927 42.6087 34.0216 42.0571 34.4394 41.6398C34.8623 41.2224 35.4145 40.9938 36.0015 40.9938ZM36.0015 40C35.1807 40 34.3648 40.313 33.738 40.9391C32.4893 42.1863 32.4893 44.2137 33.738 45.4609C34.3648 46.087 35.1807 46.4 36.0015 46.4C36.8223 46.4 37.6382 46.087 38.265 45.4609C39.5137 44.2137 39.5137 42.1863 38.265 40.9391C37.6432 40.313 36.8223 40 36.0015 40Z" fill="white"/>
</g>
</g>
</g>
<defs>
<linearGradient id="paint0_linear_270_32943" x1="28.7937" y1="57.9993" x2="13.5961" y2="57.9993" gradientUnits="userSpaceOnUse">
<stop stop-color="#FF6D00"/>
<stop offset="0.2487" stop-color="#FF9B00"/>
<stop offset="0.5135" stop-color="#FFC600"/>
<stop offset="0.721" stop-color="#FFE000"/>
<stop offset="0.8439" stop-color="#FFEA00"/>
</linearGradient>
<linearGradient id="paint1_linear_270_32943" x1="23.4021" y1="54.9197" x2="15.5077" y2="63.0562" gradientUnits="userSpaceOnUse">
<stop offset="0.0044475" stop-color="#C62828"/>
<stop offset="0.2711" stop-color="#D75327"/>
<stop offset="0.5983" stop-color="#E98126"/>
<stop offset="0.8504" stop-color="#F59D25"/>
<stop offset="0.9953" stop-color="#F9A825"/>
</linearGradient>
<radialGradient id="paint2_radial_270_32943" cx="0" cy="0" r="1" gradientUnits="userSpaceOnUse" gradientTransform="translate(46.3077 26.6369) rotate(180) scale(17.2822 17.2783)">
<stop offset="0.0112" stop-color="#F5F5F5"/>
<stop offset="0.9995" stop-color="#BDBDBD"/>
</radialGradient>
</defs>
</svg>
