<svg width="28" height="27" viewBox="0 0 28 27" fill="none" xmlns="http://www.w3.org/2000/svg">
<g id="&#240;&#159;&#166;&#134; emoji &#34;rocket&#34;">
<path id="Vector" d="M2.45697 20.7998C0.260714 22.9961 0.142578 26.9993 0.142578 26.9993C0.142578 26.9993 4.1431 26.8811 6.34204 24.6849C8.54099 22.4886 9.45117 19.8386 8.37721 18.7673C7.30324 17.6934 4.65323 18.6035 2.45697 20.7998Z" fill="url(#paint0_linear_270_34665)"/>
<path id="Vector_2" opacity="0.2" d="M7.12335 18.8495C7.5073 18.8495 7.79995 18.9488 7.99595 19.1421C8.7343 19.8805 8.07918 22.1815 5.96079 24.3025C4.43039 25.8329 1.8824 26.284 0.727889 26.4129C0.856765 25.2584 1.30783 22.7104 2.83555 21.18C4.2505 19.7624 5.93394 18.8495 7.12335 18.8495ZM7.12335 18.3125C5.83191 18.3125 4.02765 19.2254 2.45697 20.7987C0.260714 22.995 0.142578 26.9982 0.142578 26.9982C0.142578 26.9982 4.1431 26.8801 6.34204 24.6838C8.54099 22.4875 9.45117 19.8375 8.37721 18.7662C8.07113 18.4548 7.63886 18.3125 7.12335 18.3125Z" fill="#424242"/>
<path id="Vector_3" d="M3.12392 21.5699C1.74119 22.9527 1.66602 25.4711 1.66602 25.4711C1.66602 25.4711 4.18446 25.3959 5.5672 24.0132C6.94993 22.6305 7.5245 20.9605 6.8479 20.2865C6.1713 19.6126 4.50934 20.1845 3.12392 21.5699Z" fill="url(#paint1_linear_270_34665)"/>
<path id="Vector_4" d="M5.95386 21.593C7.26947 22.9972 8.99587 22.8496 9.13817 22.6187L10.341 20.6641C10.4135 20.5459 10.3464 20.358 10.2954 20.3096L7.0493 17.0636C6.99829 17.0126 6.8184 16.9535 6.70027 17.026L4.74565 18.2288C4.51743 18.3711 4.25968 19.7807 5.95386 21.593Z" fill="#546E7A"/>
<path id="Vector_5" d="M14.7948 25.165C14.5263 25.3825 14.1665 25.3341 14.1209 25.0119C13.9947 24.1206 14.0779 22.3297 12.9556 21.2074C11.8602 20.112 10.0801 19.9509 10.0801 19.9509L16.7816 16.6484C16.7816 16.6484 18.0435 18.595 17.3481 21.3658C16.7682 23.6561 15.7775 24.3622 14.7948 25.165Z" fill="#0288D1"/>
<path id="Vector_6" opacity="0.2" d="M16.4057 17.7305C16.4541 17.862 16.5051 18.0124 16.5507 18.1788C16.7333 18.8447 16.8863 19.9052 16.5668 21.1671C16.1614 22.7835 15.5546 23.4762 14.8431 24.083C14.7518 23.0573 14.5531 21.6612 13.5248 20.6355C13.1489 20.2596 12.7086 19.975 12.2763 19.7629L16.4057 17.7305ZM16.7816 16.6484L10.0801 19.9509C10.0801 19.9509 11.8629 20.1147 12.9556 21.2074C14.0779 22.3297 13.9947 24.1206 14.1209 25.0119C14.1477 25.2026 14.2873 25.2992 14.4511 25.2992C14.5639 25.2992 14.6874 25.2536 14.7948 25.165C15.7775 24.3622 16.7682 23.6561 17.3455 21.3658C18.0462 18.5923 16.7816 16.6484 16.7816 16.6484Z" fill="#424242"/>
<path id="Vector_7" d="M2.05299 12.8072C1.78987 13.0327 1.88384 13.4354 2.20603 13.4811C3.09742 13.6073 4.88826 13.524 6.01055 14.6463C7.106 15.7418 7.33421 17.2937 7.33421 17.2937L10.5722 10.4391C10.5722 10.4391 8.85924 9.63629 6.36765 10.2834C4.6493 10.7317 2.94438 12.0393 2.05299 12.8072Z" fill="#0288D1"/>
<path id="Vector_8" opacity="0.2" d="M8.30591 10.8367C8.75429 10.8367 9.14092 10.8851 9.447 10.9441L7.43331 15.2131C7.21852 14.8292 6.94197 14.4345 6.58488 14.0801C5.63174 13.127 4.36446 12.888 3.36567 12.786C4.2329 12.1255 5.41157 11.3683 6.57146 11.0649C7.1514 10.9119 7.73402 10.8367 8.30591 10.8367ZM8.30591 10.0312C7.73939 10.0312 7.08696 10.0984 6.37277 10.2836C4.65443 10.732 2.95219 12.0396 2.0608 12.8075C1.79768 13.033 1.89165 13.4357 2.21384 13.4814C3.10523 13.6076 4.89607 13.5243 6.01836 14.6466C7.11381 15.7421 7.34203 17.2939 7.34203 17.2939L10.5773 10.4394C10.5773 10.4394 9.70743 10.0312 8.30591 10.0312Z" fill="#424242"/>
<path id="Vector_9" opacity="0.2" d="M6.77741 17.9292L9.44084 20.5927L8.60046 21.9593C8.57361 21.962 8.54408 21.962 8.51186 21.962C8.25142 21.962 7.34392 21.8948 6.54382 21.041C5.53161 19.959 5.3732 19.1133 5.38662 18.783L6.77741 17.9292ZM6.83379 16.9922C6.78815 16.9922 6.7425 17.0029 6.70223 17.0244L4.74761 18.2272C4.51671 18.3695 4.25896 19.7791 5.95314 21.5914C6.815 22.5124 7.85406 22.7674 8.50918 22.7674C8.85285 22.7674 9.08912 22.6976 9.13745 22.6171L10.3403 20.6625C10.4128 20.5443 10.3457 20.3564 10.2946 20.3081L7.05127 17.0647C7.01905 17.0325 6.92776 16.9922 6.83379 16.9922Z" fill="#424242"/>
<path id="Vector_10" d="M19.0751 1.48828C20.1625 1.98768 21.6285 2.84685 23.0273 4.24569C23.5213 4.73971 23.9429 5.24448 24.308 5.7385C25.0141 6.69164 25.4974 7.60183 25.8142 8.31333C25.1081 10.1686 23.7764 12.3273 22.4742 13.6295C17.1554 18.9483 11.2808 21.9849 8.24149 19.8343C8.06429 19.7081 7.88977 19.5927 7.73136 19.4504C5.1243 17.1064 8.10993 10.3968 13.5335 4.9733C14.8947 3.61205 17.1635 2.22126 19.0751 1.48828Z" fill="url(#paint2_radial_270_34665)"/>
<path id="Vector_11" d="M17.6572 11.5799C18.9769 11.5799 20.0467 10.5101 20.0467 9.19035C20.0467 7.87063 18.9769 6.80078 17.6572 6.80078C16.3374 6.80078 15.2676 7.87063 15.2676 9.19035C15.2676 10.5101 16.3374 11.5799 17.6572 11.5799Z" fill="#455A64"/>
<path id="Vector_12" opacity="0.2" d="M17.6598 7.33776C18.1539 7.33776 18.621 7.53108 18.9701 7.88012C19.3191 8.22916 19.5124 8.69633 19.5124 9.19036C19.5124 9.68438 19.3191 10.1516 18.9701 10.5006C18.621 10.8496 18.1539 11.0429 17.6598 11.0429C17.1658 11.0429 16.6986 10.8496 16.3496 10.5006C15.6274 9.77835 15.6274 8.60236 16.3496 7.88012C16.6986 7.53108 17.1631 7.33776 17.6598 7.33776ZM17.6598 6.80078C17.0477 6.80078 16.4355 7.03437 15.9683 7.50154C15.034 8.43589 15.034 9.9475 15.9683 10.8819C16.4355 11.349 17.0477 11.5826 17.6598 11.5826C18.272 11.5826 18.8842 11.349 19.3513 10.8819C20.2857 9.9475 20.2857 8.43589 19.3513 7.50154C18.8842 7.03437 18.272 6.80078 17.6598 6.80078Z" fill="#424242"/>
<path id="Vector_13" d="M12.731 16.1535C13.686 16.1535 14.4601 15.3793 14.4601 14.4244C14.4601 13.4694 13.686 12.6953 12.731 12.6953C11.7761 12.6953 11.002 13.4694 11.002 14.4244C11.002 15.3793 11.7761 16.1535 12.731 16.1535Z" fill="#455A64"/>
<path id="Vector_14" d="M19.0803 1.48794C18.5836 3.93927 22.9116 8.73989 25.8194 8.31299C26.7242 5.97443 27.0947 4.38765 27.3417 1.65709C27.4679 0.274361 27.0625 -0.120322 25.7818 0.0300335C22.3854 0.427401 21.0429 0.685152 19.0803 1.48794Z" fill="#E53935"/>
<g id="Group">
<path id="Vector_15" opacity="0.2" d="M26.2358 0.805474C26.3969 0.805474 26.4774 0.824268 26.507 0.835008C26.5284 0.883337 26.5821 1.07128 26.5365 1.5841C26.2975 4.22874 25.9539 5.73229 25.0652 8.02521C24.3832 9.81068 23.0837 11.8807 21.905 13.0594C17.7944 17.17 13.4771 19.7261 10.6364 19.7261C9.87123 19.7261 9.22148 19.5408 8.70598 19.1757L8.61738 19.1139C8.48045 19.0199 8.365 18.9367 8.26834 18.8508C7.83338 18.4588 7.60248 17.86 7.581 17.0707C7.50582 14.1978 10.1854 9.45627 14.1 5.54166C15.327 4.31466 17.491 2.95609 19.3597 2.2419L19.3758 2.23385C21.2741 1.45791 22.595 1.21358 25.8653 0.829639C26.0076 0.813529 26.1311 0.805474 26.2358 0.805474ZM26.2358 0C26.0962 0 25.9458 0.0107398 25.7767 0.0295342C22.3802 0.426901 21.0378 0.684653 19.0751 1.48744C17.1635 2.21774 14.8947 3.60852 13.5335 4.96978C8.10993 10.3933 5.1243 17.1029 7.73136 19.4468C7.88708 19.5864 8.0616 19.7046 8.24149 19.8308C8.91272 20.306 9.72356 20.5289 10.6364 20.5289C13.853 20.5289 18.3314 17.7714 22.4769 13.6286C23.7791 12.3264 25.1108 10.1678 25.8169 8.31249C26.7218 5.97393 27.0923 4.38715 27.3393 1.65659C27.444 0.456436 27.154 0 26.2358 0Z" fill="#424242"/>
<path id="Vector_16" opacity="0.2" d="M12.729 13.2323C13.0485 13.2323 13.3466 13.3558 13.5721 13.5813C13.7976 13.8069 13.9211 14.1049 13.9211 14.4244C13.9211 14.7439 13.7976 15.0419 13.5721 15.2675C13.3466 15.493 13.0485 15.6165 12.729 15.6165C12.4095 15.6165 12.1115 15.493 11.886 15.2675C11.6604 15.0419 11.5369 14.7439 11.5369 14.4244C11.5369 14.1049 11.6604 13.8069 11.886 13.5813C12.1142 13.3558 12.4122 13.2323 12.729 13.2323ZM12.729 12.6953C12.286 12.6953 11.8457 12.8645 11.5074 13.2028C10.8335 13.8767 10.8335 14.9721 11.5074 15.646C11.8457 15.9843 12.286 16.1535 12.729 16.1535C13.172 16.1535 13.6124 15.9843 13.9507 15.646C14.6246 14.9721 14.6246 13.8767 13.9507 13.2028C13.615 12.8645 13.172 12.6953 12.729 12.6953Z" fill="#424242"/>
</g>
</g>
<defs>
<linearGradient id="paint0_linear_270_34665" x1="8.82398" y1="22.6572" x2="0.139893" y2="22.6572" gradientUnits="userSpaceOnUse">
<stop stop-color="#FF6D00"/>
<stop offset="0.2487" stop-color="#FF9B00"/>
<stop offset="0.5135" stop-color="#FFC600"/>
<stop offset="0.721" stop-color="#FFE000"/>
<stop offset="0.8439" stop-color="#FFEA00"/>
</linearGradient>
<linearGradient id="paint1_linear_270_34665" x1="5.87999" y1="21.2118" x2="1.3841" y2="25.8443" gradientUnits="userSpaceOnUse">
<stop offset="0.0044475" stop-color="#C62828"/>
<stop offset="0.2711" stop-color="#D75327"/>
<stop offset="0.5983" stop-color="#E98126"/>
<stop offset="0.8504" stop-color="#F59D25"/>
<stop offset="0.9953" stop-color="#F9A825"/>
</linearGradient>
<radialGradient id="paint2_radial_270_34665" cx="0" cy="0" r="1" gradientUnits="userSpaceOnUse" gradientTransform="translate(18.5086 5.24985) rotate(180) scale(9.79269)">
<stop offset="0.0112" stop-color="#F5F5F5"/>
<stop offset="0.9995" stop-color="#BDBDBD"/>
</radialGradient>
</defs>
</svg>
