<svg width="24" height="24" viewBox="0 0 24 24" fill="none" xmlns="http://www.w3.org/2000/svg">
<g id="exchange_12080679" clip-path="url(#clip0_47_2641)">
<g id="Layer_2_00000027576568604715463750000007385156632378539699_">
<g id="Layer_1_copy_3">
<g id="_82">
<path id="Vector" d="M21.9515 10.6569C21.1429 10.6569 20.4915 11.3127 20.4915 12.1168C20.4915 14.4662 18.5868 16.3754 16.2329 16.3799H5.57743L7.42821 14.5291C7.99872 13.9586 7.99872 13.0332 7.42821 12.4627C6.85771 11.8922 5.93232 11.8922 5.36181 12.4627L1.01786 16.8067C0.649503 17.1795 0.505753 17.7186 0.640519 18.2217C0.514737 18.635 4.93505 22.6914 5.1911 23.0508C5.46513 23.3248 5.83798 23.4776 6.22431 23.4776C7.48661 23.509 8.1829 21.8694 7.25751 20.9844L5.57743 19.2998H16.2329C20.1905 19.2998 23.4114 16.0789 23.4114 12.1168C23.4114 11.3127 22.76 10.6569 21.9515 10.6569Z" fill="#B6B6B6"/>
<path id="Vector_2" d="M2.05078 13.3477C2.85937 13.3477 3.51074 12.6918 3.51074 11.8877C3.51074 9.53831 5.41543 7.62913 7.76934 7.62464H18.4248L16.574 9.47542C16.0035 10.0459 16.0035 10.9713 16.574 11.5418C17.1445 12.1123 18.0699 12.1123 18.6404 11.5418C18.6719 11.5059 22.9889 7.19338 23.0158 7.16194C23.5234 6.62288 23.5459 5.78733 23.0652 5.22131C23.0383 5.18987 23.0113 5.15842 22.9844 5.13147L18.8111 0.958228C17.4186 -0.366967 15.4195 1.62307 16.7447 3.02463L18.4248 4.70471H7.76934C3.81172 4.70471 0.59082 7.9301 0.59082 11.8877C0.59082 12.6963 1.24219 13.3477 2.05078 13.3477Z" fill="#B6B6B6"/>
</g>
</g>
</g>
</g>
<defs>
<clipPath id="clip0_47_2641">
<rect width="23" height="23" fill="white" transform="translate(0.5 0.5)"/>
</clipPath>
</defs>
</svg>
