<svg width="20" height="21" viewBox="0 0 20 21" fill="none" xmlns="http://www.w3.org/2000/svg">
<g id="expand_3353523" clip-path="url(#clip0_58_3157)">
<g id="expand">
<path id="Vector" d="M17.5084 15.0184V13.4684C17.5036 13.3577 17.5376 13.2488 17.6045 13.1605M17.5084 15.0184L17.8751 12.985C17.7672 13.0102 17.6715 13.0723 17.6045 13.1605M17.5084 15.0184C17.5094 15.1839 17.461 15.3459 17.3695 15.4839C17.278 15.6218 17.1475 15.7294 16.9946 15.7928C16.8418 15.8563 16.6735 15.8728 16.5112 15.8403C16.3489 15.8077 16.2 15.7275 16.0834 15.61L17.5084 15.0184ZM17.6045 13.1605L17.4053 13.0094C17.5075 12.8747 17.6536 12.78 17.8183 12.7416L17.8327 12.7382L17.8473 12.7366C17.9421 12.726 18.0381 12.7361 18.1285 12.7663L18.0495 13.0035L18.1285 12.7663C18.2176 12.796 18.2994 12.8444 18.3682 12.9083C18.4365 12.969 18.491 13.0436 18.5281 13.1272C18.5656 13.2114 18.5844 13.3027 18.5834 13.3949M17.6045 13.1605L17.4053 13.0094C17.3044 13.1425 17.2525 13.3064 17.2584 13.4732L17.2584 15.0184L17.2584 15.0198C17.2591 15.1357 17.2252 15.2491 17.1612 15.3457C17.0971 15.4422 17.0058 15.5175 16.8988 15.5619C16.7918 15.6064 16.6739 15.6179 16.5603 15.5951C16.4467 15.5723 16.3425 15.5162 16.2609 15.434L16.2604 15.4335L13.3938 12.5585L13.3839 12.5486L13.3729 12.5398C13.1962 12.3984 12.9735 12.3274 12.7475 12.3404C12.5216 12.3534 12.3085 12.4495 12.1491 12.6103C11.9898 12.771 11.8956 12.985 11.8846 13.211C11.8736 13.4371 11.9466 13.6592 12.0896 13.8346L12.0976 13.8445L12.1066 13.8535L14.9724 16.7192C15.0522 16.801 15.1062 16.9044 15.1278 17.0166C15.1494 17.1292 15.1374 17.2457 15.0932 17.3515C15.049 17.4573 14.9746 17.5478 14.8793 17.6115C14.7841 17.6752 14.6723 17.7095 14.5578 17.71H13.0149C12.8472 17.7021 12.6819 17.7533 12.5479 17.8549C12.4118 17.9582 12.3171 18.1066 12.2808 18.2735L12.2783 18.285L12.2769 18.2966C12.2653 18.3921 12.2751 18.4891 12.3055 18.5804C12.3354 18.67 12.3844 18.752 12.4491 18.8207C12.5097 18.8886 12.5841 18.9428 12.6672 18.9798C12.7515 19.0172 12.8428 19.036 12.9349 19.035M12.9349 19.035H12.9334V18.785L12.937 19.035C12.9363 19.035 12.9356 19.035 12.9349 19.035ZM12.9349 19.035H17.6751V19.035L17.6782 19.035C17.9173 19.032 18.1458 18.9357 18.315 18.7666C18.4841 18.5975 18.5804 18.3689 18.5834 18.1298H18.5834V18.1267V13.3949M18.5834 13.3949V13.3934H18.3334L18.5834 13.3969C18.5834 13.3962 18.5834 13.3956 18.5834 13.3949ZM12.9334 20.21V20.21L12.929 20.2101C12.6706 20.2146 12.4142 20.1642 12.1767 20.0622C11.9392 19.9602 11.7261 19.8089 11.5515 19.6183L11.3672 19.7872L11.5515 19.6183C11.3769 19.4278 11.2448 19.2023 11.1638 18.9568C11.0831 18.7122 11.0552 18.4532 11.0818 18.197C11.1319 17.8027 11.3061 17.4344 11.5792 17.1455C11.8528 16.856 12.2116 16.6611 12.6035 16.5893L13.0719 16.5033L12.7352 16.1666L11.2435 14.6749C10.8539 14.2853 10.635 13.7569 10.635 13.2059C10.635 12.6549 10.8539 12.1264 11.2435 11.7368C11.6331 11.3472 12.1616 11.1283 12.7126 11.1283C13.2636 11.1283 13.792 11.3472 14.1816 11.7368L15.6733 13.2285L16.016 13.5712L16.0966 13.0933C16.1643 12.6917 16.361 12.323 16.6568 12.0431C16.9524 11.7634 17.331 11.5875 17.7354 11.5419C17.9922 11.515 18.2517 11.5429 18.4969 11.6238C18.7423 11.7047 18.9678 11.8369 19.1584 12.0115C19.3489 12.1861 19.5002 12.3992 19.6022 12.6367C19.7042 12.8741 19.7546 13.1306 19.7501 13.389L19.7501 13.389V13.3934V18.135C19.7501 18.6853 19.5315 19.2131 19.1423 19.6023C18.7532 19.9914 18.2254 20.21 17.6751 20.21H12.9334Z" stroke="#FCFCFC" stroke-width="0.5"/>
<path id="Vector_2" d="M12.935 1.8767C12.8428 1.87568 12.7515 1.89452 12.6673 1.93197C12.5841 1.96893 12.5097 2.02316 12.4492 2.09103C12.3844 2.15972 12.3354 2.2417 12.3055 2.33129L12.3055 2.3313L17.6751 2.1267C17.849 2.12886 18.0152 2.19892 18.1382 2.32191C18.2612 2.44491 18.3313 2.61111 18.3334 2.78504V7.5267C18.3332 7.58403 18.3204 7.64061 18.2959 7.69244C18.2715 7.74428 18.2359 7.79011 18.1918 7.8267M12.935 1.8767C12.9357 1.87671 12.9363 1.87672 12.937 1.87673L12.9334 2.1267V1.8767H12.935ZM12.935 1.8767H17.6751H17.6782L17.6782 1.87672C17.9174 1.87969 18.1459 1.97602 18.315 2.14514C18.4841 2.31426 18.5804 2.54278 18.5834 2.78193L18.5834 2.78504H18.5834V7.5267V7.52766C18.5831 7.62158 18.5621 7.71427 18.522 7.79919C18.483 7.88176 18.4269 7.95502 18.3573 8.01412M18.3573 8.01412C18.3592 8.01237 18.3611 8.01061 18.363 8.00883L18.1918 7.8267M18.3573 8.01412C18.3553 8.01581 18.3533 8.01749 18.3513 8.01915L18.1918 7.8267M18.3573 8.01412C18.289 8.07683 18.2082 8.12443 18.1202 8.15377C18.0298 8.18393 17.9338 8.19407 17.839 8.18349L17.8244 8.18186L17.81 8.1785C17.6453 8.1401 17.4992 8.04534 17.397 7.91063C17.2961 7.77752 17.2442 7.61366 17.2501 7.44681M18.1918 7.8267C18.1487 7.86722 18.0973 7.89789 18.0412 7.9166C17.9851 7.93531 17.9255 7.9416 17.8668 7.93504C17.7589 7.90987 17.6632 7.84779 17.5962 7.75953C17.5293 7.67127 17.4953 7.56238 17.5001 7.4517M15.1501 4.3767C15.2676 4.26014 15.3478 4.11123 15.3803 3.94894C15.4129 3.78665 15.3964 3.61834 15.3329 3.46547C15.2694 3.3126 15.1619 3.18209 15.0239 3.09059C14.886 2.99909 14.7239 2.95074 14.5584 2.9517H13.0084M15.1501 4.3767L13.0084 2.9517M15.1501 4.3767L12.2834 7.24337M15.1501 4.3767L12.2834 7.24337M13.0084 2.9517V3.2017H13.015C13.0177 3.20157 13.0204 3.20143 13.0231 3.20127L13.0084 2.9517ZM17.2501 7.44681V7.4517H17.5001M17.2501 7.44681C17.2502 7.4448 17.2502 7.44279 17.2503 7.44078L17.5001 7.4517M17.2501 7.44681V5.90231M17.5001 7.4517V5.9017M17.5001 5.9017L17.2501 5.90274C17.2501 5.90259 17.2501 5.90245 17.2501 5.90231M17.5001 5.9017C17.4994 5.73789 17.4505 5.57791 17.3594 5.44175C17.2683 5.3056 17.1391 5.19932 16.9879 5.13619C16.8368 5.07305 16.6703 5.05587 16.5095 5.08679C16.3486 5.11771 16.2004 5.19536 16.0834 5.31004M17.5001 5.9017H17.2501V5.90231M17.2501 5.90231C17.2495 5.78779 17.2153 5.67596 17.1516 5.58077C17.0878 5.48547 16.9974 5.41107 16.8916 5.36687C16.7858 5.32268 16.6693 5.31066 16.5567 5.3323C16.4444 5.35387 16.341 5.40793 16.2593 5.48775M16.0834 5.31004L16.2602 5.48681L16.2593 5.48775M16.0834 5.31004L13.2168 8.1767C13.1555 8.23799 13.0827 8.2866 13.0027 8.31977C12.9226 8.35293 12.8368 8.37 12.7501 8.37C12.6634 8.37 12.5776 8.35293 12.4975 8.31977M16.0834 5.31004L16.2584 5.48857C16.2587 5.4883 16.259 5.48803 16.2593 5.48775M16.2593 5.48775L13.3935 8.35348C13.309 8.43798 13.2087 8.505 13.0983 8.55073C12.9879 8.59647 12.8696 8.62 12.7501 8.62C12.6306 8.62 12.5123 8.59647 12.4019 8.55074L12.4975 8.31977M12.4975 8.31977L12.4019 8.55073C12.2915 8.505 12.1912 8.43798 12.1067 8.35348C12.0222 8.26898 11.9551 8.16867 11.9094 8.05826C11.8637 7.94786 11.8401 7.82954 11.8401 7.71004C11.8401 7.59054 11.8637 7.47221 11.9094 7.36181C11.9551 7.2514 12.0222 7.15109 12.1067 7.06659L12.2834 7.24337M12.4975 8.31977C12.4175 8.2866 12.3447 8.23799 12.2834 8.1767C12.2221 8.11542 12.1735 8.04267 12.1404 7.96259C12.1072 7.88252 12.0901 7.7967 12.0901 7.71004C12.0901 7.62337 12.1072 7.53755 12.1404 7.45748C12.1735 7.37741 12.2221 7.30465 12.2834 7.24337M15.7067 7.72493L14.2168 9.21475C13.8233 9.59164 13.2978 9.79939 12.7529 9.79336L12.7492 9.79337C12.3374 9.79488 11.9344 9.67431 11.591 9.44689C11.2477 9.21947 10.9795 8.8954 10.8203 8.51562C10.661 8.13584 10.6179 7.71739 10.6964 7.31312C10.7748 6.90905 10.9711 6.53727 11.2607 6.2447C11.2608 6.24455 11.2609 6.24441 11.2611 6.24426L12.7519 4.75348L13.092 4.41337L12.6182 4.33045C12.2236 4.26139 11.8616 4.06779 11.585 3.77801C11.3091 3.48889 11.1328 3.11919 11.0818 2.72285C11.0552 2.4667 11.0832 2.20781 11.1638 1.96322C11.2448 1.71776 11.3769 1.49229 11.5515 1.30174C11.7262 1.11119 11.9393 0.959901 12.1767 0.857888C12.4142 0.755876 12.6706 0.705466 12.929 0.709997L12.929 0.710036H12.9334H17.6751C18.2254 0.710036 18.7532 0.928651 19.1423 1.31779C19.5315 1.70693 19.7501 2.23471 19.7501 2.78504V7.5267H19.7501L19.7501 7.53108C19.7547 7.7895 19.7043 8.04593 19.6022 8.28341C19.5002 8.52088 19.3489 8.73397 19.1584 8.90859C18.9678 9.0832 18.7424 9.21535 18.4969 9.29629C18.2523 9.37696 17.9933 9.40492 17.7371 9.37834C17.3428 9.32821 16.9745 9.15403 16.6856 8.88094C16.396 8.60726 16.2012 8.24847 16.1293 7.8566L16.0434 7.38818L15.7067 7.72493Z" stroke="#FCFCFC" stroke-width="0.5"/>
<path id="Vector_3" d="M2.06674 12.71V12.71H2.12507H2.15114L2.17665 12.7154C2.35058 12.7521 2.50498 12.8514 2.6105 12.9944C2.71351 13.1341 2.76294 13.3059 2.75007 13.4786V15.0178C2.75064 15.1323 2.7849 15.2441 2.84857 15.3393C2.91234 15.4346 3.00278 15.509 3.10859 15.5532C3.21441 15.5974 3.3309 15.6094 3.44351 15.5878C3.55569 15.5662 3.65906 15.5122 3.7408 15.4324L6.60638 12.5585L6.60663 12.5583C6.69113 12.4738 6.79144 12.4067 6.90184 12.361C7.01225 12.3153 7.13058 12.2917 7.25007 12.2917C7.36957 12.2917 7.4879 12.3153 7.5983 12.361C7.70871 12.4067 7.80902 12.4738 7.89352 12.5583L7.71674 12.735L7.89352 12.5583C7.97802 12.6428 8.04504 12.7431 8.09077 12.8535C8.1365 12.9639 8.16004 13.0822 8.16004 13.2017C8.16004 13.3212 8.1365 13.4395 8.09077 13.5499C8.04504 13.6603 7.97802 13.7606 7.89352 13.8451L5.02685 16.7118L5.02612 16.7125C4.94385 16.7941 4.88775 16.8984 4.86496 17.012C4.84217 17.1256 4.85372 17.2434 4.89815 17.3504C4.94258 17.4574 5.01788 17.5488 5.11443 17.6128C5.21098 17.6769 5.32442 17.7107 5.44029 17.71L5.44174 17.71L6.97969 17.71C7.15338 17.6949 7.32684 17.7436 7.46741 17.8473C7.612 17.9539 7.71124 18.111 7.74549 18.2874L7.74996 18.3104L7.75007 18.3339C7.7505 18.4258 7.7314 18.5168 7.69406 18.6009C7.65875 18.6803 7.6079 18.7518 7.54454 18.8112C7.48517 18.8757 7.41316 18.9274 7.33292 18.9631C7.24868 19.0005 7.15738 19.0194 7.06522 19.0184M2.06674 12.71L2.30841 18.7684C2.13448 18.7662 1.96828 18.6961 1.84529 18.5732C1.72229 18.4502 1.65224 18.284 1.65007 18.11V13.3684M2.06674 12.71L2.06484 12.71M2.06674 12.71L2.06484 12.71M7.06522 19.0184C7.06454 19.0184 7.06386 19.0183 7.06318 19.0183L7.06674 18.7684V19.0184H7.06522ZM7.06522 19.0184H2.30841H2.3053L2.3053 19.0183C2.06615 19.0154 1.83763 18.919 1.66851 18.7499C1.49939 18.5808 1.40307 18.3523 1.40009 18.1131L1.40006 18.11H1.40007V13.3699M1.40007 13.3699C1.40008 13.3706 1.40009 13.3713 1.4001 13.3719L1.65007 13.3684M1.40007 13.3699C1.39905 13.2778 1.4179 13.1864 1.45534 13.1022L1.68379 13.2037L1.45534 13.1022C1.49305 13.0173 1.54874 12.9417 1.61854 12.8804L1.78341 13.0684M1.40007 13.3699V13.3684H1.65007M1.65007 13.3684L2.06674 12.96M2.06674 12.96C1.96233 12.9608 1.86172 12.9993 1.78341 13.0684M2.06674 12.96H2.12507H2.06674ZM1.78341 13.0684L1.61804 12.8809M1.78341 13.0684L1.61804 12.8809M2.06484 12.71C1.90019 12.7113 1.74153 12.772 1.61804 12.8809M2.06484 12.71L1.61804 12.8809M0.250075 13.3934H0.250113L0.250036 13.389C0.245505 13.1306 0.295915 12.8741 0.397927 12.6367C0.49994 12.3992 0.651229 12.1861 0.84178 12.0115C1.03233 11.8369 1.2578 11.7047 1.50325 11.6238C1.74791 11.5431 2.00686 11.5151 2.26307 11.5417C2.65742 11.5919 3.02566 11.766 3.31458 12.0391C3.60412 12.3128 3.79896 12.6716 3.87084 13.0635L3.95677 13.5319L4.29352 13.1951L5.78518 11.7035C6.1748 11.3139 6.70324 11.095 7.25424 11.095C7.52707 11.095 7.79723 11.1487 8.04929 11.2531C8.30135 11.3575 8.53038 11.5106 8.7233 11.7035C8.91622 11.8964 9.06925 12.1254 9.17366 12.3775C9.27806 12.6295 9.3318 12.8997 9.3318 13.1725C9.3318 13.4454 9.27806 13.7155 9.17366 13.9676C9.06925 14.2196 8.91622 14.4487 8.7233 14.6416L8.72136 14.6436L7.22969 16.1686L6.89197 16.5138L7.36886 16.5902C7.69241 16.6421 7.99591 16.7804 8.24722 16.9907C8.49853 17.201 8.6883 17.4753 8.79641 17.7846C8.90452 18.0939 8.92696 18.4267 8.86135 18.7478C8.79573 19.0688 8.64451 19.3661 8.4237 19.6082L8.42357 19.6084C8.25145 19.7974 8.04188 19.9485 7.80818 20.0521C7.57461 20.1556 7.32204 20.2094 7.06656 20.21C7.06643 20.21 7.06629 20.21 7.06616 20.21L2.32507 20.21C1.77475 20.21 1.24697 19.9914 0.857828 19.6023C0.46869 19.2131 0.250075 18.6854 0.250075 18.135V13.3934Z" stroke="#FCFCFC" stroke-width="0.5"/>
<path id="Vector_4" d="M1.41674 7.52514C1.41572 7.61731 1.43456 7.70863 1.47201 7.79288C1.50778 7.87338 1.55973 7.9456 1.62457 8.00509C1.68862 8.07271 1.76634 8.126 1.85261 8.1614C1.94326 8.19859 2.04107 8.21507 2.1389 8.20965L2.15797 8.2086L2.17665 8.20466C2.35058 8.16798 2.50498 8.06869 2.6105 7.92565C2.71351 7.78602 2.76294 7.61419 2.75007 7.44143L2.75008 5.9017L2.75007 5.90045C2.74949 5.78429 2.7836 5.67061 2.84804 5.57395C2.91216 5.47776 3.00342 5.40281 3.1102 5.35859C3.18029 5.33109 3.25505 5.31743 3.33035 5.31835L3.33035 5.31839L3.33485 5.31837C3.41162 5.31792 3.48773 5.33264 3.5588 5.36167C3.62963 5.3906 3.69408 5.43318 3.74847 5.48699C3.74865 5.48717 3.74884 5.48735 3.74902 5.48753L6.60612 8.3613L6.61613 8.37136L6.62721 8.38023C6.80391 8.52163 7.02667 8.59267 7.25261 8.57966C7.47854 8.56666 7.69168 8.47054 7.851 8.30981C8.01031 8.14907 8.10453 7.93508 8.11553 7.70904C8.12652 7.483 8.05351 7.26088 7.91054 7.08544L7.90251 7.07558L7.89352 7.06659L5.0278 4.20088C4.94797 4.11911 4.89391 4.0157 4.87234 3.90347C4.8507 3.79086 4.86272 3.67437 4.90691 3.56855C4.95111 3.46274 5.02551 3.3723 5.12081 3.30853C5.21599 3.24486 5.3278 3.2106 5.4423 3.21004H6.97969C7.15338 3.22519 7.32684 3.1765 7.46741 3.0728L7.319 2.87162L7.46741 3.0728C7.612 2.96614 7.71124 2.80906 7.74549 2.63269L7.74718 2.62397L7.74825 2.61516C7.75985 2.51958 7.75008 2.42263 7.71963 2.33129C7.68982 2.24185 7.64091 2.15998 7.57632 2.09136C7.51137 2.01816 7.43051 1.96076 7.33992 1.9236C7.25076 1.88702 7.15455 1.87101 7.05843 1.8767H2.32507V1.87668L2.32197 1.87672C2.08282 1.87969 1.8543 1.97602 1.68518 2.14514C1.51606 2.31426 1.41973 2.54278 1.41676 2.78193L1.41674 2.78193V2.78504V7.52514ZM1.41674 7.52514C1.41675 7.52447 1.41676 7.52381 1.41677 7.52314L1.66674 7.5267M1.41674 7.52514V7.5267H1.66674M1.66674 7.5267C1.66593 7.58338 1.67744 7.63955 1.70046 7.69135C1.72348 7.74314 1.75747 7.78932 1.80007 7.8267C1.84091 7.87171 1.89128 7.90704 1.9475 7.9301C2.00373 7.95317 2.06439 7.9634 2.12507 7.96004L1.66674 7.5267ZM6.44298 9.6377C6.18785 9.5331 5.95603 9.37889 5.76095 9.18402C5.76069 9.18377 5.76044 9.18351 5.76018 9.18326L4.29501 7.69309L3.95083 7.34306L3.87014 7.82728C3.80394 8.22452 3.6116 8.5899 3.32158 8.86932C3.03226 9.14808 2.66107 9.32651 2.26273 9.37837C2.00663 9.40489 1.7478 9.37692 1.50325 9.29629C1.2578 9.21535 1.03233 9.0832 0.84178 8.90859C0.651229 8.73397 0.49994 8.52088 0.397927 8.28341L0.168225 8.38208L0.397927 8.28341C0.295915 8.04593 0.245505 7.7895 0.250036 7.53108L0.250075 7.53109V7.5267V2.78504C0.250075 2.23471 0.46869 1.70693 0.857828 1.31779C1.24697 0.928651 1.77475 0.710036 2.32507 0.710036H7.06674V0.710074L7.07112 0.709997C7.32954 0.705466 7.58597 0.755876 7.82344 0.857888L7.92182 0.62888L7.82345 0.857888C8.06092 0.959901 8.27401 1.11119 8.44863 1.30174C8.62324 1.49229 8.75539 1.71776 8.83633 1.96322C8.91696 2.20776 8.94493 2.46659 8.91841 2.72269C8.86655 3.12104 8.68812 3.49222 8.40936 3.78154C8.12994 4.07156 7.76456 4.2639 7.36731 4.3301L6.88811 4.40996L7.23163 4.75348L8.72242 6.24426C8.72258 6.24442 8.72273 6.24458 8.72288 6.24473C9.01237 6.5373 9.20872 6.90907 9.28714 7.31312C9.3656 7.71739 9.32249 8.13584 9.16325 8.51562C9.00401 8.8954 8.7358 9.21947 8.39247 9.44689C8.05353 9.67141 7.6564 9.79179 7.25007 9.79337H7.23341V9.79343C6.96236 9.79344 6.69386 9.74056 6.44298 9.6377Z" stroke="#FCFCFC" stroke-width="0.5"/>
</g>
</g>
<defs>
<clipPath id="clip0_58_3157">
<rect width="20" height="20" fill="white" transform="translate(0 0.460022)"/>
</clipPath>
</defs>
</svg>
