<svg width="28" height="28" viewBox="0 0 28 28" fill="none" xmlns="http://www.w3.org/2000/svg">
<g id="facebook_5968764" clip-path="url(#clip0_391_14617)">
<g id="Group">
<path id="Vector" d="M27.4289 13.8602C27.4289 20.4633 22.5911 25.9362 16.2671 26.9284V17.6842H19.3495L19.936 13.8602H16.2671V11.3788C16.2671 10.3323 16.7797 9.31278 18.4229 9.31278H20.091V6.05725C20.091 6.05725 18.5769 5.79887 17.1295 5.79887C14.1081 5.79887 12.133 7.63024 12.133 10.9457V13.8602H8.77415V17.6842H12.133V26.9284C5.80903 25.9362 0.971191 20.4633 0.971191 13.8602C0.971191 6.55436 6.8942 0.631348 14.2 0.631348C21.5059 0.631348 27.4289 6.55436 27.4289 13.8602Z" fill="#1877F2"/>
<path id="Vector_2" d="M19.3493 17.6841L19.9358 13.8602H16.2668V11.3787C16.2668 10.3325 16.7793 9.31274 18.4227 9.31274H20.0908V6.0572C20.0908 6.0572 18.5769 5.79883 17.1296 5.79883C14.1078 5.79883 12.1328 7.6302 12.1328 10.9457V13.8602H8.77393V17.6841H12.1328V26.9283C12.8063 27.0339 13.4966 27.089 14.1998 27.089C14.903 27.089 15.5933 27.0339 16.2668 26.9283V17.6841H19.3493Z" fill="#FCFCFC"/>
</g>
</g>
<defs>
<clipPath id="clip0_391_14617">
<rect width="26.4577" height="26.4577" fill="white" transform="translate(0.971191 0.631348)"/>
</clipPath>
</defs>
</svg>
