<svg width="20" height="21" viewBox="0 0 20 21" fill="none" xmlns="http://www.w3.org/2000/svg">
<g id="lifebuoy_4088374 1" clip-path="url(#clip0_58_3175)">
<g id="Group">
<path id="Vector" d="M17.0711 3.38893C15.1823 1.50022 12.6711 0.460022 10 0.460022C7.32891 0.460022 4.8177 1.50022 2.92891 3.38893C1.0402 5.27768 0 7.78893 0 10.46C0 13.1311 1.0402 15.6424 2.92891 17.5311C4.8177 19.4198 7.32891 20.46 10 20.46C12.6711 20.46 15.1823 19.4198 17.0711 17.5311C18.9598 15.6424 20 13.1311 20 10.46C20 7.78893 18.9598 5.27768 17.0711 3.38893ZM16.6429 16.2743L14.4204 14.0518C15.1029 13.2135 15.5523 12.1785 15.6685 11.046H18.8086C18.682 12.9893 17.9276 14.8107 16.6429 16.2743ZM1.19148 11.046H4.33152C4.44773 12.1785 4.89715 13.2135 5.57957 14.0518L3.35711 16.2743C2.07242 14.8107 1.31801 12.9893 1.19148 11.046ZM3.35711 4.6458L5.57957 6.86826C4.89715 7.70655 4.4477 8.74162 4.33152 9.87412H1.19148C1.31801 7.93076 2.07242 6.10936 3.35711 4.6458ZM10 14.9866C7.50406 14.9866 5.47344 12.956 5.47344 10.46C5.47344 7.96405 7.50406 5.93346 10 5.93346C12.4959 5.93346 14.5266 7.96408 14.5266 10.46C14.5266 12.956 12.496 14.9866 10 14.9866ZM13.5918 6.03959C12.7535 5.35717 11.7184 4.90772 10.5859 4.79155V1.65151C12.5293 1.77803 14.3507 2.53248 15.8143 3.81717L13.5918 6.03959ZM9.41406 4.79155C8.28156 4.90776 7.24648 5.35717 6.4082 6.03959L4.18574 3.81713C5.64934 2.53248 7.47074 1.77803 9.41406 1.65151V4.79155ZM6.4082 14.8805C7.24648 15.5629 8.28156 16.0123 9.41406 16.1285V19.2685C7.47074 19.142 5.64934 18.3876 4.18574 17.1029L6.4082 14.8805ZM10.5859 16.1285C11.7184 16.0123 12.7535 15.5629 13.5918 14.8805L15.8143 17.1029C14.3507 18.3876 12.5293 19.1421 10.5859 19.2686V16.1285ZM15.6685 9.87408C15.5523 8.74158 15.1029 7.70651 14.4204 6.86823L16.6429 4.64576C17.9275 6.10936 18.682 7.93076 18.8085 9.87405H15.6685V9.87408Z" fill="#FCFCFC"/>
<path id="Vector_2" d="M10.4381 7.59727C10.3269 7.47207 10.1675 7.40039 10 7.40039C9.83256 7.40039 9.67311 7.47207 9.56189 7.59727C9.54221 7.61945 9.07389 8.14832 8.59936 8.81367C7.56689 10.2614 7.56689 10.8824 7.56689 11.0865C7.56689 12.4281 8.65838 13.5196 9.99998 13.5196C11.3416 13.5196 12.4331 12.4281 12.4331 11.0865C12.4331 10.8824 12.4331 10.2614 11.4006 8.81367C10.9262 8.14832 10.4578 7.61945 10.4381 7.59727ZM10 12.3477C9.30459 12.3477 8.73881 11.782 8.73881 11.0865C8.73881 10.7604 9.21076 9.88031 10 8.89492C10.7893 9.88039 11.2612 10.7605 11.2612 11.0865C11.2612 11.782 10.6954 12.3477 10 12.3477Z" fill="#FCFCFC"/>
</g>
</g>
<defs>
<clipPath id="clip0_58_3175">
<rect width="20" height="20" fill="white" transform="translate(0 0.460022)"/>
</clipPath>
</defs>
</svg>
