<svg width="25" height="26" viewBox="0 0 25 26" fill="none" xmlns="http://www.w3.org/2000/svg">
<g id="Group 37072">
<path id="Vector" d="M23.7119 11.7123C23.5526 11.5624 23.3699 11.4467 23.1763 11.3671C18.4519 9.42555 13.7296 7.47833 9.00572 5.53381C8.29813 5.24253 7.5407 5.45496 7.07648 5.92454C6.61227 6.3941 6.40626 7.15905 6.70772 7.86273C7.35757 9.37963 8.32249 11.6304 8.65813 12.4131L14.1675 12.4131C14.3206 12.4109 14.4687 12.4685 14.5802 12.5735C14.8152 12.7987 14.8232 13.1719 14.598 13.407C14.4856 13.5242 14.3299 13.5899 14.1675 13.5886H8.65813C8.32249 14.3713 7.35758 16.6221 6.70772 18.139C6.40626 18.8427 6.61234 19.6076 7.07648 20.0772C7.5402 20.5472 8.29818 20.7592 9.00572 20.4679C13.7294 18.5235 18.4526 16.579 23.1763 14.6346C24.3456 14.1533 24.6343 12.5765 23.7119 11.7123Z" fill="white"/>
</g>
</svg>
