<svg width="20" height="21" viewBox="0 0 20 21" fill="none" xmlns="http://www.w3.org/2000/svg">
<g id="remove_background.svg">
<path id="Vector" fill-rule="evenodd" clip-rule="evenodd" d="M1.66659 9.61668H2.49992V5.45001C2.49992 4.0693 3.6193 2.95001 4.99992 2.95001H14.9999C16.3805 2.95001 17.4999 4.0693 17.4999 5.45001V9.61668H18.3333C18.7934 9.61668 19.1666 9.98976 19.1666 10.45C19.1666 10.9103 18.7934 11.2833 18.3333 11.2833H17.4999V15.45C17.4999 16.8308 16.3805 17.95 14.9999 17.95H4.99992C3.6193 17.95 2.49992 16.8308 2.49992 15.45V11.2833H1.66659C1.20638 11.2833 0.833252 10.9103 0.833252 10.45C0.833252 9.98976 1.20638 9.61668 1.66659 9.61668ZM14.9999 4.61668H4.99992C4.53971 4.61668 4.16659 4.98975 4.16659 5.45001V9.61668H15.8333V5.45001C15.8333 4.98975 15.4601 4.61668 14.9999 4.61668ZM13.5773 11.2833H11.4225L6.42251 16.2833H8.57734L13.5773 11.2833ZM9.75584 16.2833L14.7558 11.2833H15.8333V12.3608L11.9107 16.2833H9.75584ZM13.0892 16.2833H14.9999C15.4601 16.2833 15.8333 15.9103 15.8333 15.45V13.5393L13.0892 16.2833ZM5.24399 16.2833L10.244 11.2833H8.08918L4.16659 15.2059V15.45C4.16659 15.9103 4.53971 16.2833 4.99992 16.2833H5.24399ZM4.16659 14.0274L6.91066 11.2833H4.16659V14.0274Z" fill="#FCFCFC"/>
</g>
</svg>
