<svg width="20" height="21" viewBox="0 0 20 21" fill="none" xmlns="http://www.w3.org/2000/svg">
<g id="resize.svg">
<path id="Vector" d="M5.00008 2.11666C5.46031 2.11666 5.83342 2.48976 5.83342 2.95V13.7833C5.83342 14.2436 6.20651 14.6167 6.66675 14.6167H13.3334V16.2833H6.66675C5.28604 16.2833 4.16675 15.1641 4.16675 13.7833V6.28333H2.50008C2.03985 6.28333 1.66675 5.91023 1.66675 5.45C1.66675 4.98976 2.03985 4.61666 2.50008 4.61666H4.16675V2.95C4.16675 2.48976 4.53985 2.11666 5.00008 2.11666Z" fill="#FCFCFC"/>
<path id="Vector_2" d="M6.66675 6.28333H13.3334C13.7937 6.28333 14.1667 6.65643 14.1667 7.11666V17.95C14.1667 18.4102 14.5398 18.7833 15.0001 18.7833C15.4603 18.7833 15.8334 18.4102 15.8334 17.95V16.2833H17.5001C17.9603 16.2833 18.3334 15.9102 18.3334 15.45C18.3334 14.9897 17.9603 14.6167 17.5001 14.6167H15.8334V7.11666C15.8334 5.73595 14.7142 4.61666 13.3334 4.61666H6.66675V6.28333Z" fill="#FCFCFC"/>
</g>
</svg>
