<svg width="20" height="21" viewBox="0 0 20 21" fill="none" xmlns="http://www.w3.org/2000/svg">
<g id="retouch.svg">
<path id="Vector" fill-rule="evenodd" clip-rule="evenodd" d="M6.27078 17.9291C6.84068 18.499 7.58775 18.7838 8.33467 18.7834H17.4998C17.7299 18.7834 17.9165 18.5968 17.9165 18.3667C17.9165 18.1366 17.7299 17.95 17.4998 17.95H10.3744L10.3956 17.9291L17.4789 10.8458C18.6179 9.7067 18.6179 7.86 17.4789 6.72097L13.7289 2.97097C12.5898 1.83194 10.7432 1.83194 9.60409 2.97097L2.52078 10.0543C1.38175 11.1934 1.38175 13.04 2.52078 14.1791L6.27078 17.9291ZM7.44929 16.7506C7.93745 17.2387 8.72892 17.2387 9.21709 16.7506L11.2141 14.7535L5.69633 9.23578L3.69929 11.2328C3.21113 11.7209 3.21113 12.5124 3.69929 13.0006L7.44929 16.7506ZM6.28558 8.64652L10.7826 4.14948C11.2708 3.66132 12.0623 3.66132 12.5504 4.14948L16.3004 7.89948C16.7885 8.38764 16.7885 9.17912 16.3004 9.66728L11.8033 14.1643L6.28558 8.64652Z" fill="#FCFCFC"/>
<path id="Vector_2" d="M4.0036 3.13366C3.92302 2.8888 3.57665 2.8888 3.49607 3.13366L3.131 4.244C3.1043 4.32458 3.04107 4.3878 2.96049 4.41451L1.85015 4.77958C1.60529 4.86016 1.60529 5.20653 1.85015 5.28711L2.96049 5.65218C3.04107 5.6789 3.1043 5.74211 3.131 5.8227L3.49607 6.93303C3.57665 7.1779 3.92302 7.1779 4.0036 6.93303L4.36867 5.8227C4.39539 5.74211 4.4586 5.6789 4.53919 5.65218L5.64952 5.28711C5.89439 5.20653 5.89439 4.86016 5.64952 4.77958L4.53919 4.41451C4.4586 4.3878 4.39539 4.32458 4.36867 4.244L4.0036 3.13366Z" fill="#FCFCFC"/>
<path id="Vector_3" d="M15.6302 13.9303C15.6946 13.7343 15.9718 13.7343 16.0362 13.9303L16.3283 14.8185C16.3496 14.883 16.4002 14.9336 16.4647 14.9549L17.3529 15.247C17.5489 15.3114 17.5489 15.5886 17.3529 15.653L16.4647 15.9451C16.4002 15.9664 16.3496 16.017 16.3283 16.0815L16.0362 16.9698C15.9718 17.1657 15.6946 17.1657 15.6302 16.9698L15.3381 16.0815C15.3168 16.017 15.2662 15.9664 15.2017 15.9451L14.3134 15.653C14.1175 15.5886 14.1175 15.3114 14.3134 15.247L15.2017 14.9549C15.2662 14.9336 15.3168 14.883 15.3381 14.8185L15.6302 13.9303Z" fill="#FCFCFC"/>
<path id="Vector_4" d="M3.06876 16.3935C3.02041 16.2466 2.8126 16.2466 2.76425 16.3935L2.54521 17.0598C2.52918 17.1081 2.49125 17.146 2.4429 17.162L1.7767 17.3811C1.62977 17.4294 1.62977 17.6373 1.7767 17.6856L2.4429 17.9047C2.49125 17.9207 2.52918 17.9586 2.54521 18.0069L2.76425 18.6732C2.8126 18.8201 3.02041 18.8201 3.06876 18.6732L3.28781 18.0069C3.30383 17.9586 3.34176 17.9207 3.39011 17.9047L4.05631 17.6856C4.20324 17.6373 4.20324 17.4294 4.05631 17.3811L3.39011 17.162C3.34176 17.146 3.30383 17.1081 3.28781 17.0598L3.06876 16.3935Z" fill="#FCFCFC"/>
</g>
</svg>
