<svg width="20" height="21" viewBox="0 0 20 21" fill="none" xmlns="http://www.w3.org/2000/svg">
<g id="rgb_7213068" clip-path="url(#clip0_58_3120)">
<g id="Group">
<path id="Vector" d="M18.0372 13.3959C18.0372 11.3215 16.8134 9.5278 15.0501 8.698C15.1407 8.31452 15.1889 7.91483 15.1889 7.50409C15.1889 4.64292 12.8612 2.31519 10 2.31519C7.13887 2.31519 4.81113 4.64292 4.81113 7.50409C4.81113 7.91487 4.85934 8.31452 4.95 8.698C3.18668 9.52776 1.96289 11.3215 1.96289 13.3959C1.96289 16.2571 4.29062 18.5848 7.1518 18.5848C8.20293 18.5848 9.18188 18.2703 10 17.731C10.8182 18.2703 11.7971 18.5848 12.8483 18.5848C15.7095 18.5848 18.0372 16.2571 18.0372 13.3959ZM16.8653 13.3959C16.8653 15.6109 15.0633 17.4129 12.8483 17.4129C12.1601 17.4129 11.5118 17.2389 10.945 16.9326C11.8103 16.0051 12.3407 14.7614 12.3407 13.3959C12.3407 12.9851 12.2925 12.5854 12.2019 12.202C13.2629 11.7027 14.1282 10.8545 14.6495 9.80601C15.9624 10.4675 16.8653 11.8282 16.8653 13.3959ZM8.83121 13.3959C8.83121 13.1159 8.86012 12.8425 8.91488 12.5785C9.61063 12.7305 10.3894 12.7305 11.0852 12.5785C11.14 12.8425 11.1689 13.1159 11.1689 13.3959C11.1689 14.4987 10.722 15.4991 10 16.2257C9.27805 15.4991 8.83121 14.4987 8.83121 13.3959ZM10 10.566C10.264 10.8317 10.4911 11.134 10.6731 11.4645C10.2375 11.5398 9.76258 11.5398 9.32695 11.4645C9.50898 11.134 9.73605 10.8317 10 10.566ZM8.19883 11.094C7.4718 10.7277 6.87059 10.1471 6.47875 9.4355C7.34914 9.28073 8.30902 9.44694 9.05512 9.85917C8.7134 10.2254 8.42402 10.641 8.19883 11.094ZM10.9449 9.85917C11.6909 9.44698 12.6511 9.28073 13.5213 9.4355C13.1295 10.1471 12.5282 10.7277 11.8012 11.094C11.5761 10.641 11.2867 10.2254 10.9449 9.85917ZM5.98301 7.50409C5.98301 5.28909 7.78504 3.48706 10 3.48706C12.215 3.48706 14.0171 5.28909 14.0171 7.50409C14.0171 7.78409 13.9882 8.05745 13.9334 8.32144C13.5833 8.24663 13.2204 8.20694 12.8483 8.20694C11.7971 8.20694 10.8182 8.52144 10 9.06081C9.18188 8.52144 8.20293 8.20694 7.1518 8.20694C6.77973 8.20694 6.4168 8.24663 6.06668 8.32144C6.01191 8.05745 5.98301 7.78409 5.98301 7.50409ZM3.13477 13.3959C3.13477 11.8281 4.03766 10.4675 5.35063 9.80601C5.87184 10.8545 6.73723 11.7027 7.7982 12.202C7.70754 12.5855 7.65934 12.9851 7.65934 13.3959C7.65934 14.7614 8.18981 16.0051 9.05512 16.9326C8.48828 17.2389 7.84 17.4129 7.1518 17.4129C4.9368 17.4129 3.13477 15.6109 3.13477 13.3959Z" fill="#FCFCFC"/>
<path id="Vector_2" d="M0.585938 4.178C0.909531 4.178 1.17188 3.91565 1.17188 3.59206V1.62183H3.14211C3.4657 1.62183 3.72805 1.35948 3.72805 1.03589C3.72805 0.712295 3.4657 0.449951 3.14211 0.449951H0.585938C0.262344 0.449951 0 0.712295 0 1.03589V3.59206C0 3.91569 0.262344 4.178 0.585938 4.178Z" fill="#FCFCFC"/>
<path id="Vector_3" d="M19.4141 0.449951H16.8579C16.5343 0.449951 16.272 0.712295 16.272 1.03589C16.272 1.35948 16.5343 1.62183 16.8579 1.62183H18.8281V3.59206C18.8281 3.91565 19.0905 4.178 19.4141 4.178C19.7377 4.178 20 3.91565 20 3.59206V1.03589C20 0.712295 19.7377 0.449951 19.4141 0.449951Z" fill="#FCFCFC"/>
<path id="Vector_4" d="M3.14211 19.2781H1.17188V17.3079C1.17188 16.9843 0.909531 16.7219 0.585938 16.7219C0.262344 16.7219 0 16.9843 0 17.3079V19.864C0 20.1876 0.262344 20.45 0.585938 20.45H3.14211C3.4657 20.45 3.72805 20.1876 3.72805 19.864C3.72805 19.5404 3.46574 19.2781 3.14211 19.2781Z" fill="#FCFCFC"/>
<path id="Vector_5" d="M19.4141 16.7219C19.0905 16.7219 18.8281 16.9843 18.8281 17.3079V19.2781H16.8579C16.5343 19.2781 16.272 19.5404 16.272 19.864C16.272 20.1876 16.5343 20.45 16.8579 20.45H19.4141C19.7377 20.45 20 20.1876 20 19.864V17.3079C20 16.9842 19.7377 16.7219 19.4141 16.7219Z" fill="#FCFCFC"/>
</g>
</g>
<defs>
<clipPath id="clip0_58_3120">
<rect width="20" height="20" fill="white" transform="translate(0 0.449951)"/>
</clipPath>
</defs>
</svg>
