<svg width="20" height="21" viewBox="0 0 20 21" fill="none" xmlns="http://www.w3.org/2000/svg">
<g id="round_16179374" clip-path="url(#clip0_58_3127)">
<g id="Layer_x0020_1">
<path id="Vector" fill-rule="evenodd" clip-rule="evenodd" d="M10 0.801514C15.3125 0.801514 19.6484 5.13745 19.6484 10.45C19.6484 15.7625 15.3125 20.0984 10 20.0984C8.35938 20.0984 6.83594 19.7078 5.50781 18.9656C4.375 18.3796 3.39844 17.5593 2.57812 16.5828C1.95312 15.8406 1.44531 14.9812 1.05469 14.0437C0.625 12.95 0.351562 11.7 0.351562 10.45C0.351562 8.96558 0.703125 7.52026 1.32812 6.27026C1.79688 5.2937 2.42188 4.39526 3.20312 3.65308C4.02344 2.83276 4.96094 2.20776 5.97656 1.69995C7.1875 1.15308 8.55469 0.801514 10 0.801514ZM10 1.50464V19.3562C14.9219 19.3562 18.9453 15.3718 18.9453 10.4109C18.9453 5.48901 14.9609 1.46558 10 1.46558V1.50464Z" fill="#FCFCFC"/>
</g>
</g>
<defs>
<clipPath id="clip0_58_3127">
<rect width="20" height="20" fill="white" transform="translate(0 0.449951)"/>
</clipPath>
</defs>
</svg>
