<svg width="24" height="24" viewBox="0 0 24 24" fill="none" xmlns="http://www.w3.org/2000/svg">
<g id="sparkles_6854002" clip-path="url(#clip0_47_2635)">
<path id="Vector" d="M19.1873 23.5C18.9958 23.5001 18.8086 23.4429 18.6499 23.3356C18.4912 23.2283 18.3683 23.076 18.297 22.8982L17.4882 20.8732L15.4604 20.0193C15.2864 19.9425 15.1391 19.816 15.0368 19.6557C14.9345 19.4954 14.8818 19.3085 14.8854 19.1184C14.889 18.9282 14.9486 18.7434 15.0569 18.5871C15.1652 18.4308 15.3172 18.3099 15.4939 18.2397L17.4949 17.4817L18.297 15.4768C18.3708 15.3016 18.4946 15.1521 18.653 15.0469C18.8114 14.9418 18.9972 14.8857 19.1873 14.8857C19.3774 14.8857 19.5633 14.9418 19.7217 15.0469C19.88 15.1521 20.0039 15.3016 20.0776 15.4768L20.8836 17.4893L22.8961 18.2953C23.0716 18.3687 23.2216 18.4924 23.327 18.6508C23.4325 18.8092 23.4887 18.9953 23.4887 19.1856C23.4887 19.3759 23.4325 19.5619 23.327 19.7203C23.2216 19.8787 23.0716 20.0024 22.8961 20.0759L20.8836 20.8818L20.0776 22.8943C20.007 23.0728 19.8843 23.226 19.7256 23.334C19.5668 23.442 19.3793 23.4998 19.1873 23.5ZM10.0832 20.625C9.66914 20.63 9.26463 20.5007 8.93018 20.2566C8.59574 20.0125 8.34933 19.6667 8.22783 19.2709L6.68108 14.4342L1.82904 12.8107C1.43743 12.6798 1.09756 12.4279 0.858523 12.0912C0.619486 11.7545 0.493653 11.3506 0.499199 10.9377C0.504745 10.5248 0.641383 10.1244 0.889378 9.79426C1.13737 9.46412 1.48389 9.22136 1.87887 9.10103L6.69258 7.63095L8.31408 2.78753C8.43464 2.3897 8.68402 2.04323 9.023 1.80261C9.36198 1.562 9.77133 1.44088 10.1867 1.45832C10.6008 1.45889 11.0035 1.59354 11.3347 1.84214C11.6659 2.09073 11.9076 2.4399 12.0238 2.83737L13.492 7.64341L18.3124 9.18633C18.7012 9.31674 19.0392 9.566 19.2787 9.89891C19.5181 10.2318 19.647 10.6316 19.647 11.0417C19.647 11.4518 19.5181 11.8515 19.2787 12.1844C19.0392 12.5173 18.7012 12.7666 18.3124 12.897L13.4833 14.4418L11.9385 19.2709C11.817 19.6667 11.5706 20.0125 11.2361 20.2566C10.9017 20.5007 10.4972 20.63 10.0832 20.625ZM20.1457 7.20832C19.932 7.20832 19.7245 7.13693 19.5561 7.00549C19.3877 6.87405 19.268 6.6901 19.2161 6.48287L18.874 5.11245L17.5007 4.74349C17.2943 4.68804 17.1123 4.56517 16.9838 4.39443C16.8552 4.2237 16.7874 4.01488 16.7911 3.80119C16.7949 3.58749 16.87 3.38118 17.0044 3.21505C17.1389 3.04893 17.325 2.93251 17.5332 2.88432L18.8749 2.57287L19.2161 1.22545C19.268 1.01823 19.3877 0.834307 19.5561 0.702888C19.7245 0.571469 19.932 0.500092 20.1457 0.500092C20.3593 0.500092 20.5668 0.571469 20.7352 0.702888C20.9036 0.834307 21.0233 1.01823 21.0752 1.22545L21.4145 2.58437L22.7734 2.92457C22.9806 2.97651 23.1646 3.09619 23.296 3.26461C23.4274 3.43303 23.4988 3.64053 23.4988 3.85416C23.4988 4.06778 23.4274 4.27529 23.296 4.44371C23.1646 4.61213 22.9806 4.73181 22.7734 4.78374L21.4145 5.12395L21.0752 6.48287C21.0233 6.6901 20.9037 6.87405 20.7352 7.00549C20.5668 7.13693 20.3593 7.20832 20.1457 7.20832Z" fill="#B6B6B6"/>
</g>
<defs>
<clipPath id="clip0_47_2635">
<rect width="23" height="23" fill="white" transform="translate(0.5 0.5)"/>
</clipPath>
</defs>
</svg>
