<svg width="20" height="21" viewBox="0 0 20 21" fill="none" xmlns="http://www.w3.org/2000/svg">
<g id="stickers_to_photo.svg">
<path id="Vector" fill-rule="evenodd" clip-rule="evenodd" d="M19.1461 6.30391C19.1597 6.15999 19.1667 6.01414 19.1667 5.86666C19.1667 3.33535 17.1147 1.28333 14.5833 1.28333C12.052 1.28333 10 3.33535 10 5.86666C10 8.39797 12.052 10.45 14.5833 10.45C14.7308 10.45 14.8767 10.443 15.0206 10.4294L19.1461 6.30391ZM17.0833 4.61666C17.1293 4.61666 17.175 4.61748 17.2205 4.61913C16.7529 3.6324 15.7478 2.94999 14.5833 2.94999C12.9725 2.94999 11.6667 4.25583 11.6667 5.86666C11.6667 7.03113 12.3491 8.03621 13.3358 8.50382C13.3342 8.4583 13.3333 8.41258 13.3333 8.36666C13.3333 6.29559 15.0123 4.61666 17.0833 4.61666Z" fill="#FCFCFC"/>
<path id="Vector_2" d="M5 2.95001H8.75C9.21025 2.95001 9.58333 3.32311 9.58333 3.78335C9.58333 4.24358 9.21025 4.61668 8.75 4.61668H5C4.77898 4.61668 4.56702 4.70448 4.41074 4.86075C4.25447 5.01704 4.16667 5.229 4.16667 5.45001V11.7715L6.56583 9.37235C7.03465 8.90368 7.67042 8.64037 8.33333 8.64037C8.99625 8.64037 9.63208 8.90376 10.1009 9.37243L13.9226 13.1941C14.248 13.5195 14.248 14.0472 13.9226 14.3726C13.5972 14.698 13.0695 14.698 12.7441 14.3726L8.9225 10.551C8.76625 10.3948 8.55425 10.307 8.33333 10.307C8.11241 10.307 7.90052 10.3948 7.74426 10.5509L4.16667 14.1285V15.45C4.16667 15.671 4.25447 15.883 4.41074 16.0393C4.56702 16.1955 4.77898 16.2833 5 16.2833H15C15.221 16.2833 15.433 16.1955 15.5892 16.0393C15.7455 15.883 15.8333 15.671 15.8333 15.45V11.2833C15.8333 10.8231 16.2064 10.45 16.6667 10.45C17.1269 10.45 17.5 10.8231 17.5 11.2833V15.45C17.5 16.1131 17.2366 16.7489 16.7677 17.2178C16.2989 17.6866 15.6631 17.95 15 17.95H5C4.33696 17.95 3.70107 17.6866 3.23223 17.2178C2.76339 16.7489 2.5 16.1131 2.5 15.45V5.45001C2.5 4.78697 2.76339 4.15109 3.23223 3.68225C3.70107 3.2134 4.33696 2.95001 5 2.95001Z" fill="#FCFCFC"/>
</g>
</svg>
