<svg width="20" height="21" viewBox="0 0 20 21" fill="none" xmlns="http://www.w3.org/2000/svg">
<g id="text_7392456" clip-path="url(#clip0_58_3145)">
<g id="Group">
<path id="Vector" d="M19.2188 15.7625C18.7873 15.7625 18.4375 16.1123 18.4375 16.5438V18.1063C18.4375 18.537 18.087 18.8875 17.6562 18.8875H16.0938C15.6623 18.8875 15.3125 19.2373 15.3125 19.6688C15.3125 20.1002 15.6623 20.45 16.0938 20.45H17.6562C18.9486 20.45 20 19.3986 20 18.1063V16.5438C20 16.1123 19.6502 15.7625 19.2188 15.7625Z" fill="#FCFCFC"/>
<path id="Vector_2" d="M3.90625 18.8875H2.34375C1.91297 18.8875 1.5625 18.537 1.5625 18.1063V16.5438C1.5625 16.1123 1.21273 15.7625 0.78125 15.7625C0.349766 15.7625 0 16.1123 0 16.5438V18.1063C0 19.3986 1.05141 20.45 2.34375 20.45H3.90625C4.33773 20.45 4.6875 20.1002 4.6875 19.6688C4.6875 19.2373 4.33773 18.8875 3.90625 18.8875Z" fill="#FCFCFC"/>
<path id="Vector_3" d="M0.78125 5.13751C1.21273 5.13751 1.5625 4.78775 1.5625 4.35626V2.79376C1.5625 2.36298 1.91297 2.01251 2.34375 2.01251H3.90625C4.33773 2.01251 4.6875 1.66275 4.6875 1.23126C4.6875 0.799778 4.33773 0.450012 3.90625 0.450012H2.34375C1.05141 0.450012 0 1.50142 0 2.79376V4.35626C0 4.78775 0.349766 5.13751 0.78125 5.13751Z" fill="#FCFCFC"/>
<path id="Vector_4" d="M17.6562 0.450012H16.0938C15.6623 0.450012 15.3125 0.799778 15.3125 1.23126C15.3125 1.66275 15.6623 2.01251 16.0938 2.01251H17.6562C18.087 2.01251 18.4375 2.36298 18.4375 2.79376V4.35626C18.4375 4.78775 18.7873 5.13751 19.2188 5.13751C19.6502 5.13751 20 4.78775 20 4.35626V2.79376C20 1.50142 18.9486 0.450012 17.6562 0.450012Z" fill="#FCFCFC"/>
<path id="Vector_5" d="M2.96875 4.20001V5.76251C2.96875 6.194 3.31852 6.54376 3.75 6.54376C4.18148 6.54376 4.53125 6.194 4.53125 5.76251V4.98126H6.09375V9.66876H5.3125C4.88102 9.66876 4.53125 10.0185 4.53125 10.45C4.53125 10.8815 4.88102 11.2313 5.3125 11.2313H8.4375C8.86898 11.2313 9.21875 10.8815 9.21875 10.45C9.21875 10.0185 8.86898 9.66876 8.4375 9.66876H7.65625V4.98126H9.21875V5.76251C9.21875 6.194 9.56852 6.54376 10 6.54376C10.4315 6.54376 10.7812 6.194 10.7812 5.76251V4.20001C10.7812 3.76853 10.4315 3.41876 10 3.41876H3.75C3.31852 3.41876 2.96875 3.76853 2.96875 4.20001Z" fill="#FCFCFC"/>
<path id="Vector_6" d="M16.25 12.7938H3.75C3.31852 12.7938 2.96875 13.1435 2.96875 13.575C2.96875 14.0065 3.31852 14.3563 3.75 14.3563H16.25C16.6815 14.3563 17.0312 14.0065 17.0312 13.575C17.0312 13.1435 16.6815 12.7938 16.25 12.7938Z" fill="#FCFCFC"/>
<path id="Vector_7" d="M16.25 15.9188H3.75C3.31852 15.9188 2.96875 16.2685 2.96875 16.7C2.96875 17.1315 3.31852 17.4813 3.75 17.4813H16.25C16.6815 17.4813 17.0312 17.1315 17.0312 16.7C17.0312 16.2685 16.6815 15.9188 16.25 15.9188Z" fill="#FCFCFC"/>
<path id="Vector_8" d="M13.125 11.2313H16.25C16.6815 11.2313 17.0312 10.8815 17.0312 10.45C17.0312 10.0185 16.6815 9.66876 16.25 9.66876H13.125C12.6935 9.66876 12.3438 10.0185 12.3438 10.45C12.3438 10.8815 12.6935 11.2313 13.125 11.2313Z" fill="#FCFCFC"/>
<path id="Vector_9" d="M13.125 8.10626H16.25C16.6815 8.10626 17.0312 7.7565 17.0312 7.32501C17.0312 6.89353 16.6815 6.54376 16.25 6.54376H13.125C12.6935 6.54376 12.3438 6.89353 12.3438 7.32501C12.3438 7.7565 12.6935 8.10626 13.125 8.10626Z" fill="#FCFCFC"/>
<path id="Vector_10" d="M13.125 4.98126H16.25C16.6815 4.98126 17.0312 4.6315 17.0312 4.20001C17.0312 3.76853 16.6815 3.41876 16.25 3.41876H13.125C12.6935 3.41876 12.3438 3.76853 12.3438 4.20001C12.3438 4.6315 12.6935 4.98126 13.125 4.98126Z" fill="#FCFCFC"/>
</g>
</g>
<defs>
<clipPath id="clip0_58_3145">
<rect width="20" height="20" fill="white" transform="translate(0 0.450012)"/>
</clipPath>
</defs>
</svg>
