<svg width="19" height="19" viewBox="0 0 19 19" fill="none" xmlns="http://www.w3.org/2000/svg">
<g id="tr.26510018 1" clip-path="url(#clip0_852_13263)">
<path id="Vector" d="M16.8594 0.546387H1.85938C1.03095 0.546387 0.359375 1.1911 0.359375 1.98639V16.3864C0.359375 17.1817 1.03095 17.8264 1.85938 17.8264H16.8594C17.6878 17.8264 18.3594 17.1817 18.3594 16.3864V1.98639C18.3594 1.1911 17.6878 0.546387 16.8594 0.546387Z" fill="#E31D1C"/>
<g id="Mask group">
<mask id="mask0_852_13263" style="mask-type:luminance" maskUnits="userSpaceOnUse" x="0" y="2" width="19" height="14">
<g id="Group">
<path id="Vector_2" d="M18.3594 2.70654H0.359375V15.6665H18.3594V2.70654Z" fill="white"/>
</g>
</mask>
<g mask="url(#mask0_852_13263)">
<g id="Group_2">
<path id="Vector_3" fill-rule="evenodd" clip-rule="evenodd" d="M0.359375 2.70654V15.6665H18.3594V2.70654H0.359375Z" fill="#E31D1C"/>
<g id="Mask group_2">
<mask id="mask1_852_13263" style="mask-type:luminance" maskUnits="userSpaceOnUse" x="0" y="2" width="19" height="14">
<g id="Group_3">
<path id="Vector_4" fill-rule="evenodd" clip-rule="evenodd" d="M0.359375 2.70654V15.6665H18.3594V2.70654H0.359375Z" fill="white"/>
</g>
</mask>
<g mask="url(#mask1_852_13263)">
<g id="Group_4">
<path id="Vector_5" fill-rule="evenodd" clip-rule="evenodd" d="M9.37445 11.4082C8.16995 11.1233 7.22657 10.1555 7.23755 8.73673C7.24781 7.40867 8.08535 6.28607 9.4094 5.9822C10.7336 5.67825 11.8992 6.3234 11.8992 6.3234C11.5333 5.49404 10.262 4.91136 9.21972 4.91309C7.27949 4.9162 5.21129 6.42673 5.19347 8.73673C5.17493 11.1317 7.40819 12.4956 9.37235 12.4923C10.947 12.4899 11.6938 11.4557 11.8485 11.0157C11.8485 11.0157 10.5789 11.693 9.37445 11.4082ZM12.1182 8.28327L10.9182 8.70642L12.2722 9.16499L12.2491 10.5352L13.1414 9.5072L14.6151 9.61002L13.4472 8.64623L14.214 7.61827L12.9655 8.02155L12.0732 7.06929L12.1182 8.28327Z" fill="#F7FCFF"/>
</g>
</g>
</g>
</g>
</g>
</g>
</g>
<defs>
<clipPath id="clip0_852_13263">
<rect width="18" height="18" fill="white" transform="translate(0.359375 0.5)"/>
</clipPath>
</defs>
</svg>
