<svg width="116" height="147" viewBox="0 0 116 147" fill="none" xmlns="http://www.w3.org/2000/svg">
<g id="Bold / Money / Wallet Money" clip-path="url(#clip0_270_29389)">
<g id="Vector">
<path fill-rule="evenodd" clip-rule="evenodd" d="M126.252 68.5888C125.974 68.4947 125.665 68.4122 125.345 68.3265L125.265 68.3051L112.712 64.9415C102.365 62.1691 91.3118 68.0054 88.4435 78.7099C85.5753 89.4145 92.2293 99.9954 102.576 102.768L115.129 106.131L115.209 106.153C115.529 106.239 115.838 106.322 116.126 106.38C120.401 107.238 125.006 104.919 126.559 100.373C126.661 100.075 126.748 99.7478 126.83 99.4445L126.852 99.3621L132.032 80.0287L132.054 79.9463C132.135 79.6431 132.223 79.3159 132.284 79.0068C133.212 74.2931 130.384 69.9824 126.252 68.5888ZM105.18 88.5999C107.843 89.3137 110.608 87.6343 111.354 84.8488C112.101 82.0634 110.546 79.2267 107.882 78.5129C105.219 77.7991 102.454 79.4786 101.708 82.264C100.961 85.0495 102.516 87.8862 105.18 88.5999Z" fill="#7526E4"/>
<path fill-rule="evenodd" clip-rule="evenodd" d="M113.179 113.717C113.93 113.898 114.308 114.746 113.912 115.415C111.944 118.739 109.529 121.375 106.28 123.268C101.524 126.039 96.326 126.441 90.246 125.664C84.3381 124.909 77.0539 122.957 67.8574 120.493L57.2844 117.66C48.0879 115.196 40.8036 113.244 35.3097 110.944C29.6557 108.577 25.3558 105.63 22.6222 100.852C19.8886 96.0739 19.509 90.8426 20.3046 84.7181C21.0777 78.7671 23.0449 71.4256 25.5285 62.1568L25.681 61.5878C28.1645 52.319 30.1316 44.9775 32.4376 39.4372C34.8108 33.7354 37.7552 29.3947 42.5115 26.6238C47.2678 23.8529 52.4653 23.4503 58.5454 24.2273C64.4532 24.9824 71.7375 26.9343 80.9339 29.3985L91.507 32.2316C100.704 34.6957 107.988 36.6474 113.482 38.9475C119.136 41.3145 123.436 44.262 126.169 49.0398C128.037 52.304 128.811 55.7938 128.852 59.6561C128.861 60.4345 128.109 60.9798 127.368 60.7603L114.738 57.3761C100.543 53.5726 85.0033 61.5221 80.9368 76.6985C76.8703 91.8749 86.3536 106.529 100.549 110.333L113.179 113.717ZM50.7897 42.9439C48.7169 42.3885 46.5827 43.6318 46.023 45.7209C45.4632 47.81 46.6898 49.9537 48.7626 50.5092L68.7793 55.8726C70.8522 56.428 72.9863 55.1847 73.546 53.0957C74.1058 51.0066 72.8793 48.8628 70.8065 48.3074L50.7897 42.9439Z" fill="#7526E4"/>
<path d="M68.7785 20.7126L80.9559 15.9451C87.4956 13.3847 94.8947 15.3673 99.2781 20.8545L107.483 31.1257C103.253 29.8141 98.4797 28.5352 93.2462 27.133L81.9771 24.1134C77.1949 22.8319 72.7968 21.6533 68.7785 20.7126Z" fill="#7526E4"/>
</g>
</g>
<defs>
<clipPath id="clip0_270_29389">
<rect width="129" height="129" fill="white" transform="translate(34 -11) rotate(15)"/>
</clipPath>
</defs>
</svg>
