<svg width="910" height="568" viewBox="0 0 910 568" fill="none" xmlns="http://www.w3.org/2000/svg">
<g style="mix-blend-mode:plus-lighter">
<path d="M1730.6 44.7683C1725.9 54.4128 1729.9 66.0461 1739.54 70.752C1749.19 75.4579 1760.82 71.4543 1765.53 61.8098C1770.23 52.1653 1766.23 40.532 1756.59 35.8261C1746.94 31.1202 1735.31 35.1238 1730.6 44.7683ZM1511.08 538.99L1507.8 537.392L1507.14 538.757L1507.64 540.191L1511.08 538.99ZM1538.13 616.472L1541.41 618.069L1542.07 616.704L1541.57 615.271L1538.13 616.472ZM1520.97 651.643L1517.7 650.045L1517.05 651.38L1517.51 652.789L1520.97 651.643ZM1579.19 827.272L1582.46 828.87L1583.11 827.535L1582.65 826.126L1579.19 827.272ZM1477.85 1034.95L1474.58 1033.35L1473.93 1034.69L1474.4 1036.1L1477.85 1034.95ZM1499.99 1101.74L1503.27 1103.34L1503.92 1102L1503.45 1100.59L1499.99 1101.74ZM1449.33 1205.58L1450.84 1208.89L1452.03 1208.35L1452.6 1207.18L1449.33 1205.58ZM1378.97 1237.61L1377.46 1234.29L1376.27 1234.83L1375.7 1236.01L1378.97 1237.61ZM1168.13 1669.71L1164.86 1668.11L1164.22 1669.43L1164.66 1670.82L1168.13 1669.71ZM1218.73 1874.8C1214.03 1884.45 1218.03 1896.08 1227.67 1900.78C1237.32 1905.49 1248.95 1901.49 1253.66 1891.84C1258.36 1882.2 1254.36 1870.56 1244.72 1865.86C1235.07 1861.15 1223.44 1865.16 1218.73 1874.8ZM1744.79 51.6914L1507.8 537.392L1514.35 540.587L1751.34 54.8867L1744.79 51.6914ZM1507.64 540.191L1534.69 617.673L1541.57 615.271L1514.52 537.789L1507.64 540.191ZM1534.86 614.874L1517.7 650.045L1524.24 653.241L1541.41 618.069L1534.86 614.874ZM1517.51 652.789L1575.73 828.418L1582.65 826.126L1524.43 650.497L1517.51 652.789ZM1575.91 825.675L1474.58 1033.35L1481.13 1036.55L1582.46 828.87L1575.91 825.675ZM1474.4 1036.1L1496.53 1102.89L1503.45 1100.59L1481.31 1033.8L1474.4 1036.1ZM1496.72 1100.14L1446.05 1203.98L1452.6 1207.18L1503.27 1103.34L1496.72 1100.14ZM1447.82 1202.26L1377.46 1234.29L1380.48 1240.92L1450.84 1208.89L1447.82 1202.26ZM1375.7 1236.01L1164.86 1668.11L1171.41 1671.31L1382.25 1239.2L1375.7 1236.01ZM1164.66 1670.82L1232.72 1884.43L1239.67 1882.22L1171.6 1668.61L1164.66 1670.82Z" fill="url(#paint0_linear_248_13553)" fill-opacity="0.6"/>
<path d="M1679.05 9.22926C1674.35 18.8738 1678.35 30.5071 1688 35.2129C1697.64 39.9188 1709.27 35.9153 1713.98 26.2707C1718.69 16.6262 1714.68 4.99293 1705.04 0.287053C1695.39 -4.41882 1683.76 -0.415254 1679.05 9.22926ZM1440.73 541.972L1437.46 540.374L1436.8 541.717L1437.28 543.133L1440.73 541.972ZM1536.66 827.24L1539.94 828.838L1540.59 827.495L1540.12 826.079L1536.66 827.24ZM1120.71 1679.73L1117.43 1678.13L1116.8 1679.43L1117.23 1680.81L1120.71 1679.73ZM1189.35 1947.54C1184.64 1957.18 1188.65 1968.81 1198.29 1973.52C1207.94 1978.22 1219.57 1974.22 1224.28 1964.58C1228.98 1954.93 1224.98 1943.3 1215.33 1938.59C1205.69 1933.89 1194.06 1937.89 1189.35 1947.54ZM1693.24 16.1524L1437.46 540.374L1444.01 543.569L1699.79 19.3476L1693.24 16.1524ZM1437.28 543.133L1533.21 828.401L1540.12 826.079L1444.19 540.81L1437.28 543.133ZM1533.39 825.643L1117.43 1678.13L1123.98 1681.33L1539.94 828.838L1533.39 825.643ZM1117.23 1680.81L1203.33 1957.14L1210.29 1954.97L1124.19 1678.64L1117.23 1680.81Z" fill="url(#paint1_linear_248_13553)" fill-opacity="0.6"/>
<path d="M1589.07 89.7527C1584.36 99.3972 1588.36 111.031 1598.01 115.736C1607.65 120.442 1619.29 116.439 1623.99 106.794C1628.7 97.1497 1624.69 85.5164 1615.05 80.8105C1605.4 76.1046 1593.77 80.1082 1589.07 89.7527ZM1403.86 513.631L1400.59 512.034L1399.94 513.368L1400.4 514.778L1403.86 513.631ZM1507.18 825.311L1510.45 826.909L1511.1 825.574L1510.63 824.165L1507.18 825.311ZM1090.4 1679.47L1087.13 1677.88L1086.5 1679.16L1086.91 1680.53L1090.4 1679.47ZM1171.35 1996.83C1166.65 2006.48 1170.65 2018.11 1180.29 2022.81C1189.94 2027.52 1201.57 2023.52 1206.28 2013.87C1210.98 2004.23 1206.98 1992.59 1197.33 1987.89C1187.69 1983.18 1176.06 1987.19 1171.35 1996.83ZM1603.25 96.6758L1400.59 512.034L1407.14 515.229L1609.8 99.8711L1603.25 96.6758ZM1400.4 514.778L1503.72 826.457L1510.63 824.165L1407.32 512.485L1400.4 514.778ZM1503.9 823.713L1087.13 1677.88L1093.68 1681.07L1510.45 826.909L1503.9 823.713ZM1086.91 1680.53L1185.33 2006.4L1192.3 2004.3L1093.89 1678.42L1086.91 1680.53Z" fill="url(#paint2_linear_248_13553)" fill-opacity="0.6"/>
<path d="M1306.18 436.932C1301.48 446.577 1305.48 458.21 1315.12 462.916C1324.77 467.622 1336.4 463.618 1341.11 453.974C1345.81 444.329 1341.81 432.696 1332.17 427.99C1322.52 423.284 1310.89 427.288 1306.18 436.932ZM1445 819.85L1448.28 821.448L1448.92 820.126L1448.47 818.727L1445 819.85ZM1014.34 1702.49L1011.06 1700.89L1010.4 1702.24L1010.89 1703.67L1014.34 1702.49ZM1105.1 2008.04C1100.39 2017.69 1104.4 2029.32 1114.04 2034.02C1123.69 2038.73 1135.32 2034.73 1140.02 2025.08C1144.73 2015.44 1140.73 2003.8 1131.08 1999.1C1121.44 1994.39 1109.8 1998.4 1105.1 2008.04ZM1320.18 446.577L1441.54 820.974L1448.47 818.727L1327.11 444.33L1320.18 446.577ZM1441.73 818.253L1011.06 1700.89L1017.61 1704.08L1448.28 821.448L1441.73 818.253ZM1010.89 1703.67L1119.12 2017.75L1126.01 2015.37L1017.78 1701.3L1010.89 1703.67Z" fill="url(#paint3_linear_248_13553)" fill-opacity="0.6"/>
<path d="M1137.42 143.081C1132.71 152.725 1136.72 164.359 1146.36 169.065C1156.01 173.77 1167.64 169.767 1172.35 160.122C1177.05 150.478 1173.05 138.844 1163.4 134.139C1153.76 129.433 1142.13 133.436 1137.42 143.081ZM1372.18 827.861L1375.46 829.459L1376.1 828.142L1375.65 826.746L1372.18 827.861ZM942.333 1708.82L939.059 1707.22L938.395 1708.59L938.892 1710.02L942.333 1708.82ZM1074.91 2132.24C1070.2 2141.88 1074.2 2153.51 1083.85 2158.22C1093.49 2162.93 1105.13 2158.92 1109.83 2149.28C1114.54 2139.63 1110.54 2128 1100.89 2123.29C1091.25 2118.59 1079.61 2122.59 1074.91 2132.24ZM1151.41 152.716L1368.71 828.975L1375.65 826.746L1158.35 150.487L1151.41 152.716ZM1368.91 826.263L939.059 1707.22L945.608 1710.42L1375.46 829.459L1368.91 826.263ZM938.892 1710.02L1088.93 2141.95L1095.81 2139.56L945.775 1707.63L938.892 1710.02Z" fill="url(#paint4_linear_248_13553)" fill-opacity="0.6"/>
<path d="M1337.58 -350.228C1332.87 -340.583 1336.88 -328.95 1346.52 -324.244C1356.17 -319.538 1367.8 -323.542 1372.5 -333.186C1377.21 -342.831 1373.21 -354.464 1363.56 -359.17C1353.92 -363.876 1342.28 -359.872 1337.58 -350.228ZM1114.78 150.693L1111.51 149.095L1110.86 150.426L1111.32 151.833L1114.78 150.693ZM1336.99 825.2L1340.27 826.798L1340.92 825.467L1340.45 824.06L1336.99 825.2ZM907.143 1706.16L903.869 1704.56L903.21 1705.91L903.695 1707.34L907.143 1706.16ZM1044.64 2152.71C1039.94 2162.36 1043.94 2173.99 1053.58 2178.7C1063.23 2183.4 1074.86 2179.4 1079.57 2169.76C1084.27 2160.11 1080.27 2148.48 1070.63 2143.77C1060.98 2139.07 1049.35 2143.07 1044.64 2152.71ZM1351.77 -343.305L1111.51 149.095L1118.06 152.291L1358.32 -340.109L1351.77 -343.305ZM1111.32 151.833L1333.53 826.34L1340.45 824.06L1118.24 149.553L1111.32 151.833ZM1333.72 823.603L903.869 1704.56L910.418 1707.76L1340.27 826.798L1333.72 823.603ZM903.695 1707.34L1058.66 2162.41L1065.55 2160.06L910.592 1704.99L903.695 1707.34Z" fill="url(#paint5_linear_248_13553)" fill-opacity="0.6"/>
<path d="M1308.07 -430.986C1303.36 -421.341 1307.37 -409.708 1317.01 -405.002C1326.66 -400.296 1338.29 -404.3 1343 -413.944C1347.7 -423.589 1343.7 -435.222 1334.05 -439.928C1324.41 -444.634 1312.78 -440.63 1308.07 -430.986ZM1042.78 157.026L1039.51 155.429L1038.85 156.774L1039.33 158.193L1042.78 157.026ZM1272.57 836.767L1275.83 838.388L1276.51 837.034L1276.02 835.6L1272.57 836.767ZM690.726 1964.15C686.02 1973.8 690.023 1985.43 699.668 1990.14C709.312 1994.84 720.946 1990.84 725.652 1981.2C730.357 1971.55 726.354 1959.92 716.709 1955.21C707.065 1950.51 695.432 1954.51 690.726 1964.15ZM1322.26 -424.062L1039.51 155.429L1046.05 158.624L1328.81 -420.867L1322.26 -424.062ZM1039.33 158.193L1269.12 837.934L1276.02 835.6L1046.23 155.86L1039.33 158.193ZM1269.31 835.146L704.926 1971.05L711.451 1974.3L1275.83 838.388L1269.31 835.146Z" fill="url(#paint6_linear_248_13553)" fill-opacity="0.6"/>
<path d="M1200.98 -298.771C1196.27 -289.126 1200.28 -277.493 1209.92 -272.787C1219.57 -268.081 1231.2 -272.085 1235.91 -281.729C1240.61 -291.374 1236.61 -303.007 1226.96 -307.713C1217.32 -312.419 1205.69 -308.415 1200.98 -298.771ZM1005.96 145.232L1002.68 143.635L1002.03 144.964L1002.5 146.369L1005.96 145.232ZM1231.78 833.093L1235.05 834.717L1235.71 833.378L1235.25 831.957L1231.78 833.093ZM601.079 2056.47C596.373 2066.11 600.377 2077.75 610.021 2082.45C619.666 2087.16 631.299 2083.15 636.005 2073.51C640.711 2063.86 636.707 2052.23 627.063 2047.52C617.418 2042.82 605.785 2046.82 601.079 2056.47ZM1215.17 -291.848L1002.68 143.635L1009.23 146.83L1221.72 -288.652L1215.17 -291.848ZM1002.5 146.369L1228.32 834.229L1235.25 831.957L1009.42 144.096L1002.5 146.369ZM1228.52 831.469L615.281 2063.36L621.804 2066.61L1235.05 834.717L1228.52 831.469Z" fill="url(#paint7_linear_248_13553)" fill-opacity="0.6"/>
<path d="M1241.72 -502.743C1237.02 -493.099 1241.02 -481.466 1250.66 -476.76C1260.31 -472.054 1271.94 -476.057 1276.65 -485.702C1281.35 -495.346 1277.35 -506.98 1267.71 -511.686C1258.06 -516.391 1246.43 -512.388 1241.72 -502.743ZM958.455 122.115L955.18 120.517L954.529 121.852L954.996 123.261L958.455 122.115ZM1193.78 832.052L1197.05 833.65L1197.7 832.315L1197.24 830.906L1193.78 832.052ZM565.048 2076.3C560.342 2085.95 564.346 2097.58 573.99 2102.29C583.635 2106.99 595.268 2102.99 599.974 2093.35C604.68 2083.7 600.677 2072.07 591.032 2067.36C581.387 2062.66 569.754 2066.66 565.048 2076.3ZM1255.91 -495.82L955.18 120.517L961.729 123.712L1262.46 -492.625L1255.91 -495.82ZM954.996 123.261L1190.32 833.198L1197.24 830.906L961.913 120.969L954.996 123.261ZM1190.51 830.454L579.237 2083.23L585.786 2086.42L1197.05 833.65L1190.51 830.454Z" fill="url(#paint8_linear_248_13553)" fill-opacity="0.6"/>
<path d="M1134.62 -366.31C1129.91 -356.665 1133.92 -345.032 1143.56 -340.326C1153.21 -335.62 1164.84 -339.624 1169.54 -349.268C1174.25 -358.913 1170.25 -370.546 1160.6 -375.252C1150.96 -379.958 1139.32 -375.954 1134.62 -366.31ZM918.362 121.212L915.087 119.615L914.435 120.953L914.906 122.365L918.362 121.212ZM1156.14 834.422L1159.42 836.02L1160.07 834.682L1159.6 833.27L1156.14 834.422ZM533.95 2065.28C529.244 2074.92 533.248 2086.55 542.892 2091.26C552.537 2095.97 564.17 2091.96 568.876 2082.32C573.582 2072.67 569.578 2061.04 559.934 2056.33C550.289 2051.63 538.656 2055.63 533.95 2065.28ZM1148.81 -359.387L915.087 119.615L921.636 122.81L1155.36 -356.191L1148.81 -359.387ZM914.906 122.365L1152.69 835.574L1159.6 833.27L921.818 120.06L914.906 122.365ZM1152.87 832.824L548.139 2072.2L554.687 2075.39L1159.42 836.02L1152.87 832.824Z" fill="url(#paint9_linear_248_13553)" fill-opacity="0.6"/>
<path d="M1146.78 -503.439C1142.07 -493.794 1146.08 -482.161 1155.72 -477.455C1165.37 -472.749 1177 -476.753 1181.71 -486.397C1186.41 -496.042 1182.41 -507.675 1172.76 -512.381C1163.12 -517.087 1151.49 -513.083 1146.78 -503.439ZM841.447 166.64L838.172 165.042L836.575 168.317L839.849 169.914L841.447 166.64ZM900.384 195.397L903.847 194.265L903.368 192.799L901.982 192.123L900.384 195.397ZM1098 799.844L1101.27 801.441L1101.92 800.115L1101.46 798.712L1098 799.844ZM859.374 1288.89L860.616 1292.32L862.002 1291.82L862.648 1290.49L859.374 1288.89ZM625.393 1373.79L624.15 1370.37L622.765 1370.87L622.118 1372.19L625.393 1373.79ZM318.64 1958.16C313.934 1967.8 317.937 1979.44 327.582 1984.14C337.226 1988.85 348.86 1984.85 353.566 1975.2C358.271 1965.56 354.268 1953.92 344.623 1949.22C334.979 1944.51 323.346 1948.51 318.64 1958.16ZM1160.97 -496.516L838.172 165.042L844.721 168.238L1167.52 -493.32L1160.97 -496.516ZM839.849 169.914L898.787 198.672L901.982 192.123L843.044 163.366L839.849 169.914ZM896.921 196.53L1094.53 800.976L1101.46 798.712L903.847 194.265L896.921 196.53ZM1094.72 798.246L856.099 1287.3L862.648 1290.49L1101.27 801.441L1094.72 798.246ZM858.131 1285.47L624.15 1370.37L626.635 1377.21L860.616 1292.32L858.131 1285.47ZM622.118 1372.19L332.828 1965.08L339.377 1968.28L628.667 1375.39L622.118 1372.19Z" fill="url(#paint10_linear_248_13553)" fill-opacity="0.6"/>
<path d="M970.249 -212.204C965.543 -202.56 969.547 -190.927 979.191 -186.221C988.836 -181.515 1000.47 -185.518 1005.17 -195.163C1009.88 -204.807 1005.88 -216.441 996.233 -221.147C986.588 -225.852 974.955 -221.849 970.249 -212.204ZM796.486 188.227L793.212 186.629L791.614 189.903L794.889 191.501L796.486 188.227ZM861.972 220.179L865.438 219.055L864.96 217.583L863.57 216.905L861.972 220.179ZM1053.03 808.985L1056.3 810.583L1056.95 809.26L1056.49 807.861L1053.03 808.985ZM830.749 1264.54L831.936 1267.98L833.362 1267.49L834.023 1266.14L830.749 1264.54ZM606.583 1341.78L605.396 1338.34L603.97 1338.83L603.308 1340.18L606.583 1341.78ZM286.754 1952.95C282.049 1962.59 286.052 1974.23 295.697 1978.93C305.341 1983.64 316.974 1979.63 321.68 1969.99C326.386 1960.35 322.383 1948.71 312.738 1944.01C303.094 1939.3 291.46 1943.3 286.754 1952.95ZM984.438 -205.281L793.212 186.629L799.761 189.824L990.986 -202.086L984.438 -205.281ZM794.889 191.501L860.375 223.454L863.57 216.905L798.084 184.952L794.889 191.501ZM858.507 221.304L1049.56 810.109L1056.49 807.861L865.438 219.055L858.507 221.304ZM1049.75 807.387L827.475 1262.94L834.023 1266.14L1056.3 810.583L1049.75 807.387ZM829.562 1261.09L605.396 1338.34L607.77 1345.23L831.936 1267.98L829.562 1261.09ZM603.308 1340.18L300.943 1959.87L307.492 1963.07L609.857 1343.38L603.308 1340.18Z" fill="url(#paint11_linear_248_13553)" fill-opacity="0.6"/>
<path d="M817.554 304.268C812.848 313.913 816.851 325.546 826.496 330.252C836.14 334.958 847.774 330.954 852.48 321.31C857.185 311.665 853.182 300.032 843.537 295.326C833.893 290.62 822.26 294.624 817.554 304.268ZM970.308 720.941L973.582 722.539L974.233 721.204L973.766 719.795L970.308 720.941ZM917.705 784.438C912.999 794.083 917.003 805.716 926.647 810.422C936.292 815.128 947.925 811.124 952.631 801.48C957.337 791.835 953.333 780.202 943.689 775.496C934.044 770.79 922.411 774.794 917.705 784.438ZM831.558 313.935L966.85 722.087L973.766 719.795L838.475 311.643L831.558 313.935ZM967.034 719.343L931.894 791.361L938.443 794.556L973.582 722.539L967.034 719.343Z" fill="url(#paint12_linear_248_13553)" fill-opacity="0.6"/>
<path d="M857.396 -101.384C852.691 -91.7395 856.694 -80.1062 866.339 -75.4003C875.983 -70.6945 887.616 -74.698 892.322 -84.3425C897.028 -93.9871 893.025 -105.62 883.38 -110.326C873.736 -115.032 862.102 -111.029 857.396 -101.384ZM710.601 243.778L707.327 242.18L706.682 243.502L707.136 244.901L710.601 243.778ZM814.496 609.654C809.79 619.298 813.794 630.932 823.438 635.637C833.083 640.343 844.716 636.34 849.422 626.695C854.128 617.051 850.124 605.417 840.48 600.712C830.835 596.006 819.202 600.009 814.496 609.654ZM871.585 -94.4609L707.327 242.18L713.876 245.375L878.134 -91.2656L871.585 -94.4609ZM707.136 244.901L828.493 619.298L835.425 617.051L714.067 242.654L707.136 244.901Z" fill="url(#paint13_linear_248_13553)" fill-opacity="0.6"/>
<path d="M937.422 -327.739C932.716 -318.095 936.72 -306.462 946.364 -301.756C956.009 -297.05 967.642 -301.053 972.348 -310.698C977.054 -320.343 973.05 -331.976 963.406 -336.682C953.761 -341.388 942.128 -337.384 937.422 -327.739ZM674.584 255.248L671.31 253.65L670.652 254.999L671.134 256.419L674.584 255.248ZM731.977 424.255L735.252 425.853L735.91 424.504L735.427 423.083L731.977 424.255ZM673.956 543.168L670.682 541.57L670.006 542.955L670.529 544.405L673.956 543.168ZM740.114 766.217C735.408 775.861 739.412 787.495 749.056 792.201C758.701 796.906 770.334 792.903 775.04 783.258C779.746 773.614 775.742 761.981 766.098 757.275C756.453 752.569 744.82 756.572 740.114 766.217ZM951.61 -320.816L671.31 253.65L677.858 256.846L958.159 -317.621L951.61 -320.816ZM671.134 256.419L728.528 425.426L735.427 423.083L678.034 254.076L671.134 256.419ZM728.703 422.657L670.682 541.57L677.23 544.765L735.252 425.853L728.703 422.657ZM670.529 544.405L754.15 775.975L761.004 773.5L677.383 541.93L670.529 544.405Z" fill="url(#paint14_linear_248_13553)" fill-opacity="0.6"/>
<path d="M766.566 -81.4192C761.86 -71.7747 765.864 -60.1414 775.509 -55.4355C785.153 -50.7296 796.786 -54.7332 801.492 -64.3777C806.198 -74.0222 802.195 -85.6555 792.55 -90.3614C782.906 -95.0673 771.272 -91.0637 766.566 -81.4192ZM544.589 417.827L541.314 416.229L540.667 417.555L541.125 418.958L544.589 417.827ZM731.542 990.116L734.816 991.713L735.464 990.387L735.005 988.984L731.542 990.116ZM236.015 1961.37C231.309 1971.02 235.313 1982.65 244.957 1987.35C254.602 1992.06 266.235 1988.06 270.941 1978.41C275.647 1968.77 271.643 1957.13 261.999 1952.43C252.354 1947.72 240.721 1951.73 236.015 1961.37ZM780.755 -74.4961L541.314 416.229L547.863 419.424L787.304 -71.3008L780.755 -74.4961ZM541.125 418.958L728.079 991.247L735.005 988.984L548.052 416.695L541.125 418.958ZM728.268 988.518L250.204 1968.29L256.752 1971.49L734.816 991.713L728.268 988.518Z" fill="url(#paint15_linear_248_13553)" fill-opacity="0.6"/>
<path d="M787.777 -191.337C783.071 -181.693 787.075 -170.059 796.719 -165.353C806.364 -160.648 817.997 -164.651 822.703 -174.296C827.409 -183.94 823.405 -195.573 813.761 -200.279C804.116 -204.985 792.483 -200.982 787.777 -191.337ZM510.23 421.797L506.955 420.2L506.31 421.522L506.764 422.921L510.23 421.797ZM695.546 993.287L698.82 994.885L699.465 993.563L699.012 992.163L695.546 993.287ZM222.901 1917.65C218.195 1927.29 222.198 1938.92 231.843 1943.63C241.487 1948.34 253.121 1944.33 257.827 1934.69C262.533 1925.04 258.529 1913.41 248.884 1908.7C239.24 1904 227.607 1908 222.901 1917.65ZM801.966 -184.414L506.955 420.2L513.504 423.395L808.515 -181.219L801.966 -184.414ZM506.764 422.921L692.08 994.411L699.012 992.163L513.695 420.673L506.764 422.921ZM692.272 991.69L237.089 1924.57L243.638 1927.77L698.82 994.885L692.272 991.69Z" fill="url(#paint16_linear_248_13553)" fill-opacity="0.6"/>
<path d="M600.457 -81.5989C595.751 -71.9543 599.755 -60.3211 609.399 -55.6152C619.044 -50.9093 630.677 -54.9129 635.383 -64.5574C640.089 -74.2019 636.085 -85.8352 626.441 -90.5411C616.796 -95.2469 605.163 -91.2434 600.457 -81.5989ZM658.1 52.2791L661.374 53.8768L662.016 52.5611L661.57 51.1671L658.1 52.2791ZM474.229 429.116L470.955 427.518L470.306 428.849L470.769 430.255L474.229 429.116ZM658.72 989.835L661.995 991.433L662.644 990.103L662.181 988.697L658.72 989.835ZM177.086 1932.62C172.38 1942.26 176.383 1953.9 186.028 1958.6C195.672 1963.31 207.306 1959.3 212.011 1949.66C216.717 1940.02 212.714 1928.38 203.069 1923.68C193.425 1918.97 181.791 1922.97 177.086 1932.62ZM614.451 -71.9661L654.631 53.3912L661.57 51.1671L621.389 -74.1902L614.451 -71.9661ZM654.826 50.6815L470.955 427.518L477.504 430.714L661.374 53.8768L654.826 50.6815ZM470.769 430.255L655.259 990.974L662.181 988.697L477.69 427.977L470.769 430.255ZM655.446 988.238L191.274 1939.54L197.823 1942.74L661.995 991.433L655.446 988.238Z" fill="url(#paint17_linear_248_13553)" fill-opacity="0.6"/>
<path d="M319.313 461.354C314.608 470.999 318.611 482.632 328.256 487.338C337.9 492.044 349.533 488.04 354.239 478.396C358.945 468.751 354.942 457.118 345.297 452.412C335.653 447.706 324.019 451.71 319.313 461.354ZM511.422 992.614L514.697 994.211L515.35 992.872L514.878 991.459L511.422 992.614ZM37.1426 1920.32C32.4368 1929.97 36.4404 1941.6 46.0849 1946.31C55.7294 1951.01 67.3627 1947.01 72.0686 1937.36C76.7744 1927.72 72.7708 1916.09 63.1263 1911.38C53.4818 1906.67 41.8485 1910.68 37.1426 1920.32ZM333.321 471.029L507.967 993.768L514.878 991.459L340.232 468.721L333.321 471.029ZM508.148 991.016L51.3313 1927.25L57.8799 1930.44L514.697 994.211L508.148 991.016Z" fill="url(#paint18_linear_248_13553)" fill-opacity="0.6"/>
<path d="M296.407 504.104C291.701 513.749 295.705 525.382 305.349 530.088C314.994 534.794 326.627 530.79 331.333 521.146C336.039 511.501 332.035 499.868 322.391 495.162C312.746 490.456 301.113 494.46 296.407 504.104ZM471.3 987.566L474.574 989.163L475.225 987.829L474.758 986.419L471.3 987.566ZM1.92347 1905.23C-2.78239 1914.87 1.22119 1926.5 10.8657 1931.21C20.5102 1935.92 32.1435 1931.91 36.8494 1922.27C41.5552 1912.62 37.5517 1900.99 27.9071 1896.28C18.2626 1891.58 6.62933 1895.58 1.92347 1905.23ZM310.412 513.771L467.842 988.712L474.758 986.419L317.328 511.479L310.412 513.771ZM468.026 985.968L16.1121 1912.15L22.6607 1915.34L474.574 989.163L468.026 985.968Z" fill="url(#paint19_linear_248_13553)" fill-opacity="0.6"/>
<path d="M273.53 550.995C268.824 560.639 272.828 572.273 282.472 576.979C292.117 581.684 303.75 577.681 308.456 568.036C313.162 558.392 309.158 546.759 299.514 542.053C289.869 537.347 278.236 541.35 273.53 550.995ZM434.484 992.404L437.758 994.002L438.409 992.667L437.942 991.258L434.484 992.404ZM-7.92488 1854.8C-12.6307 1864.44 -8.62715 1876.07 1.01737 1880.78C10.6619 1885.48 22.2952 1881.48 27.001 1871.84C31.7069 1862.19 27.7033 1850.56 18.0588 1845.85C8.41427 1841.15 -3.21902 1845.15 -7.92488 1854.8ZM287.535 560.662L431.026 993.551L437.942 991.258L294.451 558.369L287.535 560.662ZM431.21 990.807L6.26378 1861.72L12.8124 1864.91L437.758 994.002L431.21 990.807Z" fill="url(#paint20_linear_248_13553)" fill-opacity="0.6"/>
<path d="M562.014 -60.9582C557.308 -51.3137 561.311 -39.6804 570.956 -34.9746C580.6 -30.2687 592.234 -34.2722 596.94 -43.9168C601.645 -53.5613 597.642 -65.1946 587.997 -69.9004C578.353 -74.6063 566.719 -70.6028 562.014 -60.9582ZM618.011 59.6755L621.286 61.2732L621.947 59.9176L621.457 58.4913L618.011 59.6755ZM431.689 441.537L428.415 439.939L427.753 441.295L428.244 442.722L431.689 441.537ZM621.083 992.207L624.357 993.805L625.019 992.449L624.528 991.022L621.083 992.207ZM174.588 1862.97C169.882 1872.62 173.886 1884.25 183.53 1888.96C193.175 1893.66 204.808 1889.66 209.514 1880.01C214.22 1870.37 210.216 1858.74 200.572 1854.03C190.927 1849.32 179.294 1853.33 174.588 1862.97ZM576.031 -51.2533L614.566 60.8598L621.457 58.4913L582.922 -53.6217L576.031 -51.2533ZM614.737 58.0779L428.415 439.939L434.963 443.134L621.286 61.2732L614.737 58.0779ZM428.244 442.722L617.638 993.392L624.528 991.022L435.134 440.352L428.244 442.722ZM617.809 990.61L188.777 1869.9L195.325 1873.09L624.357 993.805L617.809 990.61Z" fill="url(#paint21_linear_248_13553)" fill-opacity="0.6"/>
<path d="M516.23 36.9793C511.525 46.6238 515.528 58.2571 525.173 62.9629C534.817 67.6688 546.45 63.6653 551.156 54.0207C555.862 44.3762 551.859 32.7429 542.214 28.0371C532.57 23.3312 520.936 27.3347 516.23 36.9793ZM549.267 84.2024L552.541 85.8L553.251 84.3446L552.647 82.8423L549.267 84.2024ZM371.116 449.315L367.842 447.718L367.195 449.043L367.653 450.446L371.116 449.315ZM548.231 991.92L551.505 993.518L552.152 992.192L551.694 990.79L548.231 991.92ZM82.1229 1902.88C77.417 1912.53 81.4206 1924.16 91.0651 1928.87C100.71 1933.57 112.343 1929.57 117.049 1919.92C121.755 1910.28 117.751 1898.65 108.107 1893.94C98.462 1889.23 86.8287 1893.24 82.1229 1902.88ZM530.313 46.86L545.887 85.5624L552.647 82.8423L537.073 44.14L530.313 46.86ZM545.993 82.6047L367.842 447.718L374.391 450.913L552.541 85.8L545.993 82.6047ZM367.653 450.446L544.767 993.051L551.694 990.79L374.58 448.185L367.653 450.446ZM544.956 990.323L96.3115 1909.8L102.86 1913L551.505 993.518L544.956 990.323Z" fill="url(#paint22_linear_248_13553)" fill-opacity="0.6"/>
<g filter="url(#filter0_f_248_13553)">
<circle cx="838.545" cy="317.293" r="38.6788" transform="rotate(26.0092 838.545 317.293)" fill="#DD02C1"/>
<ellipse cx="998.794" cy="-13.8054" rx="29.2449" ry="174.526" transform="rotate(26.0092 998.794 -13.8054)" fill="#DD02C1"/>
</g>
<g filter="url(#filter1_f_248_13553)">
<ellipse cx="544.316" cy="624.987" rx="19.8111" ry="161.319" transform="rotate(-17.3281 544.316 624.987)" fill="#D503B6"/>
</g>
<rect x="1113.2" y="-1347.62" width="1577.34" height="3384.86" transform="rotate(26.0092 1113.2 -1347.62)" fill="url(#paint23_linear_248_13553)"/>
</g>
<defs>
<filter id="filter0_f_248_13553" x="-129.824" y="-1013.33" width="2475.75" height="3143.67" filterUnits="userSpaceOnUse" color-interpolation-filters="sRGB">
<feFlood flood-opacity="0" result="BackgroundImageFix"/>
<feBlend mode="normal" in="SourceGraphic" in2="BackgroundImageFix" result="shape"/>
<feGaussianBlur stdDeviation="107.477" result="effect1_foregroundBlur_248_13553"/>
</filter>
<filter id="filter1_f_248_13553" x="350.579" y="328.787" width="387.475" height="592.403" filterUnits="userSpaceOnUse" color-interpolation-filters="sRGB">
<feFlood flood-opacity="0" result="BackgroundImageFix"/>
<feBlend mode="normal" in="SourceGraphic" in2="BackgroundImageFix" result="shape"/>
<feGaussianBlur stdDeviation="71.044" result="effect1_foregroundBlur_248_13553"/>
</filter>
<linearGradient id="paint0_linear_248_13553" x1="1901.96" y1="128.378" x2="1082.3" y2="1808.23" gradientUnits="userSpaceOnUse">
<stop stop-color="#E102C0"/>
<stop offset="1" stop-color="#6601E9" stop-opacity="0.51"/>
</linearGradient>
<linearGradient id="paint1_linear_248_13553" x1="1880.7" y1="107.617" x2="1022.63" y2="1866.19" gradientUnits="userSpaceOnUse">
<stop stop-color="#E102C0"/>
<stop offset="1" stop-color="#6601E9" stop-opacity="0.51"/>
</linearGradient>
<linearGradient id="paint2_linear_248_13553" x1="1813.63" y1="199.324" x2="981.715" y2="1904.3" gradientUnits="userSpaceOnUse">
<stop stop-color="#E102C0"/>
<stop offset="1" stop-color="#6601E9" stop-opacity="0.51"/>
</linearGradient>
<linearGradient id="paint3_linear_248_13553" x1="1552.03" y1="556.888" x2="894.179" y2="1905.13" gradientUnits="userSpaceOnUse">
<stop stop-color="#E102C0"/>
<stop offset="1" stop-color="#6601E9" stop-opacity="0.51"/>
</linearGradient>
<linearGradient id="paint4_linear_248_13553" x1="1521.6" y1="330.537" x2="725.648" y2="1961.82" gradientUnits="userSpaceOnUse">
<stop stop-color="#E102C0"/>
<stop offset="1" stop-color="#6601E9" stop-opacity="0.51"/>
</linearGradient>
<linearGradient id="paint5_linear_248_13553" x1="1729.95" y1="-158.778" x2="687.198" y2="1978.31" gradientUnits="userSpaceOnUse">
<stop stop-color="#E102C0"/>
<stop offset="1" stop-color="#6601E9" stop-opacity="0.51"/>
</linearGradient>
<linearGradient id="paint6_linear_248_13553" x1="1548.18" y1="-313.825" x2="464.573" y2="1907" gradientUnits="userSpaceOnUse">
<stop stop-color="#E102C0"/>
<stop offset="1" stop-color="#6601E9" stop-opacity="0.51"/>
</linearGradient>
<linearGradient id="paint7_linear_248_13553" x1="1440.28" y1="-182.01" x2="396.708" y2="1956.75" gradientUnits="userSpaceOnUse">
<stop stop-color="#E102C0"/>
<stop offset="1" stop-color="#6601E9" stop-opacity="0.51"/>
</linearGradient>
<linearGradient id="paint8_linear_248_13553" x1="1494.12" y1="-379.592" x2="347.58" y2="1970.19" gradientUnits="userSpaceOnUse">
<stop stop-color="#E102C0"/>
<stop offset="1" stop-color="#6601E9" stop-opacity="0.51"/>
</linearGradient>
<linearGradient id="paint9_linear_248_13553" x1="1388.65" y1="-242.36" x2="314.845" y2="1958.37" gradientUnits="userSpaceOnUse">
<stop stop-color="#E102C0"/>
<stop offset="1" stop-color="#6601E9" stop-opacity="0.51"/>
</linearGradient>
<linearGradient id="paint10_linear_248_13553" x1="1392.62" y1="-383.483" x2="263.249" y2="1931.13" gradientUnits="userSpaceOnUse">
<stop stop-color="#E102C0"/>
<stop offset="1" stop-color="#6601E9" stop-opacity="0.51"/>
</linearGradient>
<linearGradient id="paint11_linear_248_13553" x1="1213.64" y1="-93.4466" x2="228.908" y2="1924.72" gradientUnits="userSpaceOnUse">
<stop stop-color="#E102C0"/>
<stop offset="1" stop-color="#6601E9" stop-opacity="0.51"/>
</linearGradient>
<linearGradient id="paint12_linear_248_13553" x1="970.082" y1="378.692" x2="800.103" y2="727.056" gradientUnits="userSpaceOnUse">
<stop stop-color="#E102C0"/>
<stop offset="1" stop-color="#6601E9" stop-opacity="0.51"/>
</linearGradient>
<linearGradient id="paint13_linear_248_13553" x1="997.646" y1="-32.9519" x2="709.173" y2="558.263" gradientUnits="userSpaceOnUse">
<stop stop-color="#E102C0"/>
<stop offset="1" stop-color="#6601E9" stop-opacity="0.51"/>
</linearGradient>
<linearGradient id="paint14_linear_248_13553" x1="1090.77" y1="-252.917" x2="621.693" y2="708.436" gradientUnits="userSpaceOnUse">
<stop stop-color="#E102C0"/>
<stop offset="1" stop-color="#6601E9" stop-opacity="0.51"/>
</linearGradient>
<linearGradient id="paint15_linear_248_13553" x1="972.302" y1="18.9657" x2="65.2056" y2="1878.03" gradientUnits="userSpaceOnUse">
<stop stop-color="#E102C0"/>
<stop offset="1" stop-color="#6601E9" stop-opacity="0.51"/>
</linearGradient>
<linearGradient id="paint16_linear_248_13553" x1="992.694" y1="-91.3517" x2="52.9099" y2="1834.7" gradientUnits="userSpaceOnUse">
<stop stop-color="#E102C0"/>
<stop offset="1" stop-color="#6601E9" stop-opacity="0.51"/>
</linearGradient>
<linearGradient id="paint17_linear_248_13553" x1="843.847" y1="37.1589" x2="-31.3783" y2="1830.9" gradientUnits="userSpaceOnUse">
<stop stop-color="#E102C0"/>
<stop offset="1" stop-color="#6601E9" stop-opacity="0.51"/>
</linearGradient>
<linearGradient id="paint18_linear_248_13553" x1="510.314" y1="554.55" x2="-118.932" y2="1844.17" gradientUnits="userSpaceOnUse">
<stop stop-color="#E102C0"/>
<stop offset="1" stop-color="#6601E9" stop-opacity="0.51"/>
</linearGradient>
<linearGradient id="paint19_linear_248_13553" x1="471.037" y1="589.312" x2="-137.78" y2="1837.06" gradientUnits="userSpaceOnUse">
<stop stop-color="#E102C0"/>
<stop offset="1" stop-color="#6601E9" stop-opacity="0.51"/>
</linearGradient>
<linearGradient id="paint20_linear_248_13553" x1="434.244" y1="629.412" x2="-133.713" y2="1793.42" gradientUnits="userSpaceOnUse">
<stop stop-color="#E102C0"/>
<stop offset="1" stop-color="#6601E9" stop-opacity="0.51"/>
</linearGradient>
<linearGradient id="paint21_linear_248_13553" x1="802.129" y1="56.2019" x2="-30.6014" y2="1762.85" gradientUnits="userSpaceOnUse">
<stop stop-color="#E102C0"/>
<stop offset="1" stop-color="#6601E9" stop-opacity="0.51"/>
</linearGradient>
<linearGradient id="paint22_linear_248_13553" x1="726.059" y1="139.361" x2="-92.7794" y2="1817.54" gradientUnits="userSpaceOnUse">
<stop stop-color="#E102C0"/>
<stop offset="1" stop-color="#6601E9" stop-opacity="0.51"/>
</linearGradient>
<linearGradient id="paint23_linear_248_13553" x1="1900.04" y1="-1952.45" x2="1901.87" y2="2037.25" gradientUnits="userSpaceOnUse">
<stop stop-color="#070707" stop-opacity="0.43"/>
<stop offset="1" stop-color="#070707" stop-opacity="0.14"/>
</linearGradient>
</defs>
</svg>
