<svg width="20" height="21" viewBox="0 0 20 21" fill="none" xmlns="http://www.w3.org/2000/svg">
<g id="adjust.svg">
<path id="Vector" fill-rule="evenodd" clip-rule="evenodd" d="M1.66675 5.45992C1.66675 3.61897 3.15913 2.12659 5.00008 2.12659H15.0001C16.841 2.12659 18.3334 3.61897 18.3334 5.45992V15.4599C18.3334 17.3008 16.841 18.7933 15.0001 18.7933H5.00008C3.15913 18.7933 1.66675 17.3008 1.66675 15.4599V5.45992ZM5.00008 3.79325C4.07961 3.79325 3.33341 4.53945 3.33341 5.45992V15.4599C3.33341 16.3804 4.07961 17.1266 5.00008 17.1266H15.0001C15.9206 17.1266 16.6667 16.3804 16.6667 15.4599V5.45992C16.6667 4.53945 15.9206 3.79325 15.0001 3.79325H5.00008ZM14.0967 5.45989C14.1204 5.4599 14.1438 5.45992 14.1667 5.45992C14.627 5.45992 15.0001 5.83301 15.0001 6.29325C15.0001 6.75349 14.627 7.12659 14.1667 7.12659C13.2867 7.12659 12.497 7.14768 11.9001 7.52075C11.3974 7.8349 10.8334 8.54358 10.8334 10.4599C10.8334 12.7103 10.1474 14.0849 8.98341 14.8124C7.94485 15.4615 6.69522 15.4606 5.90348 15.4599C5.87971 15.4599 5.85635 15.4599 5.83341 15.4599C5.37318 15.4599 5.00008 15.0868 5.00008 14.6266C5.00008 14.1663 5.37318 13.7933 5.83341 13.7933C6.71351 13.7933 7.50317 13.7722 8.10008 13.3991C8.60275 13.0849 9.16675 12.3763 9.16675 10.4599C9.16675 8.2096 9.85275 6.83494 11.0167 6.10742C12.0553 5.45832 13.3049 5.45928 14.0967 5.45989Z" fill="#FCFCFC"/>
</g>
</svg>
