<svg width="57" height="54" viewBox="0 0 57 54" fill="none" xmlns="http://www.w3.org/2000/svg">
<g id="artificial-intelligence_12220428 1">
<path id="Vector" d="M54.6333 40.2682C55.0616 35.3842 52.9487 31.5831 49.6023 26.9949C51.2965 24.9502 56.2339 16.8776 53.6532 16.3624C53.5251 16.3343 53.3926 16.332 53.2636 16.3557C53.1345 16.3793 53.0115 16.4284 52.9016 16.5001C52.7917 16.5718 52.6972 16.6647 52.6236 16.7733C52.55 16.8819 52.4987 17.004 52.4729 17.1327C51.6821 20.1516 50.2643 22.9701 48.3119 25.4047C46.9179 23.7705 45.4176 22.2301 43.8207 20.7936C43.2581 16.5436 41.9081 12.4358 39.8398 8.68065C43.6292 8.15882 46.5998 8.09158 49.5821 9.58078C49.2324 10.3208 49.1595 11.1617 49.3765 11.9509C49.5936 12.7402 50.0863 13.4255 50.7652 13.8827C51.4442 14.3398 52.2645 14.5386 53.0774 14.4429C53.8903 14.3472 54.642 13.9633 55.1962 13.361C55.7504 12.7586 56.0705 11.9776 56.0983 11.1595C56.1261 10.3415 55.8598 9.54054 55.3478 8.90193C54.8358 8.26332 54.1119 7.82932 53.3073 7.67863C52.5028 7.52794 51.6709 7.67052 50.9625 8.08053C49.864 7.41336 48.6544 6.9492 47.3916 6.71021C44.5098 6.1851 41.5529 6.23267 38.6895 6.85021C35.8288 2.74921 32.098 0.248596 28.007 0.248596C23.926 0.248596 20.1951 2.74919 17.3344 6.85021C15.1167 6.41902 7.34101 5.55556 7.86215 7.8903C7.88802 8.01892 7.93925 8.14111 8.01285 8.24973C8.08645 8.35834 8.18095 8.45121 8.29082 8.52292C8.40069 8.59463 8.52375 8.64374 8.6528 8.66738C8.78186 8.69103 8.91433 8.68874 9.04249 8.66064C11.4051 8.24065 13.8239 8.24742 16.1841 8.68064C14.1159 12.4358 12.7659 16.5436 12.2032 20.7936C10.6039 22.2275 9.10345 23.7681 7.71216 25.4047C5.05881 21.6557 3.04084 18.1755 3.39065 14.392C4.20682 14.4005 4.99923 14.1174 5.62521 13.5936C6.2512 13.0699 6.66965 12.3398 6.80523 11.5349C6.9408 10.7301 6.7846 9.90323 6.36475 9.20328C5.94489 8.50333 5.28896 7.97625 4.51503 7.71693C3.74111 7.4576 2.90003 7.48307 2.14321 7.78875C1.3864 8.09442 0.763557 8.66023 0.386822 9.3843C0.0100864 10.1084 -0.0957975 10.9431 0.0882321 11.7383C0.272262 12.5335 0.734115 13.2369 1.39065 13.7219C0.976148 18.6176 3.07216 22.3979 6.4217 27.0051C4.1475 29.7661 2.49928 32.9875 1.5907 36.4473C1.53766 36.7044 1.58801 36.9721 1.73083 37.1924C1.87365 37.4126 2.09747 37.5678 2.35385 37.6244C2.61023 37.6809 2.87856 37.6342 3.10077 37.4944C3.32298 37.3545 3.4812 37.1329 3.5412 36.8773C4.34217 33.8573 5.76259 31.0369 7.7122 28.5954C9.10349 30.232 10.6039 31.7725 12.2033 33.2065C12.7657 37.4519 14.1122 41.5559 16.1743 45.3093C12.403 45.8315 9.42626 45.8893 6.45189 44.4093C6.75965 43.7451 6.84367 42.9991 6.69133 42.2831C6.53898 41.5672 6.1585 40.9199 5.607 40.4386C5.05551 39.9573 4.36276 39.6679 3.63277 39.6138C2.90279 39.5597 2.17496 39.7439 1.55856 40.1387C0.942163 40.5335 0.470465 41.1176 0.214288 41.8033C-0.0418884 42.489 -0.0687191 43.2393 0.137825 43.9415C0.344369 44.6438 0.773141 45.2601 1.35976 45.6979C1.94639 46.1357 2.6592 46.3714 3.39119 46.3696C3.97904 46.3679 4.55574 46.209 5.06157 45.9095C6.16007 46.5767 7.36961 47.0408 8.63243 47.2798C11.5106 47.8071 14.4648 47.7595 17.3245 47.1398C20.1852 51.2508 23.9261 53.7513 28.007 53.7513C32.098 53.7513 35.8389 51.2508 38.6996 47.1398C41.5592 47.7605 44.5135 47.8081 47.3917 47.2798C47.6465 47.2217 47.8683 47.0657 48.0092 46.8456C48.1501 46.6255 48.199 46.3588 48.1452 46.103C48.0914 45.8472 47.9393 45.6228 47.7216 45.4781C47.504 45.3334 47.2382 45.28 46.9815 45.3294C44.6222 45.7493 42.2068 45.7425 39.8499 45.3094C41.9118 41.5559 43.2583 37.4519 43.8208 33.2065C45.4201 31.7726 46.9206 30.232 48.3119 28.5954C51.0775 32.5021 52.8152 35.5921 52.7031 39.608C51.896 39.5894 51.1088 39.8601 50.4839 40.3713C49.8591 40.8825 49.4378 41.6005 49.2962 42.3953C49.1545 43.1901 49.302 44.0093 49.7118 44.7049C50.1217 45.4005 50.7669 45.9264 51.5308 46.1877C52.2947 46.4489 53.1268 46.4283 53.8768 46.1294C54.6268 45.8305 55.245 45.2731 55.6198 44.558C55.9946 43.843 56.1012 43.0174 55.9202 42.2306C55.7393 41.4438 55.2828 40.7477 54.6333 40.2682ZM11.8732 30.1358C8.34799 26.4812 8.36471 27.5151 11.8734 23.8642C11.7132 25.9517 11.7131 28.0483 11.8732 30.1358ZM41.4502 18.753C38.0258 15.9593 34.318 13.5321 30.3876 11.5113C32.7906 10.4804 35.2811 9.66696 37.8293 9.08076C39.5785 12.075 40.8031 15.3462 41.4502 18.753ZM28.007 2.24911C31.2478 2.24911 34.2385 4.13958 36.6391 7.31032C33.6758 8.05908 30.7892 9.08378 28.017 10.371C25.2409 9.08519 22.351 8.06052 19.385 7.31028C21.7856 4.13958 24.7763 2.24911 28.007 2.24911ZM18.1947 9.08076C20.7429 9.66696 23.2335 10.4804 25.6365 11.5113C23.7207 12.4934 21.8577 13.5751 20.0552 14.7521C18.1552 15.983 16.3253 17.3187 14.5738 18.753C15.221 15.3462 16.4456 12.075 18.1947 9.08076ZM14.5738 35.247C17.9983 38.0407 21.7061 40.4679 25.6365 42.4888C23.2309 43.5195 20.7367 44.3296 18.1847 44.9093C16.4448 41.9152 15.224 38.6484 14.5738 35.247ZM28.007 51.7509C24.7663 51.7509 21.7756 49.8505 19.385 46.6797C22.35 45.9409 25.2372 44.9193 28.007 43.629C30.7809 44.9179 33.6713 45.9394 36.6391 46.6797C34.2485 49.8505 31.2578 51.7509 28.007 51.7509ZM37.8393 44.9093C35.2873 44.3296 32.7931 43.5194 30.3876 42.4887C32.3033 41.5067 34.1663 40.4249 35.9689 39.2479C37.8689 38.0171 39.6988 36.6814 41.4502 35.247C40.8018 38.6488 39.5808 41.916 37.8393 44.9093ZM41.9503 32.1963C37.7563 35.9067 33.0629 39.011 28.007 41.4185C25.637 40.2921 23.3447 39.0089 21.1454 37.5775C18.6597 35.9591 16.2962 34.1605 14.0737 32.1963C13.6485 28.7451 13.6485 25.2549 14.0737 21.8038C18.2685 18.0943 22.9618 14.9902 28.017 12.5816C33.0651 14.9973 37.7542 18.1009 41.9503 21.8038C42.3756 25.2549 42.3756 28.7451 41.9503 32.1963ZM44.1509 30.1358C44.3109 28.0483 44.3109 25.9517 44.1509 23.8642C47.6791 27.5087 47.6544 26.4933 44.1509 30.1358Z" fill="#FCFCFC"/>
<path id="Vector_2" d="M34.5139 19.8263C34.3825 19.8263 34.2525 19.8521 34.1311 19.9024C34.0097 19.9526 33.8995 20.0263 33.8066 20.1192C33.7137 20.2121 33.64 20.3224 33.5897 20.4437C33.5395 20.5651 33.5136 20.6952 33.5137 20.8265V33.1683C33.5133 33.3 33.5388 33.4304 33.5889 33.5521C33.639 33.6738 33.7126 33.7844 33.8055 33.8777C33.8984 33.9709 34.0088 34.0448 34.1304 34.0953C34.252 34.1458 34.3823 34.1717 34.5139 34.1717C34.6455 34.1717 34.7759 34.1458 34.8974 34.0953C35.019 34.0448 35.1294 33.9709 35.2223 33.8777C35.3152 33.7844 35.3888 33.6738 35.4389 33.5521C35.489 33.4304 35.5146 33.3 35.5141 33.1683V20.8265C35.5142 20.6952 35.4883 20.5651 35.4381 20.4437C35.3878 20.3224 35.3141 20.2121 35.2213 20.1192C35.1284 20.0263 35.0181 19.9526 34.8967 19.9024C34.7753 19.8521 34.6453 19.8263 34.5139 19.8263Z" fill="#FCFCFC"/>
<path id="Vector_3" d="M26.1385 19.8263H24.5957C23.5124 19.8274 22.4738 20.2583 21.7078 21.0243C20.9418 21.7903 20.5109 22.8289 20.5098 23.9122V33.1683C20.5148 33.4303 20.6224 33.6798 20.8095 33.8633C20.9965 34.0467 21.248 34.1495 21.51 34.1495C21.772 34.1495 22.0236 34.0467 22.2106 33.8632C22.3976 33.6798 22.5052 33.4302 22.5102 33.1683V27.9982H28.2235V33.1683C28.2287 33.4302 28.3364 33.6796 28.5234 33.8629C28.7104 34.0463 28.9619 34.149 29.2238 34.149C29.4857 34.149 29.7372 34.0463 29.9242 33.8629C30.1112 33.6795 30.2188 33.4301 30.224 33.1683V23.9122C30.2229 22.829 29.7921 21.7905 29.0262 21.0245C28.2603 20.2584 27.2218 19.8275 26.1385 19.8263ZM28.2235 25.9977H22.5102V23.9122C22.5109 23.3594 22.7309 22.8293 23.1218 22.4384C23.5128 22.0474 24.0428 21.8275 24.5957 21.8268H26.1385C26.6914 21.8275 27.2214 22.0475 27.6122 22.4384C28.0031 22.8294 28.2229 23.3594 28.2235 23.9122V25.9977Z" fill="#FCFCFC"/>
</g>
</svg>
