<svg width="18" height="18" viewBox="0 0 18 18" fill="none" xmlns="http://www.w3.org/2000/svg">
<g id="ar.17ae3777" clip-path="url(#clip0_852_13343)">
<g id="Clip path group">
<mask id="mask0_852_13343" style="mask-type:luminance" maskUnits="userSpaceOnUse" x="0" y="0" width="18" height="18">
<g id="clip0_894_62">
<path id="Vector" d="M16.5 0.0927734H1.5C0.671573 0.0927734 0 0.737483 0 1.53277V15.9328C0 16.7281 0.671573 17.3728 1.5 17.3728H16.5C17.3284 17.3728 18 16.7281 18 15.9328V1.53277C18 0.737483 17.3284 0.0927734 16.5 0.0927734Z" fill="white"/>
</g>
</mask>
<g mask="url(#mask0_852_13343)">
<g id="Group">
<path id="Vector_2" d="M6 0.0927734H0V17.3728H6V0.0927734Z" fill="#FF0000"/>
<path id="Vector_3" d="M18 0.0927734H6V5.85277H18V0.0927734Z" fill="#00732F"/>
<path id="Vector_4" d="M18 5.85254H6V11.6125H18V5.85254Z" fill="white"/>
<path id="Vector_5" d="M18 11.6128H6V17.3728H18V11.6128Z" fill="black"/>
</g>
</g>
</g>
</g>
<defs>
<clipPath id="clip0_852_13343">
<rect width="18" height="18" fill="white"/>
</clipPath>
</defs>
</svg>
