<svg width="20" height="21" viewBox="0 0 20 21" fill="none" xmlns="http://www.w3.org/2000/svg">
<g id="blur_background.svg">
<path id="Vector" d="M9.16683 7.95002C9.16683 8.87052 8.42066 9.61669 7.50016 9.61669C6.57969 9.61669 5.8335 8.87052 5.8335 7.95002C5.8335 7.02955 6.57969 6.28336 7.50016 6.28336C8.42066 6.28336 9.16683 7.02955 9.16683 7.95002Z" fill="#FCFCFC"/>
<path id="Vector_2" d="M8.33317 3.78335C8.33317 4.24358 7.96007 4.61668 7.49984 4.61668C7.0396 4.61668 6.6665 4.24358 6.6665 3.78335C6.6665 3.32311 7.0396 2.95001 7.49984 2.95001C7.96007 2.95001 8.33317 3.32311 8.33317 3.78335Z" fill="#FCFCFC"/>
<path id="Vector_3" d="M13.3332 3.78335C13.3332 4.24358 12.9601 4.61668 12.4998 4.61668C12.0396 4.61668 11.6665 4.24358 11.6665 3.78335C11.6665 3.32311 12.0396 2.95001 12.4998 2.95001C12.9601 2.95001 13.3332 3.32311 13.3332 3.78335Z" fill="#FCFCFC"/>
<path id="Vector_4" d="M17.5002 7.95C17.5002 8.41024 17.1271 8.78334 16.6668 8.78334C16.2066 8.78334 15.8335 8.41024 15.8335 7.95C15.8335 7.48977 16.2066 7.11667 16.6668 7.11667C17.1271 7.11667 17.5002 7.48977 17.5002 7.95Z" fill="#FCFCFC"/>
<path id="Vector_5" d="M17.5002 12.95C17.5002 13.4103 17.1271 13.7833 16.6668 13.7833C16.2066 13.7833 15.8335 13.4103 15.8335 12.95C15.8335 12.4898 16.2066 12.1167 16.6668 12.1167C17.1271 12.1167 17.5002 12.4898 17.5002 12.95Z" fill="#FCFCFC"/>
<path id="Vector_6" d="M13.3332 17.1167C13.3332 17.5769 12.9601 17.95 12.4998 17.95C12.0396 17.95 11.6665 17.5769 11.6665 17.1167C11.6665 16.6564 12.0396 16.2834 12.4998 16.2834C12.9601 16.2834 13.3332 16.6564 13.3332 17.1167Z" fill="#FCFCFC"/>
<path id="Vector_7" d="M8.33317 17.1167C8.33317 17.5769 7.96007 17.95 7.49984 17.95C7.0396 17.95 6.6665 17.5769 6.6665 17.1167C6.6665 16.6564 7.0396 16.2834 7.49984 16.2834C7.96007 16.2834 8.33317 16.6564 8.33317 17.1167Z" fill="#FCFCFC"/>
<path id="Vector_8" d="M4.16667 12.95C4.16667 13.4103 3.79357 13.7833 3.33333 13.7833C2.8731 13.7833 2.5 13.4103 2.5 12.95C2.5 12.4898 2.8731 12.1167 3.33333 12.1167C3.79357 12.1167 4.16667 12.4898 4.16667 12.95Z" fill="#FCFCFC"/>
<path id="Vector_9" d="M4.16667 7.95C4.16667 8.41024 3.79357 8.78334 3.33333 8.78334C2.8731 8.78334 2.5 8.41024 2.5 7.95C2.5 7.48977 2.8731 7.11667 3.33333 7.11667C3.79357 7.11667 4.16667 7.48977 4.16667 7.95Z" fill="#FCFCFC"/>
<path id="Vector_10" d="M14.1668 7.95002C14.1668 8.87052 13.4207 9.61669 12.5002 9.61669C11.5797 9.61669 10.8335 8.87052 10.8335 7.95002C10.8335 7.02955 11.5797 6.28336 12.5002 6.28336C13.4207 6.28336 14.1668 7.02955 14.1668 7.95002Z" fill="#FCFCFC"/>
<path id="Vector_11" d="M14.1668 12.95C14.1668 13.8705 13.4207 14.6167 12.5002 14.6167C11.5797 14.6167 10.8335 13.8705 10.8335 12.95C10.8335 12.0295 11.5797 11.2834 12.5002 11.2834C13.4207 11.2834 14.1668 12.0295 14.1668 12.95Z" fill="#FCFCFC"/>
<path id="Vector_12" d="M9.16683 12.95C9.16683 13.8705 8.42066 14.6167 7.50016 14.6167C6.57969 14.6167 5.8335 13.8705 5.8335 12.95C5.8335 12.0295 6.57969 11.2834 7.50016 11.2834C8.42066 11.2834 9.16683 12.0295 9.16683 12.95Z" fill="#FCFCFC"/>
</g>
</svg>
