<svg xmlns="http://www.w3.org/2000/svg" width="25" height="25" viewBox="0 0 25 25" fill="none">
  <g clip-path="url(#clip0_392_497)">
    <path d="M22.25 8.98438H21.0938V14.1797C21.0938 16.2734 19.3906 17.9688 17.3047 17.9688H9.375V19.6641C9.375 20.7578 10.2578 21.6406 11.3438 21.6406H19.7578L20.4922 23.125C20.8281 23.8047 21.5 24.2188 22.25 24.2188C23.3359 24.2188 24.2188 23.3359 24.2188 22.2422V10.9609C24.2188 9.86719 23.3359 8.98438 22.25 8.98438Z" fill="url(#paint0_linear_392_497)"/>
    <path d="M19.5312 14.1797V3.00781C19.5312 1.78125 18.5312 0.78125 17.3047 0.78125H3.00781C1.78125 0.78125 0.78125 1.78125 0.78125 3.00781V17.2969C0.78125 18.5234 1.78125 19.5234 3.00781 19.5234C3.85938 19.5234 4.625 19.0547 5 18.2891L5.94531 16.3984H17.2969C18.5234 16.3984 19.5234 15.3984 19.5234 14.1719L19.5312 14.1797ZM5.46875 5.85938H5.85938C6.28906 5.85938 6.64062 6.21094 6.64062 6.64062C6.64062 7.07031 6.28906 7.42188 5.85938 7.42188H5.46875C5.03906 7.42188 4.6875 7.07031 4.6875 6.64062C4.6875 6.21094 5.03906 5.85938 5.46875 5.85938ZM14.8438 11.3281H5.46875C5.03906 11.3281 4.6875 10.9766 4.6875 10.5469C4.6875 10.1172 5.03906 9.76562 5.46875 9.76562H14.8438C15.2734 9.76562 15.625 10.1172 15.625 10.5469C15.625 10.9766 15.2734 11.3281 14.8438 11.3281ZM14.8438 7.42188H8.59375C8.16406 7.42188 7.8125 7.07031 7.8125 6.64062C7.8125 6.21094 8.16406 5.85938 8.59375 5.85938H14.8438C15.2734 5.85938 15.625 6.21094 15.625 6.64062C15.625 7.07031 15.2734 7.42188 14.8438 7.42188Z" fill="url(#paint1_linear_392_497)"/>
  </g>
  <defs>
    <linearGradient id="paint0_linear_392_497" x1="13.4883" y1="5.41382" x2="26.3581" y2="11.6195" gradientUnits="userSpaceOnUse">
      <stop stop-color="#E202BB"/>
      <stop offset="1" stop-color="#6902E7"/>
    </linearGradient>
    <linearGradient id="paint1_linear_392_497" x1="5.97703" y1="-3.61145" x2="22.0691" y2="4.35542" gradientUnits="userSpaceOnUse">
      <stop stop-color="#E202BB"/>
      <stop offset="1" stop-color="#6902E7"/>
    </linearGradient>
    <clipPath id="clip0_392_497">
      <rect width="25" height="25" fill="white"/>
    </clipPath>
  </defs>
</svg>