<svg width="79" height="79" viewBox="0 0 79 79" fill="none" xmlns="http://www.w3.org/2000/svg">
<g id="fi_9382189" clip-path="url(#clip0_941_29304)">
<g id="Currency">
<g id="Dollar">
<g id="Coin">
<g id="Bottom">
<path id="Vector" d="M28.349 67.8182C43.218 73.5495 60.1265 65.6008 66.1152 50.0643C72.1039 34.5277 64.9049 17.2866 50.036 11.5553C35.167 5.82391 18.2585 13.7726 12.2698 29.3092C6.28114 44.8458 13.48 62.0868 28.349 67.8182Z" fill="#E88102"/>
<path id="Vector_2" d="M29.4914 64.8508C44.2087 70.5236 60.7381 63.1917 66.411 48.4744C72.0839 33.7572 64.7519 17.2277 50.0347 11.5548C35.3174 5.88197 18.7879 13.2139 13.1151 27.9312C7.44221 42.6484 14.7741 59.1779 29.4914 64.8508Z" fill="#FDD835"/>
</g>
<g id="Shade">
<path id="Vector_3" opacity="0.5" d="M59.8237 17.8659L11.2311 39.4108C11.093 36.2653 11.4835 33.0585 12.4455 29.9079L51.9575 12.3726C54.9344 13.7851 57.5736 15.6481 59.8237 17.8659Z" fill="white"/>
<path id="Vector_4" opacity="0.5" d="M68.0315 34.0789L17.7447 56.3845C15.9723 54.2372 14.5426 51.856 13.4672 49.3084L65.6681 26.163C66.828 28.6548 67.6293 31.3239 68.0315 34.0789Z" fill="white"/>
<path id="Vector_5" opacity="0.5" d="M64.9639 24.7421L12.8958 47.8378C12.576 46.932 12.2909 46.0017 12.0583 45.0664L63.4716 22.2611C64.0088 23.0614 64.5071 23.8971 64.9639 24.7421Z" fill="white"/>
<path id="Vector_6" opacity="0.5" d="M68.1396 41.5035L23.1662 61.4523C22.2857 60.8225 21.4482 60.1463 20.6497 59.4347L68.3331 38.2839C68.3247 39.3535 68.2639 40.4281 68.1396 41.5035Z" fill="white"/>
<path id="Vector_7" opacity="0.5" d="M66.4188 48.4764C66.3468 48.6632 66.279 48.839 66.196 49.0216C71.4845 34.4502 64.1572 18.2595 49.6189 12.6557C35.0807 7.05181 18.782 14.1356 12.9221 28.4868C12.9941 28.3 13.0509 28.1199 13.1229 27.9331C18.7945 13.219 35.3284 5.88516 50.0425 11.5568C64.7566 17.2284 72.0904 33.7623 66.4188 48.4764Z" fill="white"/>
<path id="Vector_8" opacity="0.5" d="M60.9734 47.7023C56.5301 59.2296 43.574 64.9765 32.0467 60.5332C25.5742 58.0384 20.9225 52.8501 18.8706 46.7456C21.0954 52.3362 25.5504 57.0195 31.6163 59.3576C43.1436 63.8009 56.0997 58.054 60.543 46.5267C62.4914 41.4718 62.4835 36.1551 60.8881 31.3876C62.8917 36.4386 63.0827 42.2298 60.9734 47.7023Z" fill="white"/>
</g>
<g id="Top">
<path id="Vector_9" d="M31.6121 59.3582C43.1432 63.803 56.0941 58.0584 60.5388 46.5273C64.9836 34.9963 59.239 22.0453 47.7079 17.6006C36.1769 13.1559 23.2259 18.9005 18.7812 30.4315C14.3365 41.9626 20.0811 54.9135 31.6121 59.3582Z" fill="#F39E09"/>
<path id="Vector_10" d="M60.7363 30.9527C58.2926 26.3884 54.2673 22.6533 49.0585 20.6455C37.5312 16.2023 24.5751 21.9492 20.1318 33.4765C18.1241 38.6852 18.1911 44.1761 19.9344 49.0511C16.9732 43.5047 16.3414 36.7611 18.7812 30.4315C23.2245 18.9042 36.1806 13.1573 47.7079 17.6006C54.0265 20.0362 58.6124 25.0349 60.7363 30.9527Z" fill="#E88102"/>
</g>
</g>
<g id="Icon">
<path id="Bottom-2" d="M40.4011 32.6559C39.8623 32.9405 39.4358 33.4576 39.1435 34.2158C38.8512 34.9741 38.8296 35.6851 39.0955 36.3051C39.3614 36.9251 39.8995 37.6247 40.7055 38.4151C41.5158 39.1944 42.2627 39.9745 42.9504 40.7445C43.6381 41.5144 44.1795 42.3037 44.5899 43.1056C45.0002 43.9074 45.2296 44.7531 45.2932 45.6359C45.3149 45.9725 45.503 46.6634 45.503 46.6634C45.503 46.6634 44.7998 48.4875 44.7786 48.5425C44.0925 50.3227 42.9729 51.5572 41.409 52.2418C39.8451 52.9264 38.0635 52.9969 36.0465 52.434L34.8435 55.5548L32.3601 54.5976L33.5757 51.4438C31.4052 50.3294 29.9655 48.891 29.254 47.1022C28.5535 45.3176 28.6141 43.3593 29.4443 41.2055L30.0797 39.5572L34.697 43.2302C34.2395 44.417 34.1559 45.4197 34.4462 46.2384C34.7365 47.0571 35.3651 47.6528 36.3321 48.0256C37.0354 48.2967 37.6763 48.3039 38.2481 48.0321C38.8199 47.7602 39.2379 47.265 39.5217 46.5288C39.8394 45.7046 39.8873 44.991 39.6628 44.3618C39.4384 43.7325 38.8935 43.0177 38.0435 42.2104C37.1825 41.3989 36.4094 40.6213 35.7065 39.8581C35.0036 39.0949 34.4579 38.3166 34.0476 37.5148C33.6373 36.7129 33.4146 35.8824 33.3578 35.0149C33.3119 34.1515 33.4902 33.1979 33.8968 32.143L34.5703 30.3957C34.5703 30.3957 36.2557 28.9376 37.3501 28.4886C38.9774 27.8032 40.814 27.7538 42.853 28.3252L44.1152 25.0505L46.5987 26.0078L45.3068 29.3594C47.0977 30.3779 48.2915 31.7341 48.8838 33.4392C49.2922 34.6063 49.2606 37.3078 49.2606 37.3078L48.6253 38.9561L43.3506 36.9229C43.7657 35.846 43.8788 34.9304 43.6857 34.187C43.4927 33.4437 43.0094 32.9292 42.2402 32.6327C41.5631 32.3591 40.9509 32.3756 40.4011 32.6559Z" fill="#DB6704"/>
<path id="Top-2" d="M40.1564 44.8936C40.4741 44.0695 40.522 43.3559 40.2975 42.7266C40.0731 42.0974 39.5282 41.3825 38.6782 40.5752C37.8172 39.7637 37.0441 38.9861 36.3412 38.2229C35.6383 37.4598 35.0926 36.6815 34.6823 35.8796C34.2719 35.0777 34.0493 34.2472 33.9925 33.3797C33.9466 32.5164 34.1291 31.5517 34.5315 30.5078C35.2092 28.7496 36.3617 27.5278 37.9848 26.8534C39.6079 26.179 41.4486 26.1186 43.4876 26.69L44.7541 23.4043L47.2376 24.3616L45.9457 27.7132C47.7367 28.7317 48.9304 30.088 49.5227 31.793C50.115 33.498 50.0266 35.3319 49.2642 37.3099L43.9895 35.2768C44.4046 34.1999 44.5177 33.2842 44.3247 32.5409C44.1316 31.7975 43.6483 31.2831 42.8791 30.9866C42.1978 30.724 41.5746 30.7362 41.0358 31.0207C40.497 31.3053 40.0705 31.8224 39.7782 32.5807C39.4859 33.3389 39.4643 34.05 39.7302 34.67C39.996 35.2899 40.5341 35.9896 41.3292 36.7757C42.1395 37.555 42.8864 38.3351 43.5741 39.1051C44.2618 39.875 44.8032 40.6643 45.2135 41.4662C45.6239 42.268 45.8533 43.1137 45.9169 43.9965C45.9805 44.8793 45.809 45.8482 45.4066 46.8921C44.7204 48.6723 43.6008 49.9068 42.0369 50.5914C40.4731 51.276 38.6915 51.3465 36.6744 50.7836L35.4715 53.9044L32.988 52.9472L34.2037 49.7934C32.0331 48.6791 30.5934 47.2406 29.8819 45.4518C29.1814 43.6672 29.2421 41.709 30.0723 39.5551L35.3249 41.5798C34.8675 42.7666 34.7839 43.7694 35.0741 44.588C35.3644 45.4067 35.993 46.0025 36.9601 46.3752C37.6634 46.6463 38.3043 46.6535 38.876 46.3817C39.4478 46.1098 39.8726 45.6299 40.1564 44.8936Z" fill="#FDD835"/>
<g id="Shade-2">
<path id="Vector_11" opacity="0.5" d="M37.9714 26.8513C38.846 26.4816 39.7863 26.3013 40.7858 26.2953L35.6204 28.5956C36.245 27.8266 37.0207 27.2547 37.9714 26.8513Z" fill="white"/>
<path id="Vector_12" opacity="0.5" d="M46.1246 23.9338L44.2215 24.7779L44.751 23.4043L46.1246 23.9338Z" fill="white"/>
<path id="Vector_13" opacity="0.5" d="M45.9161 43.8831L33.4777 49.4004C31.7104 48.3532 30.515 47.0341 29.8938 45.4695C29.4938 44.4444 29.3424 43.3637 29.4396 42.2273L32.9412 40.6741L35.3368 41.5975C34.8793 42.7843 34.7957 43.787 35.086 44.6057C35.3763 45.4244 36.0049 46.0201 36.9719 46.3929C37.6752 46.664 38.3161 46.6712 38.8879 46.3994C39.4597 46.1275 39.8777 45.6323 40.1615 44.8961C40.4792 44.0719 40.5271 43.3583 40.3026 42.7291C40.0782 42.0998 39.5333 41.385 38.6833 40.5777C38.0724 40.0015 37.5055 39.4421 36.9757 38.8845L41.4822 36.8856C42.2418 37.6328 42.9465 38.3588 43.5987 39.0898C44.2864 39.8597 44.8278 40.649 45.2381 41.4509C45.6197 42.229 45.8508 43.0376 45.9161 43.8831Z" fill="white"/>
<path id="Vector_14" opacity="0.5" d="M49.2636 37.2984L44.5934 35.4982L49.8458 33.1684C50.0131 34.4698 49.8227 35.8478 49.2636 37.2984Z" fill="white"/>
<path id="Vector_15" opacity="0.5" d="M30.085 39.5625L30.8652 39.8632L29.8299 40.3225C29.9011 40.0722 29.9875 39.8152 30.085 39.5625Z" fill="white"/>
<path id="Vector_16" opacity="0.5" d="M39.7247 34.6571C39.8555 34.9726 40.0565 35.3025 40.3344 35.662L35.8279 37.661C35.3548 37.0873 34.9646 36.4952 34.6683 35.8887C34.545 35.6519 34.448 35.4125 34.3619 35.1774L39.7057 32.8071C39.4845 33.4791 39.4968 34.1023 39.7247 34.6571Z" fill="white"/>
<path id="Vector_17" opacity="0.5" d="M49.4569 31.6168L44.3719 33.8724C44.4467 33.3837 44.4301 32.9356 44.3289 32.5432C44.1771 31.9546 43.8435 31.5104 43.3321 31.1997L47.8843 29.1805C48.5822 29.8913 49.1041 30.6983 49.4569 31.6168Z" fill="white"/>
<path id="Vector_18" opacity="0.5" d="M34.201 53.4153L35.9671 52.632L35.4757 53.9067L34.201 53.4153Z" fill="white"/>
<path id="Vector_19" opacity="0.5" d="M44.2174 48.9736C43.6292 49.6809 42.9076 50.2105 42.055 50.5887C41.2024 50.9669 40.284 51.1556 39.2998 51.1549L44.2174 48.9736Z" fill="white"/>
<path id="Vector_20" opacity="0.25" d="M61.5147 33.6658C46.1686 33.203 31.2919 39.4465 20.8693 50.638C20.5391 50.1194 20.2241 49.5941 19.9327 49.0401C18.1894 44.1652 18.1224 38.6742 20.1259 33.4765C24.5692 21.9492 37.5253 16.2023 49.0526 20.6455C54.2614 22.6533 58.2867 26.3884 60.7194 30.9485C61.0434 31.8433 61.2998 32.7499 61.5147 33.6658Z" fill="white"/>
</g>
</g>
</g>
</g>
</g>
<defs>
<clipPath id="clip0_941_29304">
<rect width="60.2979" height="60.2979" fill="white" transform="translate(21.9209 0.71875) rotate(21.0795)"/>
</clipPath>
</defs>
</svg>
