<svg width="20" height="21" viewBox="0 0 20 21" fill="none" xmlns="http://www.w3.org/2000/svg">
<g id="color_background.svg">
<path id="Vector" d="M4.87804 2.2387C5.04077 2.40142 5.04077 2.66524 4.87804 2.82795L2.37804 5.32795C2.21533 5.49068 1.95151 5.49068 1.78879 5.32795C1.62607 5.16524 1.62607 4.90142 1.78879 4.7387L4.28879 2.2387C4.45151 2.07598 4.71532 2.07598 4.87804 2.2387Z" fill="#FCFCFC"/>
<path id="Vector_2" d="M8.21138 2.2387C8.37408 2.40142 8.37408 2.66524 8.21138 2.82795L2.37804 8.66129C2.21533 8.824 1.95151 8.824 1.78879 8.66129C1.62607 8.49857 1.62607 8.23476 1.78879 8.07204L7.62213 2.2387C7.78484 2.07598 8.04866 2.07598 8.21138 2.2387Z" fill="#FCFCFC"/>
<path id="Vector_3" fill-rule="evenodd" clip-rule="evenodd" d="M11.5448 2.82795C11.7074 2.66524 11.7074 2.40142 11.5448 2.2387C11.382 2.07598 11.1182 2.07598 10.9554 2.2387L8.337 4.85716C6.45263 5.41666 4.96675 6.90254 4.40725 8.78691L1.78879 11.4053C1.62607 11.5681 1.62607 11.8319 1.78879 11.9947C1.95151 12.1573 2.21533 12.1573 2.37804 11.9947L4.17198 10.2007C4.16851 10.2833 4.16675 10.3665 4.16675 10.45C4.16675 11.0298 4.25136 11.5899 4.40889 12.1186L1.78879 14.7387C1.62607 14.9014 1.62607 15.1652 1.78879 15.328C1.95151 15.4907 2.21533 15.4907 2.37804 15.328L4.73713 12.9689C4.96358 13.4412 5.25172 13.8782 5.59113 14.2697L1.78879 18.072C1.62607 18.2347 1.62607 18.4986 1.78879 18.6613C1.95151 18.824 2.21533 18.824 2.37804 18.6613L6.18039 14.8589C6.57183 15.1983 7.00891 15.4865 7.4812 15.713L5.12212 18.072C4.9594 18.2347 4.9594 18.4986 5.12212 18.6613C5.28484 18.824 5.54866 18.824 5.71137 18.6613L8.33148 16.0412C8.86017 16.1987 9.42025 16.2833 10.0001 16.2833C10.0836 16.2833 10.1667 16.2816 10.2494 16.2781L8.45542 18.072C8.29273 18.2347 8.29273 18.4986 8.45542 18.6613C8.61817 18.824 8.882 18.824 9.04475 18.6613L11.6632 16.0428C13.5476 15.4833 15.0334 13.9975 15.5929 12.1131L18.2114 9.49466C18.3741 9.33191 18.3741 9.06808 18.2114 8.90533C18.0487 8.74265 17.7848 8.74265 17.6221 8.90533L15.8282 10.6993C15.8317 10.6167 15.8334 10.5335 15.8334 10.45C15.8334 9.87016 15.7488 9.31008 15.5912 8.7814L18.2114 6.16129C18.3741 5.99857 18.3741 5.73475 18.2114 5.57204C18.0487 5.40931 17.7848 5.40931 17.6221 5.57204L15.2631 7.93111C15.0366 7.45882 14.7484 7.02174 14.409 6.6303L18.2114 2.82795C18.3741 2.66524 18.3741 2.40142 18.2114 2.2387C18.0487 2.07598 17.7848 2.07598 17.6221 2.2387L13.8197 6.04105C13.4283 5.70164 12.9913 5.41349 12.519 5.18704L14.8781 2.82795C15.0407 2.66524 15.0407 2.40142 14.8781 2.2387C14.7153 2.07598 14.4515 2.07598 14.2888 2.2387L11.6687 4.8588C11.14 4.70127 10.5799 4.61666 10.0001 4.61666C9.91658 4.61666 9.83342 4.61842 9.75075 4.6219L11.5448 2.82795ZM5.83342 10.45C5.83342 8.14881 7.6989 6.28333 10.0001 6.28333C12.3013 6.28333 14.1667 8.14881 14.1667 10.45C14.1667 12.7512 12.3013 14.6167 10.0001 14.6167C7.6989 14.6167 5.83342 12.7512 5.83342 10.45Z" fill="#FCFCFC"/>
<path id="Vector_4" d="M18.2114 12.828C18.3741 12.6652 18.3741 12.4014 18.2114 12.2387C18.0487 12.076 17.7848 12.076 17.6221 12.2387L11.7887 18.072C11.6261 18.2347 11.6261 18.4986 11.7887 18.6613C11.9515 18.824 12.2153 18.824 12.3781 18.6613L18.2114 12.828Z" fill="#FCFCFC"/>
<path id="Vector_5" d="M18.2113 15.572C18.374 15.7347 18.374 15.9986 18.2113 16.1613L15.7113 18.6613C15.5486 18.824 15.2847 18.824 15.122 18.6613C14.9593 18.4986 14.9593 18.2347 15.122 18.072L17.622 15.572C17.7847 15.4093 18.0486 15.4093 18.2113 15.572Z" fill="#FCFCFC"/>
</g>
</svg>
