<svg width="24" height="24" viewBox="0 0 24 24" fill="none" xmlns="http://www.w3.org/2000/svg">
<g id="copy_8567286">
<path id="Vector" d="M18.8281 22.0625H8.76562C7.90782 22.0625 7.08514 21.7217 6.47858 21.1152C5.87201 20.5086 5.53125 19.6859 5.53125 18.8281V8.76562C5.53125 7.90782 5.87201 7.08514 6.47858 6.47858C7.08514 5.87201 7.90782 5.53125 8.76562 5.53125H18.8281C19.6859 5.53125 20.5086 5.87201 21.1152 6.47858C21.7217 7.08514 22.0625 7.90782 22.0625 8.76562V18.8281C22.0625 19.6859 21.7217 20.5086 21.1152 21.1152C20.5086 21.7217 19.6859 22.0625 18.8281 22.0625Z" fill="#B6B6B6"/>
<path id="Vector_2" d="M7.6875 4.09375H18.2837C18.06 3.46361 17.6469 2.91809 17.101 2.53203C16.555 2.14598 15.903 1.93831 15.2344 1.9375H5.17188C4.31407 1.9375 3.49139 2.27826 2.88483 2.88483C2.27826 3.49139 1.9375 4.31407 1.9375 5.17188V15.2344C1.93831 15.903 2.14598 16.555 2.53203 17.101C2.91809 17.6469 3.46361 18.06 4.09375 18.2837V7.6875C4.09375 6.73438 4.47238 5.82029 5.14634 5.14634C5.82029 4.47238 6.73438 4.09375 7.6875 4.09375Z" fill="#B6B6B6"/>
</g>
</svg>
