<svg width="25" height="25" viewBox="0 0 25 25" fill="none" xmlns="http://www.w3.org/2000/svg">
<g id="crop_1829524 1" clip-path="url(#clip0_150_2017)">
<path id="Vector" d="M11.4583 9.37502C11.4583 10.5255 10.5254 11.4584 9.3749 11.4584C8.22439 11.4584 7.2915 10.5255 7.2915 9.37502C7.2915 8.22451 8.22439 7.29163 9.3749 7.29163C10.5254 7.29163 11.4583 8.22451 11.4583 9.37502Z" fill="#FCFCFC"/>
<path id="Vector_2" d="M23.9584 19.7916H21.875V6.25C21.875 4.52709 20.4729 3.125 18.75 3.125H5.2084V1.0416C5.2084 0.466728 4.74262 0 4.1666 0C3.59058 0 3.125 0.466728 3.125 1.0416V3.125H1.0416C0.465584 3.125 0 3.59173 0 4.1666C0 4.74167 0.465584 5.2084 1.0416 5.2084H3.125V18.75C3.125 20.4729 4.52709 21.875 6.25 21.875H19.7916V23.9584C19.7916 24.5333 20.2574 25 20.8334 25C21.4094 25 21.875 24.5333 21.875 23.9584V21.875H23.9584C24.5344 21.875 25 21.4083 25 20.8334C25 20.2583 24.5344 19.7916 23.9584 19.7916ZM18.75 5.2084C19.3251 5.2084 19.7916 5.67608 19.7916 6.25V13.4792L17.4376 11.125C16.75 10.4364 15.5416 10.4364 14.8542 11.125L9.8959 16.0833L8.58326 14.7709C7.89585 14.0823 6.68755 14.0823 5.99995 14.7709L5.2084 15.5615V5.2084H18.75Z" fill="#FCFCFC"/>
</g>
<defs>
<clipPath id="clip0_150_2017">
<rect width="25" height="25" fill="white"/>
</clipPath>
</defs>
</svg>
