<svg width="44" height="43" viewBox="0 0 44 43" fill="none" xmlns="http://www.w3.org/2000/svg">
<g id="diagonal-arrow_6115242 1" clip-path="url(#clip0_47_2473)">
<path id="Vector" d="M32.6066 10.6066C26.7488 4.74876 17.2512 4.74876 11.3934 10.6066C5.53556 16.4644 5.53556 25.962 11.3934 31.8198C17.2512 37.6776 26.7488 37.6776 32.6066 31.8198C38.4644 25.962 38.4644 16.4644 32.6066 10.6066ZM24.4582 28.447L22.0414 30.8556L14.9317 23.7459C14.6112 23.4254 14.4312 22.9907 14.4312 22.5375C14.4312 22.0842 14.6112 21.6496 14.9317 21.3291C15.2522 21.0086 15.6869 20.8285 16.1401 20.8285C16.5933 20.8285 17.028 21.0086 17.3485 21.3291L20.5433 24.5239L20.5433 13.2758C20.5433 12.8225 20.7234 12.3878 21.0439 12.0673C21.3644 11.7468 21.7991 11.5667 22.2524 11.5667C22.7057 11.5667 23.1405 11.7468 23.461 12.0673C23.7815 12.3878 23.9616 12.8225 23.9616 13.2758V24.1101L26.6474 21.4243C26.9679 21.1038 27.4025 20.9237 27.8558 20.9237C28.309 20.9237 28.7437 21.1038 29.0642 21.4243C29.3847 21.7447 29.5647 22.1794 29.5647 22.6327C29.5647 23.0859 29.3847 23.5206 29.0642 23.8411L24.4582 28.447Z" fill="#757575"/>
</g>
<defs>
<clipPath id="clip0_47_2473">
<rect width="30" height="30" fill="white" transform="translate(22) rotate(45)"/>
</clipPath>
</defs>
</svg>
