<svg width="42" height="40" viewBox="0 0 42 40" fill="none" xmlns="http://www.w3.org/2000/svg">
<g id="Group">
<path id="Vector" d="M24.4238 35.6429L2.84293 19.7677L7.74317 15.5573L11.2901 17.6934L19.597 21.4908L24.4238 35.6429Z" fill="#CC00FF"/>
<path id="Vector_2" d="M36.1964 11.5777L24.4237 35.6434L23.0849 21.0164L27.7492 13.652L30.6325 10.2196L36.1964 11.5777Z" fill="#9100FF"/>
<path id="Vector_3" d="M8.44718 6.11706L12.1316 9.98725L11.2899 17.6931L2.84268 19.7674L8.44718 6.11706Z" fill="#FF66F5"/>
<path id="Vector_4" d="M36.1964 11.577L27.7492 13.6514L23.6819 7.26849L24.9065 2.07533L36.1964 11.577Z" fill="#FF2AD8"/>
<g id="Group_2">
<path id="Vector_5" d="M11.289 17.6932L17.0382 19.7664L19.5186 15.6723L21.7305 11.5263L16.6759 4.09628L11.6668 9.53351L11.289 17.6932Z" fill="#FF66F5"/>
<path id="Vector_6" d="M16.6758 4.0957L19.5185 15.6717L23.2359 17.6564L27.7481 13.6508L24.4515 7.05907L16.6758 4.0957Z" fill="#FF2AD8"/>
</g>
<path id="Vector_7" d="M24.9064 2.07674L27.749 13.6528L16.6768 4.09766L24.9064 2.07674Z" fill="#CC00FF"/>
<path id="Vector_8" d="M16.6759 4.09628L11.289 17.6932L8.44629 6.11719L16.6759 4.09628Z" fill="#FF2AD8"/>
<g id="Group_3">
<path id="Vector_9" d="M11.29 17.6934L24.4237 35.6429L24.53 21.5668L19.5196 15.6724L11.29 17.6934Z" fill="#FF2AD8"/>
<path id="Vector_10" d="M19.5195 15.6719L24.4236 35.6423L27.7491 13.651L19.5195 15.6719Z" fill="#CC00FF"/>
</g>
</g>
</svg>
