<svg width="18" height="18" viewBox="0 0 18 18" fill="none" xmlns="http://www.w3.org/2000/svg">
<g id="Frame">
<g id="Group">
<path id="Vector" d="M9.01472 16.6619L1.41406 7.56016L3.96482 6.26758L5.26397 7.56016L8.43377 10.0693L9.01472 16.6619Z" fill="#FF9600"/>
<path id="Vector_2" d="M16.6163 7.56166L9.01562 16.6634L9.98411 10.2348L12.7664 7.56166L14.368 6.39062L16.6163 7.56166Z" fill="#FF7300"/>
<path id="Vector_3" d="M5.26397 2.28516L6.43916 4.33763L5.26397 7.56108H1.41406L5.26397 2.28516Z" fill="#FFE566"/>
<path id="Vector_4" d="M16.6159 7.56108H12.7659L11.6914 4.38813L12.7659 2.28516L16.6159 7.56108Z" fill="#FFBF2A"/>
<g id="Group_2">
<path id="Vector_5" d="M5.26562 7.56108L7.51806 9.05906L9.01637 7.56108L10.4048 6.01242L9.01637 2.28516L6.28934 4.09358L5.26562 7.56108Z" fill="#FFE566"/>
<path id="Vector_6" d="M9.01562 2.28516V7.56108L10.4041 8.80658L12.7664 7.56108L12.0452 4.3797L9.01562 2.28516Z" fill="#FFBF2A"/>
</g>
<path id="Vector_7" d="M12.7664 2.28516V7.56108L9.01562 2.28516H12.7664Z" fill="#FF9600"/>
<path id="Vector_8" d="M9.01637 2.28516L5.26562 7.56108V2.28516H9.01637Z" fill="#FFBF2A"/>
<g id="Group_3">
<path id="Vector_9" d="M5.26562 7.5625L9.01637 16.6643L10.5479 10.625L9.01637 7.5625H5.26562Z" fill="#FFBF2A"/>
<path id="Vector_10" d="M9.01562 7.5625V16.6643L12.7664 7.5625H9.01562Z" fill="#FF9600"/>
</g>
</g>
</g>
</svg>
