<svg width="16" height="16" viewBox="0 0 16 16" fill="none" xmlns="http://www.w3.org/2000/svg">
<g id="Group">
<path id="Vector" d="M8.01309 15.4994L0 5.90374L2.68918 4.54102L4.05882 5.90374L7.40062 8.549L8.01309 15.4994Z" fill="#BDBDBD"/>
<path id="Vector_2" d="M16.0258 5.90645L8.0127 15.5021L9.03374 8.72468L11.967 5.90645L13.6555 4.67188L16.0258 5.90645Z" fill="#9B9DA2"/>
<path id="Vector_3" d="M4.05882 0.341797L5.29778 2.50565L4.05882 5.90401H0L4.05882 0.341797Z" fill="#F3F3F3"/>
<path id="Vector_4" d="M16.0271 5.90401H11.9683L10.8354 2.55889L11.9683 0.341797L16.0271 5.90401Z" fill="#E7E7E7"/>
<g id="Group_2">
<path id="Vector_5" d="M4.05957 5.90596L6.43423 7.48523L8.01384 5.90596L9.47761 4.27326L8.01384 0.34375L5.13883 2.2503L4.05957 5.90596Z" fill="#F3F3F3"/>
<path id="Vector_6" d="M8.0127 0.34375V5.90596L9.47646 7.21905L11.967 5.90596L11.2066 2.55195L8.0127 0.34375Z" fill="#E7E7E7"/>
</g>
<path id="Vector_7" d="M11.967 0.341797V5.90401L8.0127 0.341797H11.967Z" fill="#BDBDBD"/>
<path id="Vector_8" d="M8.01384 0.341797L4.05957 5.90401V0.341797H8.01384Z" fill="#E7E7E7"/>
<g id="Group_3">
<path id="Vector_9" d="M4.05957 5.90625L8.01384 15.5019L9.62845 9.13496L8.01384 5.90625H4.05957Z" fill="#E7E7E7"/>
<path id="Vector_10" d="M8.0127 5.90625V15.5019L11.967 5.90625H8.0127Z" fill="#BDBDBD"/>
</g>
</g>
</svg>
