<svg xmlns="http://www.w3.org/2000/svg" width="207" height="209" viewBox="0 0 207 209" fill="none">
  <path d="M149.242 161.81L32.5354 135.844L44.9636 109.828L63.2932 112.164L104.051 112.713L149.242 161.81Z" fill="#CC00FF"/>
  <path d="M153.982 42.3437L149.242 161.81L117.438 104.494L123.224 66.0238L128.817 46.8166L153.982 42.3437Z" fill="#9100FF"/>
  <path d="M30.8418 70.0133L52.855 79.1825L63.293 112.164L32.5352 135.844L30.8418 70.0133Z" fill="#FF66F5"/>
  <path d="M153.982 42.3435L123.224 66.0236L95.1235 47.2836L90.7732 23.8731L153.982 42.3435Z" fill="#FF2AD8"/>
  <path d="M63.2891 112.168L90.4982 110.281L93.2547 89.098L94.8216 68.1854L60.8034 46.9474L50.1398 78.1688L63.2891 112.168Z" fill="#FF66F5"/>
  <path d="M60.8037 46.9473L93.255 89.0978L112.008 90.5084L123.221 66.0276L97.8906 45.0469L60.8037 46.9473Z" fill="#FF2AD8"/>
  <path d="M90.7722 23.8752L123.223 66.0257L60.8066 46.9453L90.7722 23.8752Z" fill="#CC00FF"/>
  <path d="M60.8034 46.9474L63.2891 112.168L30.8379 70.0176L60.8034 46.9474Z" fill="#FF2AD8"/>
  <path d="M63.292 112.164L149.241 161.81L124.33 104.141L93.2575 89.0939L63.292 112.164Z" fill="#FF2AD8"/>
  <path d="M93.2578 89.0938L149.241 161.81L123.223 66.0236L93.2578 89.0938Z" fill="#CC00FF"/>
</svg>