<svg width="24" height="24" viewBox="0 0 24 24" fill="none" xmlns="http://www.w3.org/2000/svg">
<g id="dislike_12328781">
<g id="Layer 2">
<path id="Vector" d="M21.686 11.3608L19.9502 4.41943C19.7558 3.64206 19.3071 2.95198 18.6755 2.45886C18.0439 1.96575 17.2656 1.69791 16.4643 1.69791H7.44857C7.1944 1.69791 6.95065 1.79887 6.77092 1.9786C6.5912 2.15832 6.49023 2.40207 6.49023 2.65624V13.2988C6.49023 13.8376 6.64166 14.3656 6.92723 14.8225L10.8902 21.1631C11.1827 21.6311 11.6263 21.9852 12.1474 22.1668C12.6686 22.3485 13.2361 22.3468 13.7561 22.162C14.2762 21.9772 14.7176 21.6204 15.0072 21.1506C15.2969 20.6809 15.4176 20.1263 15.3492 19.5787L14.7315 14.6354H19.0047C19.727 14.6523 20.4276 14.3879 20.9587 13.898C21.293 13.5769 21.5364 13.173 21.6642 12.7274C21.7919 12.2817 21.7995 11.8103 21.686 11.3608Z" fill="#B6B6B6"/>
<path id="Vector_2" d="M4.57324 1.69791H3.61491C3.10658 1.69791 2.61907 1.89984 2.25962 2.25929C1.90018 2.61873 1.69824 3.10624 1.69824 3.61457V11.7604C1.69824 12.2687 1.90018 12.7562 2.25962 13.1157C2.61907 13.4751 3.10658 13.6771 3.61491 13.6771H4.57324C4.95449 13.6771 5.32012 13.5256 5.58971 13.256C5.85929 12.9865 6.01074 12.6208 6.01074 12.2396V3.13541C6.01074 2.75416 5.85929 2.38852 5.58971 2.11894C5.32012 1.84936 4.95449 1.69791 4.57324 1.69791Z" fill="#B6B6B6"/>
</g>
</g>
</svg>
