<svg width="27" height="21" viewBox="0 0 27 21" fill="none" xmlns="http://www.w3.org/2000/svg">
<g id="Group 37073">
<path id="Vector" d="M11.2285 13.288C11.8753 13.7309 12.6267 13.9651 13.4014 13.9651C14.176 13.9651 14.9273 13.7309 15.5742 13.288L26.2283 5.99281C26.2874 5.95234 26.3449 5.91015 26.4014 5.86675V17.8207C26.4014 19.1913 25.3185 20.279 24.0079 20.279H2.79489C1.46046 20.279 0.401419 19.1668 0.401419 17.8207V5.8667C0.457937 5.9102 0.515625 5.9525 0.574886 5.99302L11.2285 13.288Z" fill="#93949A" fill-opacity="0.5"/>
<path id="Vector_2" d="M25.3832 4.69078L14.7291 11.986C14.3258 12.2622 13.8636 12.4003 13.4014 12.4003C12.9392 12.4003 12.4769 12.2622 12.0736 11.986L1.41953 4.69078C0.781973 4.2545 0.401367 3.52431 0.401367 2.73624C0.401367 1.38118 1.47473 0.278809 2.79403 0.278809H24.0087C25.328 0.278861 26.4014 1.38123 26.4014 2.73754C26.4014 3.52431 26.0207 4.2545 25.3832 4.69078Z" fill="#93949A" fill-opacity="0.5"/>
</g>
</svg>
