<svg width="28" height="28" viewBox="0 0 28 28" fill="none" xmlns="http://www.w3.org/2000/svg">
<g id="SVG">
<path id="Vector" d="M27.6846 14.7466C27.6846 13.8579 27.6058 13.0141 27.4708 12.1929H14.7583V17.2666H22.0371C21.7108 18.9316 20.7546 20.3379 19.3371 21.2941V24.6691H23.6796C26.2221 22.3179 27.6846 18.8529 27.6846 14.7466Z" fill="#4285F4"/>
<path id="Vector_2" d="M14.7582 27.9428C18.4032 27.9428 21.452 26.7278 23.6795 24.669L19.337 21.294C18.122 22.104 16.5807 22.599 14.7582 22.599C11.237 22.599 8.25572 20.2253 7.18697 17.019H2.70947V20.4953C4.92572 24.9053 9.48197 27.9428 14.7582 27.9428Z" fill="#34A853"/>
<path id="Vector_3" d="M7.18705 17.0194C6.9058 16.2094 6.75955 15.3431 6.75955 14.4431C6.75955 13.5431 6.91705 12.6769 7.18705 11.8669V8.39062H2.70955C1.78705 10.2131 1.2583 12.2606 1.2583 14.4431C1.2583 16.6256 1.78705 18.6731 2.70955 20.4956L7.18705 17.0194Z" fill="#FBBC05"/>
<path id="Vector_4" d="M14.7582 6.28662C16.7495 6.28662 18.527 6.97287 19.9332 8.31162L23.7807 4.46412C21.452 2.28162 18.4032 0.942871 14.7582 0.942871C9.48197 0.942871 4.92572 3.98037 2.70947 8.39037L7.18697 11.8666C8.25572 8.66037 11.237 6.28662 14.7582 6.28662Z" fill="#EA4335"/>
</g>
</svg>
