<svg width="21" height="21" viewBox="0 0 21 21" fill="none" xmlns="http://www.w3.org/2000/svg">
<g id="Group">
<path id="Vector" d="M5.00089 20.4007L5.00167 20.401C5.07209 20.4296 5.14467 20.4438 5.21875 20.4438C5.36688 20.4438 5.51194 20.3859 5.62125 20.2774L5.6215 20.2771L10.4543 15.4438H16.4688C18.8506 15.4438 20.7875 13.5063 20.7875 11.125V4.875C20.7875 2.49373 18.8506 0.55625 16.4688 0.55625H5.21875C2.83685 0.55625 0.9 2.49373 0.9 4.875V11.125C0.9 13.3139 2.53594 15.1269 4.65 15.4067V19.875C4.65 20.1054 4.78921 20.3126 5.00089 20.4007ZM9.81601 14.4729L9.816 14.4729L5.7875 18.502V14.875C5.7875 14.561 5.53277 14.3062 5.21875 14.3062C3.4649 14.3062 2.0375 12.8789 2.0375 11.125V4.875C2.0375 3.12115 3.4649 1.69375 5.21875 1.69375H16.4688C18.2226 1.69375 19.65 3.12115 19.65 4.875V11.125C19.65 12.8789 18.2226 14.3062 16.4688 14.3062H10.2188C10.0678 14.3062 9.92271 14.3662 9.81601 14.4729Z" fill="white" stroke="white" stroke-width="0.2"/>
<path id="Vector_2" d="M17.6625 11.125C17.6625 9.87296 16.9062 8.80113 15.8302 8.32476C16.1912 7.89956 16.4125 7.35124 16.4125 6.75C16.4125 5.40267 15.3167 4.30625 13.9688 4.30625C12.6208 4.30625 11.525 5.40267 11.525 6.75C11.525 7.35124 11.7463 7.89956 12.1074 8.32477C11.5978 8.55039 11.1624 8.90885 10.8437 9.35877C10.5251 8.90885 10.0897 8.55038 9.58015 8.32476C9.94124 7.89956 10.1625 7.35124 10.1625 6.75C10.1625 5.40267 9.06672 4.30625 7.71875 4.30625C6.37078 4.30625 5.275 5.40267 5.275 6.75C5.275 7.35124 5.49626 7.89956 5.85735 8.32476C4.78128 8.80113 4.025 9.87297 4.025 11.125C4.025 11.439 4.27973 11.6937 4.59375 11.6937C4.90777 11.6937 5.1625 11.439 5.1625 11.125C5.1625 10.0602 6.02839 9.19375 7.09375 9.19375H8.34375C9.40911 9.19375 10.275 10.0602 10.275 11.125C10.275 11.439 10.5297 11.6937 10.8438 11.6937C11.1578 11.6937 11.4125 11.439 11.4125 11.125C11.4125 10.0602 12.2784 9.19375 13.3438 9.19375H14.5938C15.6591 9.19375 16.525 10.0602 16.525 11.125C16.525 11.439 16.7797 11.6937 17.0938 11.6937C17.4078 11.6937 17.6625 11.439 17.6625 11.125ZM7.71875 5.44375C8.43867 5.44375 9.025 6.03008 9.025 6.75C9.025 7.46992 8.43867 8.05625 7.71875 8.05625C6.99883 8.05625 6.4125 7.46992 6.4125 6.75C6.4125 6.03008 6.99883 5.44375 7.71875 5.44375ZM13.9688 5.44375C14.6887 5.44375 15.275 6.03008 15.275 6.75C15.275 7.46992 14.6887 8.05625 13.9688 8.05625C13.2488 8.05625 12.6625 7.46992 12.6625 6.75C12.6625 6.03008 13.2488 5.44375 13.9688 5.44375Z" fill="white" stroke="white" stroke-width="0.2"/>
</g>
</svg>
