<svg width="41" height="40" viewBox="0 0 41 40" fill="none" xmlns="http://www.w3.org/2000/svg">
<g id="Outline / Security / Incognito ">
<path id="Vector" fill-rule="evenodd" clip-rule="evenodd" d="M17.45 5.41797H22.8238C24.6324 5.41794 26.1008 5.41792 27.2822 5.55918C28.5139 5.70647 29.5716 6.01996 30.496 6.74169C31.4204 7.46341 31.981 8.41352 32.4226 9.57271C32.8462 10.6845 33.2023 12.1092 33.641 13.8638L34.4462 17.0846H36.8035C37.4939 17.0846 38.0535 17.6443 38.0535 18.3346C38.0535 19.025 37.4939 19.5846 36.8035 19.5846H33.4964C33.4783 19.585 33.4602 19.585 33.4422 19.5846H6.83157C6.81357 19.585 6.79551 19.585 6.77741 19.5846H3.47021C2.77986 19.5846 2.22021 19.025 2.22021 18.3346C2.22021 17.6443 2.77986 17.0846 3.47021 17.0846H5.82758L6.63279 13.8638C7.07141 12.1092 7.42755 10.6845 7.85112 9.57271C8.29273 8.41352 8.8534 7.46341 9.77777 6.74169C10.7021 6.01996 11.7599 5.70647 12.9915 5.55918C14.1729 5.41792 15.6414 5.41794 17.45 5.41797ZM8.40452 17.0846H31.8692L31.2345 14.5458C30.7724 12.6974 30.4506 11.4186 30.0864 10.4627C29.7342 9.53827 29.3894 9.04945 28.9575 8.7122C28.5255 8.37495 27.9677 8.15896 26.9854 8.0415C25.9697 7.92005 24.6511 7.91797 22.7458 7.91797H17.528C15.6227 7.91797 14.304 7.92005 13.2884 8.0415C12.3061 8.15896 11.7482 8.37495 11.3163 8.7122C10.8844 9.04945 10.5395 9.53827 10.1873 10.4627C9.82317 11.4186 9.50134 12.6974 9.03923 14.5458L8.40452 17.0846ZM10.9702 24.5846C8.43891 24.5846 6.38688 26.6367 6.38688 29.168C6.38688 31.6993 8.43891 33.7513 10.9702 33.7513C13.5015 33.7513 15.5535 31.6993 15.5535 29.168C15.5535 26.6367 13.5015 24.5846 10.9702 24.5846ZM3.88688 29.168C3.88688 25.256 7.0582 22.0846 10.9702 22.0846C14.2334 22.0846 16.9811 24.2912 17.8029 27.2936C19.3 26.6908 20.9738 26.6908 22.4709 27.2936C23.2926 24.2912 26.0404 22.0846 29.3035 22.0846C33.2156 22.0846 36.3869 25.256 36.3869 29.168C36.3869 33.08 33.2156 36.2513 29.3035 36.2513C25.6601 36.2513 22.6592 33.5005 22.2643 29.9625L21.8139 29.7374C20.7582 29.2095 19.5156 29.2095 18.4598 29.7374L18.0095 29.9625C17.6145 33.5005 14.6136 36.2513 10.9702 36.2513C7.0582 36.2513 3.88688 33.08 3.88688 29.168ZM29.3035 24.5846C26.7722 24.5846 24.7202 26.6367 24.7202 29.168C24.7202 31.6993 26.7722 33.7513 29.3035 33.7513C31.8349 33.7513 33.8869 31.6993 33.8869 29.168C33.8869 26.6367 31.8349 24.5846 29.3035 24.5846Z" fill="white"/>
</g>
</svg>
