<svg width="20" height="21" viewBox="0 0 20 21" fill="none" xmlns="http://www.w3.org/2000/svg">
<g id="instant_shadows.svg">
<path id="Vector" fill-rule="evenodd" clip-rule="evenodd" d="M1.66675 4.62668C1.66675 3.24597 2.78604 2.12668 4.16675 2.12668H13.3334C14.7142 2.12668 15.8334 3.24597 15.8334 4.62668V9.03743L16.7887 8.08205C16.9515 7.91933 17.2153 7.91933 17.3781 8.08205C17.5407 8.24477 17.5407 8.50859 17.3781 8.6713L15.8334 10.2159V12.3708L18.4554 9.74868C18.6182 9.58601 18.882 9.58601 19.0447 9.74868C19.2074 9.91143 19.2074 10.1753 19.0447 10.338L15.8334 13.5493V13.7933C15.8334 15.1741 14.7142 16.2933 13.3334 16.2933H13.0893L9.87808 19.5047C9.71533 19.6673 9.4515 19.6673 9.28875 19.5047C9.12608 19.3419 9.12608 19.0781 9.28875 18.9153L11.9108 16.2933H9.756L8.21137 17.838C8.04866 18.0007 7.78484 18.0007 7.62212 17.838C7.4594 17.6753 7.4594 17.4114 7.62212 17.2487L8.5775 16.2933H4.16675C2.78604 16.2933 1.66675 15.1741 1.66675 13.7933V4.62668ZM4.16675 3.79335H13.3334C13.7937 3.79335 14.1667 4.16645 14.1667 4.62668V13.7933C14.1667 14.2536 13.7937 14.6267 13.3334 14.6267H4.16675C3.70651 14.6267 3.33341 14.2536 3.33341 13.7933V4.62668C3.33341 4.16645 3.70651 3.79335 4.16675 3.79335Z" fill="#FCFCFC"/>
<path id="Vector_2" d="M19.0447 13.082C19.2073 13.2448 19.2073 13.5086 19.0447 13.6714L13.2113 19.5047C13.0486 19.6674 12.7848 19.6674 12.622 19.5047C12.4593 19.3419 12.4593 19.0781 12.622 18.9154L18.4553 13.082C18.6181 12.9194 18.8819 12.9194 19.0447 13.082Z" fill="#FCFCFC"/>
<path id="Vector_3" d="M19.0446 17.0047C19.2073 16.8419 19.2073 16.5781 19.0446 16.4154C18.8818 16.2527 18.618 16.2527 18.4553 16.4154L15.9553 18.9154C15.7926 19.0781 15.7926 19.3419 15.9553 19.5047C16.118 19.6674 16.3818 19.6674 16.5446 19.5047L19.0446 17.0047Z" fill="#FCFCFC"/>
</g>
</svg>
