<svg width="25" height="24" viewBox="0 0 25 24" fill="none" xmlns="http://www.w3.org/2000/svg">
<g id="social-media 1">
<g id="Group">
<path id="Vector" d="M12.1387 8.33203C10.1147 8.33203 8.4707 9.97603 8.4707 12C8.4707 14.024 10.1147 15.672 12.1387 15.672C14.1627 15.672 15.8107 14.024 15.8107 12C15.8107 9.97603 14.1627 8.33203 12.1387 8.33203Z" fill="#FCFCFC"/>
<path id="Vector_2" d="M17.6786 2H6.60658C4.14658 2 2.14258 4.004 2.14258 6.464V17.536C2.14258 20 4.14658 22 6.60658 22H17.6786C20.1426 22 22.1426 20 22.1426 17.536V6.464C22.1426 4.004 20.1426 2 17.6786 2ZM12.1426 18.48C8.57058 18.48 5.66258 15.572 5.66258 12C5.66258 8.428 8.57058 5.524 12.1426 5.524C15.7146 5.524 18.6226 8.428 18.6226 12C18.6226 15.572 15.7146 18.48 12.1426 18.48ZM18.7586 6.7C18.0026 6.7 17.3866 6.088 17.3866 5.332C17.3866 4.576 18.0026 3.96 18.7586 3.96C19.5146 3.96 20.1306 4.576 20.1306 5.332C20.1306 6.088 19.5146 6.7 18.7586 6.7Z" fill="#FCFCFC"/>
</g>
</g>
</svg>
