<svg width="20" height="21" viewBox="0 0 20 21" fill="none" xmlns="http://www.w3.org/2000/svg">
<g id="instant_backgrounds.svg">
<path id="Vector" fill-rule="evenodd" clip-rule="evenodd" d="M10.4623 1.42328C10.1824 1.23667 9.81775 1.23667 9.53783 1.42328L2.03783 6.42328C1.806 6.57784 1.66675 6.83803 1.66675 7.11666C1.66675 7.39528 1.806 7.65548 2.03783 7.81003L4.74777 9.61666L2.03783 11.4233C1.806 11.5778 1.66675 11.8381 1.66675 12.1167C1.66675 12.3953 1.806 12.6555 2.03783 12.8101L9.53783 17.8101C9.81775 17.9967 10.1824 17.9967 10.4623 17.8101L17.9623 12.8101C18.1942 12.6555 18.3334 12.3953 18.3334 12.1167C18.3334 11.8381 18.1942 11.5778 17.9623 11.4233L15.2524 9.61666L17.9623 7.81003C18.1942 7.65548 18.3334 7.39528 18.3334 7.11666C18.3334 6.83803 18.1942 6.57784 17.9623 6.42328L10.4623 1.42328ZM13.7501 10.6182L10.4623 12.8101C10.2125 12.9766 9.89508 12.9945 9.63066 12.8637L7.37681 14.3662L8.29232 14.9766L14.29 10.9782L13.7501 10.6182ZM10.0001 16.1152L9.0435 15.4774L15.0412 11.4789L15.9977 12.1167L10.0001 16.1152ZM6.62566 13.8655L8.87333 12.3671L7.95784 11.7567L5.71015 13.2552L6.62566 13.8655ZM6.25008 10.6182L7.20668 11.2559L4.95899 12.7544L4.0024 12.1167L6.25008 10.6182ZM10.0001 11.1152L4.0024 7.11666L10.0001 3.1182L15.9977 7.11666L10.0001 11.1152Z" fill="#FCFCFC"/>
<path id="Vector_2" d="M3.53643 14.7636C3.47197 14.5677 3.19487 14.5677 3.1304 14.7636L2.83835 15.6518C2.81698 15.7163 2.76641 15.7669 2.70194 15.7882L1.81367 16.0803C1.61778 16.1447 1.61778 16.4219 1.81367 16.4863L2.70194 16.7784C2.76641 16.7997 2.81698 16.8503 2.83835 16.9148L3.1304 17.8031C3.19487 17.999 3.47197 17.999 3.53643 17.8031L3.82848 16.9148C3.84985 16.8503 3.90043 16.7997 3.96489 16.7784L4.85317 16.4863C5.04906 16.4219 5.04906 16.1447 4.85317 16.0803L3.96489 15.7882C3.90043 15.7669 3.84985 15.7163 3.82848 15.6518L3.53643 14.7636Z" fill="#FCFCFC"/>
<path id="Vector_3" d="M12.7645 17.2268C12.8129 17.0799 13.0207 17.0799 13.069 17.2268L13.2881 17.8931C13.3041 17.9414 13.342 17.9793 13.3904 17.9953L14.0566 18.2144C14.2035 18.2627 14.2035 18.4706 14.0566 18.5189L13.3904 18.738C13.342 18.754 13.3041 18.7919 13.2881 18.8402L13.069 19.5065C13.0207 19.6534 12.8129 19.6534 12.7645 19.5065L12.5454 18.8402C12.5294 18.7919 12.4915 18.754 12.4432 18.738L11.7769 18.5189C11.63 18.4706 11.63 18.2627 11.7769 18.2144L12.4432 17.9953C12.4915 17.9793 12.5294 17.9414 12.5454 17.8931L12.7645 17.2268Z" fill="#FCFCFC"/>
<path id="Vector_4" d="M17.7029 14.7636C17.6385 14.5677 17.3614 14.5677 17.2969 14.7636L17.0049 15.6518C16.9835 15.7163 16.9329 15.7669 16.8684 15.7882L15.9802 16.0803C15.7843 16.1447 15.7843 16.4219 15.9802 16.4863L16.8684 16.7784C16.9329 16.7997 16.9835 16.8503 17.0049 16.9148L17.2969 17.8031C17.3614 17.999 17.6385 17.999 17.7029 17.8031L17.995 16.9148C18.0164 16.8503 18.0669 16.7997 18.1314 16.7784L19.0197 16.4863C19.2156 16.4219 19.2156 16.1447 19.0197 16.0803L18.1314 15.7882C18.0669 15.7669 18.0164 15.7163 17.995 15.6518L17.7029 14.7636Z" fill="#FCFCFC"/>
</g>
</svg>
