<svg width="18" height="18" viewBox="0 0 18 18" fill="none" xmlns="http://www.w3.org/2000/svg">
<g id="ja.d2bd966f" clip-path="url(#clip0_852_13258)">
<path id="Vector" d="M16.5 0.0463867H1.5C0.671573 0.0463867 0 0.691097 0 1.48639V15.8864C0 16.6817 0.671573 17.3264 1.5 17.3264H16.5C17.3284 17.3264 18 16.6817 18 15.8864V1.48639C18 0.691097 17.3284 0.0463867 16.5 0.0463867Z" fill="#F5F5F5"/>
<path id="Vector_2" d="M12.75 8.68642C12.75 6.69822 11.0711 5.08643 9 5.08643C6.92897 5.08643 5.25 6.69822 5.25 8.68642C5.25 10.6746 6.92897 12.2864 9 12.2864C11.0711 12.2864 12.75 10.6746 12.75 8.68642Z" fill="#FF4B55"/>
</g>
<defs>
<clipPath id="clip0_852_13258">
<rect width="18" height="18" fill="white"/>
</clipPath>
</defs>
</svg>
