<svg width="20" height="20" viewBox="0 0 20 20" fill="none" xmlns="http://www.w3.org/2000/svg">
<path id="Vector" fill-rule="evenodd" clip-rule="evenodd" d="M10 20C18.235 20 20 18.235 20 10C20 1.765 18.235 0 10 0C1.765 0 0 1.765 0 10C0 18.235 1.765 20 10 20ZM11.0774 13.9226L7.74408 10.5892C7.41867 10.2638 7.41867 9.73617 7.74408 9.41075L11.0774 6.07741C11.4028 5.75198 11.9305 5.75198 12.2559 6.07741C12.5814 6.40285 12.5814 6.93048 12.2559 7.25593L9.51183 10L12.2559 12.7441C12.5814 13.0695 12.5814 13.5972 12.2559 13.9226C11.9305 14.248 11.4028 14.248 11.0774 13.9226Z" fill="#FCFCFC"/>
</svg>
