<svg width="19" height="19" viewBox="0 0 19 19" fill="none" xmlns="http://www.w3.org/2000/svg">
<g id="lock_10264048 1" clip-path="url(#clip0_1111_2108)">
<g id="Layer_2_00000085225303302752061740000000849677868215068819_">
<g id="lock">
<path id="Vector" d="M14.9548 7.93829V5.45567C14.9548 2.44239 12.513 0.000595093 9.49975 0.000595093C6.48647 0.000595093 4.04468 2.44239 4.04468 5.45567V7.93829C2.79038 8.25001 1.91089 9.37442 1.91089 10.6695V16.1914C1.91089 17.7463 3.1689 19.0043 4.72378 19.0043H14.2832C15.838 19.0043 17.096 17.7463 17.096 16.1914V10.6658C17.0923 9.37442 16.2091 8.2463 14.9548 7.93829ZM9.49975 2.46837C11.1474 2.46837 12.4871 3.80802 12.4871 5.45567V7.85294H6.51245V5.45567C6.51245 3.80802 7.8521 2.46837 9.49975 2.46837Z" fill="#FFBF2A"/>
</g>
</g>
</g>
<defs>
<clipPath id="clip0_1111_2108">
<rect width="19" height="19" fill="white" transform="translate(-0.000244141 0.000595093)"/>
</clipPath>
</defs>
</svg>
