<svg xmlns="http://www.w3.org/2000/svg" width="336" height="495" viewBox="0 0 336 495" fill="none">
  <path d="M214.624 467.792L213.709 467.388L214.624 467.792ZM432.64 368.156L433.102 369.043L432.64 368.156ZM511.636 247.609L512.275 248.377L511.636 247.609ZM652.588 164.916L653.588 164.943L652.588 164.916ZM351.826 -57.9159L351.626 -58.8958L351.826 -57.9159ZM187.051 48.9111L186.172 48.4358L187.051 48.9111ZM210.115 115.325L209.243 114.835L210.115 115.325ZM1.41286 211.263L0.664585 199.741L11.0177 204.854L1.41286 211.263ZM285.347 563.499C284.629 563.92 283.621 564.146 282.485 564.254L282.296 562.262C283.343 562.163 283.999 561.971 284.335 561.774L285.347 563.499ZM277.194 564.15C275.626 563.996 273.888 563.746 272.015 563.396L272.383 561.43C274.207 561.771 275.887 562.012 277.389 562.159L277.194 564.15ZM266.986 562.288C265.38 561.884 263.71 561.418 261.991 560.888L262.581 558.977C264.266 559.496 265.903 559.953 267.474 560.348L266.986 562.288ZM257.085 559.242C255.505 558.668 253.899 558.044 252.279 557.368L253.049 555.522C254.64 556.186 256.216 556.799 257.767 557.361L257.085 559.242ZM247.56 555.262C246.023 554.531 244.482 553.752 242.947 552.925L243.896 551.164C245.4 551.975 246.911 552.739 248.419 553.456L247.56 555.262ZM238.458 550.35C236.994 549.457 235.543 548.517 234.115 547.529L235.252 545.884C236.648 546.849 238.066 547.768 239.499 548.642L238.458 550.35ZM229.945 544.453C228.59 543.387 227.265 542.274 225.978 541.111L227.318 539.627C228.571 540.757 229.861 541.842 231.182 542.882L229.945 544.453ZM222.253 537.494C221.058 536.245 219.908 534.946 218.812 533.597L220.363 532.336C221.425 533.641 222.539 534.9 223.698 536.112L222.253 537.494ZM215.704 529.424C214.734 527.994 213.823 526.515 212.979 524.985L214.73 524.019C215.543 525.493 216.422 526.92 217.359 528.301L215.704 529.424ZM210.684 520.305C210.003 518.725 209.392 517.097 208.858 515.42L210.764 514.814C211.277 516.426 211.865 517.992 212.521 519.513L210.684 520.305ZM207.526 510.378C207.172 508.704 206.893 506.988 206.696 505.227L208.683 505.004C208.874 506.701 209.142 508.353 209.483 509.963L207.526 510.378ZM206.356 500.019C206.323 498.327 206.363 496.599 206.48 494.833L208.476 494.966C208.362 496.675 208.324 498.346 208.355 499.98L206.356 500.019ZM207.029 489.686C207.272 488.021 207.582 486.324 207.962 484.596L209.915 485.026C209.545 486.708 209.244 488.358 209.008 489.975L207.029 489.686ZM209.243 479.567C209.714 477.936 210.246 476.278 210.841 474.595L212.727 475.261C212.144 476.909 211.625 478.529 211.165 480.122L209.243 479.567ZM212.67 469.823C213.002 469.017 213.349 468.205 213.709 467.388L215.539 468.196C215.185 468.998 214.845 469.795 214.519 470.585L212.67 469.823ZM213.709 467.388C214.058 466.597 214.41 465.819 214.764 465.054L216.579 465.892C216.23 466.648 215.884 467.415 215.539 468.196L213.709 467.388ZM216.916 460.605C217.696 459.064 218.489 457.578 219.293 456.145L221.037 457.123C220.247 458.532 219.468 459.993 218.7 461.509L216.916 460.605ZM221.846 451.834C222.75 450.39 223.668 449.004 224.603 447.674L226.239 448.824C225.326 450.124 224.427 451.48 223.542 452.895L221.846 451.834ZM227.598 443.669C228.667 442.325 229.757 441.046 230.869 439.826L232.347 441.174C231.266 442.36 230.205 443.605 229.162 444.915L227.598 443.669ZM234.39 436.226C235.622 435.055 236.879 433.946 238.162 432.896L239.429 434.444C238.185 435.462 236.965 436.538 235.769 437.676L234.39 436.226ZM242.172 429.859C243.551 428.894 244.958 427.986 246.395 427.129L247.419 428.846C246.024 429.679 244.657 430.561 243.319 431.497L242.172 429.859ZM250.796 424.704C252.281 423.95 253.795 423.241 255.34 422.571L256.136 424.406C254.626 425.061 253.148 425.753 251.702 426.488L250.796 424.704ZM259.994 420.702C261.543 420.126 263.122 419.581 264.73 419.062L265.344 420.966C263.761 421.476 262.211 422.011 260.692 422.576L259.994 420.702ZM269.517 417.618C271.092 417.172 272.695 416.746 274.327 416.334L274.816 418.273C273.201 418.681 271.616 419.102 270.061 419.542L269.517 417.618ZM279.165 415.173C280.758 414.808 282.378 414.452 284.026 414.103L284.441 416.059C282.802 416.407 281.193 416.76 279.611 417.122L279.165 415.173ZM288.911 413.097C290.512 412.775 292.138 412.457 293.79 412.137L294.17 414.101C292.521 414.42 290.9 414.738 289.304 415.058L288.911 413.097ZM298.647 411.207C300.248 410.902 301.876 410.594 303.525 410.281L303.898 412.246C302.247 412.559 300.623 412.867 299.02 413.172L298.647 411.207ZM308.428 409.344C310.017 409.038 311.628 408.726 313.26 408.404L313.647 410.366C312.011 410.689 310.397 411.002 308.806 411.308L308.428 409.344ZM318.123 407.43C319.726 407.104 321.35 406.767 322.995 406.419L323.41 408.376C321.759 408.725 320.13 409.063 318.522 409.39L318.123 407.43ZM327.807 405.379C329.406 405.026 331.025 404.66 332.664 404.281L333.114 406.23C331.469 406.61 329.844 406.977 328.238 407.332L327.807 405.379ZM337.461 403.145C339.046 402.761 340.649 402.363 342.27 401.95L342.763 403.888C341.135 404.303 339.524 404.702 337.932 405.089L337.461 403.145ZM347.066 400.7C348.636 400.28 350.223 399.847 351.827 399.397L352.366 401.323C350.755 401.775 349.16 402.211 347.582 402.632L347.066 400.7ZM356.606 398.027C358.163 397.571 359.735 397.099 361.323 396.611L361.91 398.523C360.314 399.013 358.734 399.487 357.169 399.946L356.606 398.027ZM366.07 395.121C367.615 394.625 369.174 394.114 370.748 393.587L371.383 395.483C369.801 396.013 368.234 396.527 366.681 397.025L366.07 395.121ZM375.45 391.979C376.986 391.443 378.535 390.892 380.098 390.324L380.78 392.204C379.21 392.774 377.653 393.328 376.109 393.867L375.45 391.979ZM384.743 388.604C386.273 388.027 387.816 387.434 389.372 386.825L390.101 388.687C388.537 389.299 386.987 389.895 385.449 390.475L384.743 388.604ZM393.949 385C395.478 384.38 397.019 383.745 398.572 383.093L399.346 384.937C397.786 385.592 396.237 386.231 394.701 386.854L393.949 385ZM403.073 381.172C404.585 380.517 406.108 379.846 407.643 379.159L408.46 380.985C406.918 381.675 405.387 382.349 403.869 383.007L403.073 381.172ZM412.122 377.124C413.605 376.441 415.098 375.742 416.602 375.028L417.46 376.835C415.949 377.552 414.449 378.254 412.96 378.94L412.122 377.124ZM421.108 372.858C422.559 372.15 424.02 371.427 425.491 370.689L426.388 372.477C424.911 373.218 423.443 373.944 421.986 374.655L421.108 372.858ZM429.934 368.432C430.68 368.048 431.427 367.661 432.178 367.269L433.102 369.043C432.349 369.436 431.598 369.825 430.849 370.21L429.934 368.432ZM432.178 367.269C432.92 366.883 433.657 366.495 434.389 366.107L435.325 367.875C434.589 368.265 433.848 368.654 433.102 369.043L432.178 367.269ZM438.728 363.773C440.156 362.993 441.565 362.211 442.955 361.427L443.938 363.169C442.539 363.957 441.122 364.744 439.687 365.528L438.728 363.773ZM447.242 358.971C448.666 358.142 450.069 357.311 451.452 356.479L452.483 358.193C451.092 359.03 449.68 359.866 448.249 360.699L447.242 358.971ZM455.592 353.947C457.007 353.068 458.399 352.187 459.77 351.305L460.852 352.987C459.473 353.875 458.071 354.761 456.648 355.646L455.592 353.947ZM463.818 348.656C465.204 347.734 466.566 346.811 467.905 345.887L469.04 347.534C467.692 348.464 466.321 349.393 464.927 350.321L463.818 348.656ZM471.894 343.086C473.235 342.126 474.552 341.167 475.845 340.207L477.037 341.813C475.735 342.779 474.408 343.746 473.057 344.712L471.894 343.086ZM479.754 337.249C481.053 336.246 482.327 335.245 483.574 334.244L484.826 335.804C483.568 336.813 482.285 337.822 480.976 338.832L479.754 337.249ZM487.38 331.127C488.637 330.076 489.866 329.027 491.068 327.979L492.382 329.486C491.17 330.543 489.93 331.602 488.663 332.662L487.38 331.127ZM494.742 324.703C495.955 323.597 497.138 322.493 498.291 321.393L499.672 322.84C498.508 323.951 497.314 325.065 496.089 326.181L494.742 324.703ZM501.801 317.962C502.967 316.793 504.099 315.629 505.198 314.47L506.65 315.846C505.539 317.018 504.395 318.194 503.217 319.374L501.801 317.962ZM508.505 310.889C509.617 309.651 510.691 308.421 511.727 307.198L513.253 308.491C512.204 309.729 511.117 310.974 509.993 312.226L508.505 310.889ZM514.79 303.473C515.835 302.163 516.836 300.862 517.796 299.573L519.4 300.767C518.427 302.074 517.412 303.392 516.354 304.72L514.79 303.473ZM520.637 295.615C521.573 294.26 522.462 292.92 523.305 291.596L524.993 292.67C524.136 294.016 523.232 295.377 522.282 296.752L520.637 295.615ZM525.851 287.41C526.689 285.962 527.471 284.537 528.198 283.135L529.974 284.056C529.231 285.486 528.434 286.939 527.581 288.412L525.851 287.41ZM530.324 278.773C531.016 277.252 531.642 275.765 532.203 274.313L534.068 275.034C533.493 276.523 532.852 278.047 532.145 279.601L530.324 278.773ZM533.794 269.75C534.293 268.14 534.707 266.584 535.04 265.085L536.993 265.52C536.647 267.074 536.219 268.683 535.704 270.342L533.794 269.75ZM535.854 260.34C536.052 258.652 536.133 257.062 536.107 255.579L538.106 255.543C538.135 257.124 538.048 258.804 537.841 260.573L535.854 260.34ZM535.605 250.92C535.25 249.254 534.719 247.81 534.04 246.6L535.785 245.622C536.577 247.034 537.172 248.672 537.561 250.503L535.605 250.92ZM531.108 243.324C529.93 242.533 528.553 242.057 526.987 241.94L527.136 239.946C529.028 240.087 530.741 240.669 532.222 241.663L531.108 243.324ZM522.513 242.473C521.161 242.862 519.718 243.46 518.195 244.286L517.241 242.529C518.873 241.643 520.45 240.985 521.96 240.551L522.513 242.473ZM514.212 246.853C513.576 247.325 512.93 247.833 512.275 248.377L510.996 246.84C511.678 246.273 512.353 245.742 513.02 245.247L514.212 246.853ZM512.275 248.377C511.661 248.889 511.183 249.439 510.826 250.02L509.123 248.971C509.603 248.191 510.229 247.478 510.996 246.84L512.275 248.377ZM510.007 254.151C510.161 255.484 510.644 256.951 511.457 258.518L509.682 259.439C508.788 257.716 508.209 256.014 508.02 254.38L510.007 254.151ZM514.083 262.504C515.025 263.695 516.115 264.906 517.344 266.12L515.938 267.542C514.659 266.278 513.512 265.007 512.514 263.745L514.083 262.504ZM520.988 269.399C522.209 270.405 523.515 271.403 524.9 272.383L523.744 274.015C522.321 273.008 520.976 271.981 519.716 270.942L520.988 269.399ZM529.018 275.103C530.391 275.949 531.822 276.775 533.304 277.574L532.355 279.334C530.84 278.518 529.375 277.673 527.968 276.805L529.018 275.103ZM537.716 279.795C539.18 280.483 540.684 281.142 542.223 281.767L541.47 283.62C539.899 282.982 538.362 282.309 536.865 281.605L537.716 279.795ZM546.844 283.502C548.389 284.036 549.962 284.533 551.558 284.99L551.008 286.913C549.377 286.446 547.769 285.938 546.191 285.393L546.844 283.502ZM556.339 286.215C557.933 286.576 559.545 286.895 561.171 287.167L560.842 289.139C559.176 288.861 557.527 288.535 555.897 288.166L556.339 286.215ZM566.055 287.833C567.685 288.005 569.325 288.128 570.972 288.196L570.888 290.195C569.198 290.124 567.516 289.998 565.845 289.822L566.055 287.833ZM575.888 288.24C577.521 288.199 579.157 288.102 580.793 287.946L580.983 289.937C579.299 290.098 577.616 290.197 575.937 290.239L575.888 288.24ZM585.667 287.3C587.273 287.026 588.876 286.691 590.471 286.291L590.958 288.231C589.312 288.644 587.659 288.99 586.004 289.272L585.667 287.3ZM595.17 284.913C596.709 284.394 598.239 283.809 599.756 283.157L600.546 284.994C598.979 285.668 597.398 286.272 595.808 286.808L595.17 284.913ZM604.178 281.036C605.599 280.282 607.006 279.462 608.396 278.574L609.473 280.259C608.037 281.176 606.584 282.023 605.116 282.802L604.178 281.036ZM612.443 275.754C613.719 274.787 614.979 273.757 616.219 272.66L617.544 274.159C616.266 275.289 614.967 276.351 613.65 277.348L612.443 275.754ZM619.775 269.279C620.905 268.124 622.016 266.909 623.106 265.631L624.627 266.929C623.508 268.241 622.366 269.49 621.204 270.678L619.775 269.279ZM626.152 261.82C627.128 260.518 628.085 259.16 629.021 257.744L630.689 258.846C629.732 260.295 628.753 261.686 627.752 263.02L626.152 261.82ZM631.589 253.617C632.414 252.21 633.22 250.752 634.006 249.242L635.78 250.165C634.979 251.705 634.157 253.192 633.314 254.629L631.589 253.617ZM636.156 244.869C636.84 243.396 637.506 241.878 638.153 240.314L640.001 241.079C639.344 242.668 638.666 244.212 637.97 245.712L636.156 244.869ZM639.952 235.714C640.509 234.208 641.049 232.662 641.572 231.077L643.471 231.704C642.941 233.311 642.393 234.878 641.829 236.407L639.952 235.714ZM643.08 226.23C643.524 224.715 643.953 223.167 644.366 221.585L646.301 222.091C645.883 223.692 645.448 225.259 644.999 226.792L643.08 226.23ZM645.561 216.736C645.931 215.138 646.286 213.508 646.626 211.844L648.586 212.245C648.242 213.925 647.883 215.572 647.509 217.188L645.561 216.736ZM647.543 207.07C647.834 205.449 648.112 203.799 648.375 202.118L650.351 202.428C650.085 204.123 649.805 205.788 649.511 207.424L647.543 207.07ZM649.098 197.163C649.311 195.581 649.513 193.974 649.702 192.342L651.689 192.573C651.498 194.217 651.295 195.836 651.08 197.431L649.098 197.163ZM650.231 187.37C650.394 185.701 650.543 184.007 650.68 182.287L652.674 182.445C652.536 184.177 652.385 185.882 652.222 187.563L650.231 187.37ZM651.024 177.481C651.127 175.857 651.22 174.212 651.301 172.544L653.299 172.641C653.217 174.319 653.124 175.974 653.02 177.608L651.024 177.481ZM651.51 167.474C651.539 166.618 651.565 165.757 651.588 164.889L653.588 164.943C653.564 165.815 653.538 166.681 653.509 167.542L651.51 167.474ZM651.588 164.889C651.611 164.03 651.631 163.174 651.649 162.32L653.648 162.36C653.631 163.219 653.611 164.079 653.588 164.943L651.588 164.889ZM651.715 157.232C651.726 155.546 651.724 153.872 651.712 152.208L653.711 152.192C653.725 153.865 653.726 155.549 653.715 157.244L651.715 157.232ZM651.638 147.249C651.6 145.54 651.55 143.842 651.487 142.155L653.486 142.081C653.549 143.778 653.599 145.485 653.637 147.205L651.638 147.249ZM651.261 137.102C651.173 135.429 651.072 133.768 650.96 132.119L652.955 131.983C653.068 133.642 653.169 135.314 653.258 136.997L651.261 137.102ZM650.577 127.116C650.433 125.416 650.276 123.729 650.106 122.054L652.095 121.852C652.267 123.538 652.425 125.236 652.57 126.947L650.577 127.116ZM649.555 117.068C649.358 115.413 649.147 113.77 648.924 112.14L650.905 111.868C651.13 113.51 651.342 115.164 651.541 116.832L649.555 117.068ZM648.184 107.095C647.924 105.427 647.65 103.772 647.362 102.131L649.332 101.786C649.622 103.439 649.898 105.106 650.16 106.786L648.184 107.095ZM646.457 97.2495C646.13 95.5746 645.788 93.9143 645.432 92.2684L647.387 91.8454C647.746 93.5045 648.09 95.1781 648.42 96.8661L646.457 97.2495ZM644.316 87.3569C643.93 85.7343 643.53 84.1262 643.115 82.5325L645.05 82.0288C645.469 83.636 645.873 85.2577 646.262 86.8938L644.316 87.3569ZM641.784 77.6378C641.323 76.0133 640.847 74.4042 640.356 72.8105L642.267 72.2217C642.762 73.8296 643.243 75.453 643.708 77.0918L641.784 77.6378ZM638.838 68.0757C638.301 66.4614 637.747 64.8634 637.179 63.2816L639.061 62.6049C639.635 64.2016 640.193 65.8145 640.736 67.4438L638.838 68.0757ZM635.422 58.5734C634.819 57.0157 634.201 55.4744 633.568 53.9494L635.415 53.1825C636.055 54.7226 636.679 56.279 637.287 57.8518L635.422 58.5734ZM631.566 49.2937C630.883 47.759 630.184 46.2414 629.469 44.7408L631.275 43.881C631.997 45.3971 632.703 46.9302 633.393 48.4804L631.566 49.2937ZM627.258 40.2476C626.491 38.7404 625.709 37.2511 624.91 35.7795L626.668 34.8257C627.475 36.313 628.266 37.8181 629.041 39.3412L627.258 40.2476ZM622.468 31.4179C621.625 29.9588 620.766 28.518 619.891 27.0953L621.594 26.0476C622.479 27.4859 623.347 28.9424 624.2 30.4172L622.468 31.4179ZM617.198 22.8497C616.283 21.4512 615.353 20.0709 614.407 18.7088L616.049 17.568C617.006 18.9453 617.947 20.341 618.872 21.7551L617.198 22.8497ZM611.469 14.6053C610.475 13.2562 609.464 11.9258 608.437 10.6141L610.013 9.38168C611.051 10.7084 612.073 12.0538 613.079 13.4182L611.469 14.6053ZM605.289 6.70602C604.216 5.41266 603.127 4.13833 602.023 2.88291L603.525 1.56218C604.642 2.83199 605.743 4.12089 606.828 5.42905L605.289 6.70602ZM598.665 -0.826749C597.519 -2.05711 596.358 -3.26829 595.181 -4.46043L596.605 -5.8653C597.795 -4.65952 598.97 -3.43446 600.129 -2.18999L598.665 -0.826749ZM591.606 -7.98071C590.396 -9.13882 589.17 -10.2779 587.931 -11.398L589.271 -12.882C590.525 -11.7492 591.764 -10.5971 592.989 -9.42581L591.606 -7.98071ZM584.155 -14.713C582.882 -15.799 581.595 -16.8661 580.294 -17.9144L581.549 -19.4718C582.864 -18.4118 584.166 -17.3327 585.453 -16.2345L584.155 -14.713ZM576.338 -21.012C575.005 -22.0257 573.659 -23.0206 572.299 -23.9969L573.466 -25.6215C574.84 -24.6345 576.201 -23.6287 577.548 -22.6038L576.338 -21.012ZM568.181 -26.8695C566.795 -27.8083 565.397 -28.7286 563.986 -29.6305L565.063 -31.3157C566.489 -30.4042 567.902 -29.4741 569.303 -28.5252L568.181 -26.8695ZM559.715 -32.2808C558.283 -33.1434 556.839 -33.9878 555.383 -34.8142L556.37 -36.5536C557.841 -35.7187 559.3 -34.8655 560.747 -33.994L559.715 -32.2808ZM550.979 -37.2395C549.504 -38.0275 548.017 -38.7977 546.519 -39.5503L547.417 -41.3374C548.93 -40.5774 550.431 -39.7995 551.921 -39.0035L550.979 -37.2395ZM542.003 -41.75C540.488 -42.4654 538.962 -43.1634 537.425 -43.844L538.235 -45.6727C539.786 -44.9856 541.327 -44.281 542.857 -43.5587L542.003 -41.75ZM532.815 -45.8207C531.268 -46.4626 529.712 -47.0875 528.145 -47.6956L528.869 -49.5601C530.45 -48.9464 532.021 -48.3158 533.582 -47.6679L532.815 -45.8207ZM523.44 -49.461C521.869 -50.0306 520.288 -50.5838 518.698 -51.1206L519.338 -53.0155C520.941 -52.474 522.536 -51.916 524.122 -51.3413L523.44 -49.461ZM513.903 -52.682C512.312 -53.1814 510.712 -53.6649 509.104 -54.1325L509.662 -56.053C511.284 -55.5814 512.897 -55.0939 514.502 -54.5903L513.903 -52.682ZM504.255 -55.4884C502.639 -55.9225 501.015 -56.3412 499.383 -56.7444L499.863 -58.686C501.508 -58.2796 503.145 -57.8576 504.774 -57.4199L504.255 -55.4884ZM494.495 -57.9015C492.858 -58.272 491.215 -58.6275 489.564 -58.9679L489.968 -60.9266C491.631 -60.5837 493.287 -60.2255 494.937 -59.8521L494.495 -57.9015ZM484.639 -59.9354C482.994 -60.2427 481.341 -60.5355 479.683 -60.8139L480.014 -62.7863C481.685 -62.5059 483.349 -62.211 485.006 -61.9014L484.639 -59.9354ZM474.705 -61.6034C473.053 -61.8502 471.396 -62.083 469.733 -62.3017L469.994 -64.2847C471.668 -64.0644 473.337 -63.83 475 -63.5815L474.705 -61.6034ZM464.728 -62.9163C463.066 -63.106 461.398 -63.282 459.726 -63.4444L459.919 -65.4351C461.603 -65.2716 463.281 -65.0944 464.955 -64.9034L464.728 -62.9163ZM454.717 -63.8894C453.042 -64.0243 451.364 -64.1458 449.681 -64.2541L449.809 -66.2499C451.503 -66.141 453.192 -66.0187 454.877 -65.8829L454.717 -63.8894ZM444.668 -64.5368C442.994 -64.618 441.317 -64.6863 439.636 -64.7418L439.702 -66.7408C441.393 -66.6849 443.081 -66.6162 444.765 -66.5344L444.668 -64.5368ZM434.593 -64.8699C432.922 -64.8996 431.247 -64.9169 429.57 -64.9219L429.576 -66.9218C431.263 -66.9169 432.948 -66.8995 434.629 -66.8696L434.593 -64.8699ZM424.528 -64.8996C422.852 -64.88 421.173 -64.8482 419.492 -64.8043L419.44 -66.8037C421.131 -66.8478 422.819 -66.8798 424.504 -66.8995L424.528 -64.8996ZM414.465 -64.6376C412.787 -64.5701 411.107 -64.4907 409.425 -64.3996L409.316 -66.3967C411.008 -66.4883 412.697 -66.5681 414.385 -66.636L414.465 -64.6376ZM404.403 -64.093C402.731 -63.9795 401.058 -63.8545 399.383 -63.7181L399.22 -65.7115C400.904 -65.8486 402.587 -65.9743 404.268 -66.0884L404.403 -64.093ZM394.353 -63.2747C392.687 -63.1167 391.02 -62.9475 389.352 -62.7673L389.137 -64.7557C390.814 -64.9369 392.49 -65.1069 394.164 -65.2658L394.353 -63.2747ZM384.347 -62.1936C382.679 -61.9916 381.011 -61.7787 379.342 -61.5548L379.076 -63.5371C380.753 -63.762 382.43 -63.9761 384.106 -64.1791L384.347 -62.1936ZM374.362 -60.8548C372.701 -60.6108 371.04 -60.3561 369.379 -60.0908L369.064 -62.0658C370.733 -62.3324 372.402 -62.5883 374.071 -62.8336L374.362 -60.8548ZM364.406 -59.2649C362.754 -58.9802 361.103 -58.685 359.452 -58.3796L359.088 -60.3462C360.747 -60.6531 362.407 -60.9497 364.066 -61.2359L364.406 -59.2649ZM354.5 -57.4325C353.675 -57.2696 352.85 -57.1041 352.026 -56.9361L351.626 -58.8958C352.455 -59.0646 353.283 -59.2309 354.112 -59.3946L354.5 -57.4325ZM352.026 -56.9361C351.206 -56.7691 350.388 -56.5979 349.571 -56.4225L349.151 -58.3779C349.975 -58.5548 350.8 -58.7275 351.626 -58.8958L352.026 -56.9361ZM344.681 -55.3193C343.054 -54.9345 341.431 -54.5333 339.812 -54.1161L339.313 -56.0527C340.944 -56.4733 342.58 -56.8777 344.221 -57.2656L344.681 -55.3193ZM334.969 -52.8158C333.358 -52.3663 331.752 -51.9013 330.152 -51.4213L329.577 -53.337C331.19 -53.8206 332.808 -54.2892 334.431 -54.7422L334.969 -52.8158ZM325.362 -49.9343C323.768 -49.4229 322.18 -48.897 320.599 -48.357L319.953 -50.2497C321.546 -50.7937 323.145 -51.3235 324.751 -51.8386L325.362 -49.9343ZM315.868 -46.6926C314.294 -46.1227 312.727 -45.5392 311.167 -44.9426L310.453 -46.8105C312.024 -47.4114 313.602 -47.9991 315.187 -48.5731L315.868 -46.6926ZM306.496 -43.1076C304.942 -42.4815 303.397 -41.8426 301.859 -41.1915L301.079 -43.0332C302.627 -43.6888 304.184 -44.3321 305.748 -44.9626L306.496 -43.1076ZM297.259 -39.1966C295.727 -38.5161 294.202 -37.8237 292.688 -37.12L291.845 -38.9338C293.37 -39.6423 294.905 -40.3394 296.448 -41.0246L297.259 -39.1966ZM288.154 -34.967C286.646 -34.2355 285.148 -33.4929 283.66 -32.74L282.757 -34.5246C284.255 -35.2825 285.763 -36.0299 287.281 -36.7664L288.154 -34.967ZM279.202 -30.4371C277.717 -29.6542 276.242 -28.8611 274.779 -28.0586L273.817 -29.8121C275.29 -30.6199 276.774 -31.4182 278.269 -32.2064L279.202 -30.4371ZM270.4 -25.6093C268.943 -24.7788 267.499 -23.9391 266.067 -23.091L265.047 -24.8118C266.489 -25.6655 267.943 -26.5107 269.409 -27.3467L270.4 -25.6093ZM261.766 -20.4956C260.334 -19.615 258.915 -18.7263 257.51 -17.83L256.435 -19.5161C257.849 -20.4183 259.277 -21.313 260.718 -22.1993L261.766 -20.4956ZM253.304 -15.0967C251.904 -14.1701 250.52 -13.2365 249.15 -12.2964L248.018 -13.9453C249.397 -14.8918 250.791 -15.8317 252.2 -16.7645L253.304 -15.0967ZM245.033 -9.4178C243.661 -8.44079 242.306 -7.45772 240.968 -6.46932L239.779 -8.07795C241.127 -9.0733 242.491 -10.0632 243.873 -11.047L245.033 -9.4178ZM236.959 -3.45265C235.624 -2.42885 234.308 -1.40021 233.011 -0.367531L231.765 -1.93216C233.072 -2.97249 234.398 -4.00863 235.742 -5.0398L236.959 -3.45265ZM229.121 2.78937C227.82 3.86624 226.54 4.94656 225.282 6.02948L223.977 4.51386C225.245 3.42234 226.535 2.33359 227.846 1.2485L229.121 2.78937ZM221.512 9.34272C220.254 10.4706 219.022 11.6004 217.814 12.7309L216.447 11.271C217.665 10.1306 218.908 8.99126 220.176 7.85399L221.512 9.34272ZM214.195 16.1966C212.987 17.3793 211.808 18.5617 210.658 19.7429L209.225 18.3479C210.386 17.1551 211.577 15.9614 212.795 14.7678L214.195 16.1966ZM207.213 23.3735C206.063 24.6167 204.947 25.857 203.866 27.0932L202.361 25.7765C203.454 24.526 204.583 23.272 205.744 22.0157L207.213 23.3735ZM200.629 30.9074C199.55 32.2192 198.512 33.5246 197.516 34.8221L195.929 33.6041C196.94 32.2883 197.992 30.9653 199.084 29.6369L200.629 30.9074ZM194.544 38.844C193.558 40.2348 192.622 41.6141 191.739 42.9796L190.06 41.8939C190.959 40.503 191.911 39.0999 192.913 37.6867L194.544 38.844ZM189.134 47.2348C188.717 47.9569 188.316 48.6742 187.931 49.3865L186.172 48.4358C186.566 47.7065 186.976 46.9727 187.402 46.2348L189.134 47.2348ZM187.931 49.3865C187.516 50.1541 187.119 50.9193 186.738 51.6817L184.949 50.7874C185.339 50.0059 185.747 49.222 186.172 48.4358L187.931 49.3865ZM184.602 56.3288C183.928 57.9359 183.326 59.5286 182.793 61.1047L180.898 60.4634C181.447 58.8422 182.066 57.2054 182.758 55.5552L184.602 56.3288ZM181.339 65.9906C180.906 67.6779 180.549 69.3429 180.265 70.9828L178.294 70.6411C178.588 68.9487 178.955 67.2318 179.401 65.4933L181.339 65.9906ZM179.602 76.0466C179.449 77.7759 179.375 79.4721 179.373 81.1315L177.373 81.1296C177.375 79.4121 177.452 77.6579 177.609 75.8706L179.602 76.0466ZM179.598 86.218C179.754 87.9494 179.988 89.6322 180.292 91.2617L178.325 91.6281C178.01 89.9369 177.767 88.1916 177.606 86.3973L179.598 86.218ZM181.465 96.2064C181.951 97.8779 182.51 99.4779 183.131 101L181.278 101.755C180.632 100.168 180.05 98.5023 179.545 96.7645L181.465 96.2064ZM185.305 105.588C186.146 107.128 187.05 108.557 187.999 109.866L186.379 111.04C185.379 109.66 184.43 108.159 183.549 106.547L185.305 105.588ZM191.24 113.711C192.49 114.975 193.773 116.041 195.054 116.895L193.944 118.559C192.539 117.622 191.153 116.467 189.818 115.117L191.24 113.711ZM199.437 118.991C201.085 119.458 202.638 119.516 204.039 119.167L204.522 121.108C202.727 121.555 200.815 121.46 198.892 120.916L199.437 118.991ZM207.866 116.788C208.358 116.237 208.82 115.589 209.243 114.835L210.987 115.814C210.5 116.683 209.955 117.452 209.358 118.12L207.866 116.788ZM209.243 114.835C209.689 114.042 210.006 113.31 210.212 112.638L212.124 113.223C211.87 114.055 211.489 114.92 210.987 115.814L209.243 114.835ZM209.857 108.622C209.217 107.648 208.061 106.783 206.307 106.091L207.042 104.231C209.015 105.01 210.581 106.083 211.529 107.524L209.857 108.622ZM201.524 104.888C200.038 104.664 198.388 104.517 196.584 104.447L196.661 102.449C198.525 102.521 200.25 102.674 201.822 102.911L201.524 104.888ZM191.546 104.442C189.963 104.493 188.298 104.59 186.559 104.732L186.396 102.739C188.165 102.594 189.862 102.495 191.482 102.444L191.546 104.442ZM181.565 105.242C179.942 105.439 178.268 105.669 176.545 105.934L176.242 103.957C177.984 103.689 179.68 103.456 181.325 103.257L181.565 105.242ZM171.494 106.781C169.889 107.073 168.248 107.391 166.576 107.735L166.173 105.776C167.86 105.429 169.515 105.108 171.137 104.813L171.494 106.781ZM161.614 108.812C159.987 109.183 158.335 109.577 156.66 109.994L156.177 108.053C157.865 107.633 159.529 107.236 161.169 106.862L161.614 108.812ZM151.778 111.255C150.152 111.691 148.508 112.146 146.846 112.622L146.295 110.7C147.968 110.221 149.623 109.762 151.261 109.323L151.778 111.255ZM142.019 114.047C140.409 114.537 138.786 115.044 137.151 115.569L136.54 113.665C138.184 113.137 139.818 112.626 141.437 112.134L142.019 114.047ZM132.351 117.152C130.756 117.691 129.153 118.246 127.541 118.818L126.872 116.933C128.493 116.358 130.106 115.799 131.71 115.257L132.351 117.152ZM122.78 120.547C121.201 121.133 119.616 121.735 118.027 122.352L117.303 120.487C118.902 119.867 120.496 119.262 122.084 118.672L122.78 120.547ZM113.315 124.22C111.752 124.853 110.185 125.5 108.618 126.162L107.84 124.319C109.417 123.654 110.992 123.003 112.564 122.366L113.315 124.22ZM103.961 128.167C102.416 128.846 100.869 129.539 99.324 130.246L98.4923 128.427C100.047 127.716 101.602 127.019 103.157 126.336L103.961 128.167ZM94.7295 132.389C93.2032 133.114 91.6791 133.854 90.1583 134.606L89.2715 132.813C90.8016 132.056 92.335 131.313 93.8705 130.582L94.7295 132.389ZM85.6316 136.889C84.1278 137.663 82.6286 138.449 81.135 139.248L80.1915 137.485C81.6947 136.681 83.2035 135.889 84.7167 135.111L85.6316 136.889ZM76.6835 141.678C75.2058 142.501 73.735 143.336 72.2723 144.183L71.2695 142.453C72.7424 141.599 74.2232 140.759 75.7107 139.93L76.6835 141.678ZM67.905 146.766C66.4576 147.64 65.0194 148.526 63.5917 149.424L62.5266 147.732C63.965 146.826 65.4137 145.934 66.8714 145.054L67.905 146.766ZM59.3205 152.17C57.9082 153.097 56.5075 154.037 55.1199 154.989L53.9885 153.339C55.3876 152.38 56.7994 151.433 58.2228 150.498L59.3205 152.17ZM50.9605 157.907C49.5881 158.892 48.23 159.889 46.8876 160.899L45.6855 159.301C47.04 158.282 48.4101 157.276 49.7943 156.282L50.9605 157.907ZM42.8627 164C41.537 165.047 40.2287 166.106 38.939 167.178L37.6611 165.639C38.9638 164.557 40.2849 163.487 41.6232 162.431L42.8627 164ZM35.074 170.475C33.8042 171.587 32.5549 172.713 31.3275 173.85L29.968 172.383C31.2094 171.233 32.4724 170.095 33.7558 168.971L35.074 170.475ZM27.6537 177.357C26.4511 178.541 25.2726 179.736 24.1196 180.944L22.6727 179.564C23.8407 178.34 25.0339 177.129 26.251 175.932L27.6537 177.357ZM20.676 184.676C19.5538 185.935 18.4597 187.206 17.395 188.49L15.8553 187.214C16.9358 185.911 18.0455 184.621 19.1832 183.345L20.676 184.676ZM14.2333 192.455C13.2079 193.794 12.2148 195.146 11.2556 196.511L9.61923 195.362C10.5945 193.974 11.6039 192.599 12.6455 191.239L14.2333 192.455ZM8.43863 200.712C7.53093 202.133 6.66032 203.568 5.82841 205.015L4.09437 204.019C4.94223 202.543 5.82904 201.082 6.75314 199.636L8.43863 200.712Z" fill="#E0EBF2"/>
</svg>