<svg width="25" height="25" viewBox="0 0 25 25" fill="none" xmlns="http://www.w3.org/2000/svg">
<g id="magic-wand_236491 1" clip-path="url(#clip0_150_2119)">
<g id="Group">
<g id="Group_2">
<path id="Vector" d="M12.0862 12.9137L9.44766 12.0941L0.238805 21.3031C-0.0796017 21.6215 -0.0796017 22.1373 0.238805 22.4557L2.54417 24.7611C2.7034 24.9203 2.91199 24.9999 3.12048 24.9999C3.32908 24.9999 3.53762 24.9203 3.6968 24.7611L12.9057 15.5523L12.0862 12.9137Z" fill="#FCFCFC"/>
</g>
</g>
<g id="Group_3">
<g id="Group_4">
<path id="Vector_2" d="M24.8378 11.2914L21.8568 7.29676L23.4574 2.57617C23.5566 2.28272 23.4813 1.95738 23.2615 1.73819C23.0418 1.51851 22.716 1.44371 22.4235 1.54239L17.703 3.14297L13.7084 0.161975C13.4595 -0.0237662 13.1272 -0.05194 12.8507 0.0887333C12.5742 0.229846 12.4018 0.515392 12.4055 0.82584L12.4691 5.80966L8.39914 8.68821C8.14602 8.86761 8.01604 9.17488 8.06482 9.48108C8.11306 9.78782 8.33176 10.0399 8.62785 10.1322L13.3883 11.6113L14.8674 16.3718C14.9597 16.6679 15.2118 16.8865 15.5185 16.9348C15.561 16.9417 15.6035 16.9449 15.6459 16.9449C15.9081 16.9449 16.157 16.8221 16.3115 16.6039L19.19 12.5373L24.1738 12.6078C24.1775 12.6078 24.1812 12.6078 24.1844 12.6078C24.4907 12.6078 24.7714 12.429 24.9109 12.1557C25.0516 11.8793 25.0235 11.5403 24.8378 11.2914Z" fill="#FCFCFC"/>
</g>
</g>
</g>
<defs>
<clipPath id="clip0_150_2119">
<rect width="25" height="25" fill="white"/>
</clipPath>
</defs>
</svg>
