<svg xmlns="http://www.w3.org/2000/svg" width="25" height="25" viewBox="0 0 25 25" fill="none">
  <g clip-path="url(#clip0_392_515)">
    <path d="M11.1986 22.394C8.75817 22.394 6.77183 20.4076 6.77183 17.9672V3.14453L1.74009 4.29647C0.496415 4.62356 -0.249297 5.90576 0.0796937 7.16088L4.39395 23.2688C4.68041 24.3105 5.63763 25 6.66465 25C6.85727 25 7.05314 24.9759 7.24691 24.925L17.746 22.394H11.1986Z" fill="url(#paint0_linear_392_515)"/>
    <path d="M13.5422 9.37329C14.6911 9.37329 15.6254 8.43896 15.6254 7.29006C15.6254 6.14117 14.6911 5.20703 13.5422 5.20703C12.3933 5.20703 11.459 6.14117 11.459 7.29006C11.459 8.43896 12.3933 9.37329 13.5422 9.37329Z" fill="url(#paint1_linear_392_515)"/>
    <path d="M24.9994 3.12474C24.9994 1.39892 23.6005 0 21.8747 0H11.4587C9.73291 0 8.33398 1.39892 8.33398 3.12474V17.7069C8.33398 19.4327 9.73291 20.8317 11.4587 20.8317H21.8747C23.6005 20.8317 24.9994 19.4327 24.9994 17.7069V3.12474ZM11.4587 2.08322H21.8747C22.4495 2.08322 22.9162 2.54972 22.9162 3.12474V9.83156L22.1245 9.03989C21.411 8.32641 20.2539 8.32641 19.5414 9.03989L14.5835 13.9978L13.2711 12.6855C12.5576 11.972 11.4006 11.972 10.688 12.6855L10.4172 12.9563V3.12474C10.4172 2.54972 10.8839 2.08322 11.4587 2.08322Z" fill="url(#paint2_linear_392_515)"/>
  </g>
  <defs>
    <linearGradient id="paint0_linear_392_515" x1="4.91898" y1="-1.97784" x2="21.2449" y2="4.58158" gradientUnits="userSpaceOnUse">
      <stop stop-color="#E202BB"/>
      <stop offset="1" stop-color="#6902E7"/>
    </linearGradient>
    <linearGradient id="paint1_linear_392_515" x1="12.6135" y1="4.23057" x2="16.1899" y2="6.00049" gradientUnits="userSpaceOnUse">
      <stop stop-color="#E202BB"/>
      <stop offset="1" stop-color="#6902E7"/>
    </linearGradient>
    <linearGradient id="paint2_linear_392_515" x1="12.9521" y1="-4.88242" x2="28.3477" y2="1.21273" gradientUnits="userSpaceOnUse">
      <stop stop-color="#E202BB"/>
      <stop offset="1" stop-color="#6902E7"/>
    </linearGradient>
    <clipPath id="clip0_392_515">
      <rect width="25" height="25" fill="white"/>
    </clipPath>
  </defs>
</svg>