<svg width="25" height="25" viewBox="0 0 25 25" fill="none" xmlns="http://www.w3.org/2000/svg">
<g id="photos_1829596 1" clip-path="url(#clip0_150_2086)">
<path id="Vector" d="M11.1986 22.394C8.75817 22.394 6.77183 20.4077 6.77183 17.9673V3.14459L1.74009 4.29653C0.496415 4.62362 -0.249297 5.90582 0.0796937 7.16094L4.39395 23.2689C4.68041 24.3106 5.63763 25 6.66465 25C6.85727 25 7.05314 24.976 7.24691 24.9251L17.746 22.394H11.1986Z" fill="#FCFCFC"/>
<path id="Vector_2" d="M13.5422 9.3742C14.6911 9.3742 15.6254 8.43987 15.6254 7.29098C15.6254 6.14209 14.6911 5.20795 13.5422 5.20795C12.3933 5.20795 11.459 6.14209 11.459 7.29098C11.459 8.43987 12.3933 9.3742 13.5422 9.3742Z" fill="#FCFCFC"/>
<path id="Vector_3" d="M24.9999 3.12474C24.9999 1.39892 23.601 0 21.8751 0H11.4592C9.7334 0 8.33447 1.39892 8.33447 3.12474V17.7069C8.33447 19.4327 9.7334 20.8317 11.4592 20.8317H21.8751C23.601 20.8317 24.9999 19.4327 24.9999 17.7069V3.12474ZM11.4592 2.08322H21.8751C22.45 2.08322 22.9167 2.54972 22.9167 3.12474V9.83156L22.125 9.03989C21.4115 8.32641 20.2544 8.32641 19.5419 9.03989L14.584 13.9978L13.2716 12.6855C12.5581 11.972 11.401 11.972 10.6885 12.6855L10.4177 12.9563V3.12474C10.4177 2.54972 10.8844 2.08322 11.4592 2.08322Z" fill="#FCFCFC"/>
</g>
<defs>
<clipPath id="clip0_150_2086">
<rect width="25" height="25" fill="white"/>
</clipPath>
</defs>
</svg>
