<svg width="25" height="24" viewBox="0 0 25 24" fill="none" xmlns="http://www.w3.org/2000/svg">
<g id="fi_14064528">
<path id="Vector" d="M12.1393 1.62891C6.41177 1.62891 1.76758 6.27197 1.76758 11.9997C1.76758 16.2466 4.32152 19.8952 7.9757 21.499C7.94702 20.774 7.97102 19.9049 8.15533 19.118C8.35595 18.2748 9.49089 13.4654 9.49089 13.4654C9.49089 13.4654 9.15864 12.8039 9.15864 11.8252C9.15864 10.289 10.0508 9.14091 11.1606 9.14091C12.1022 9.14091 12.5588 9.84891 12.5588 10.697C12.5588 11.6455 11.9531 13.0642 11.643 14.3774C11.3824 15.4775 12.1945 16.3747 13.2782 16.3747C15.2438 16.3747 16.567 13.852 16.567 10.8614C16.567 8.58872 15.0373 6.88791 12.2522 6.88791C9.10652 6.88791 7.14677 9.23316 7.14677 11.8531C7.14677 12.757 7.4132 13.3943 7.83039 13.888C8.02277 14.1149 8.0492 14.2051 7.97833 14.4657C7.93052 14.6572 7.81652 15.1162 7.76852 15.2977C7.69858 15.5618 7.4867 15.6545 7.24895 15.5573C5.79995 14.9669 5.12514 13.3799 5.12514 11.596C5.12514 8.65059 7.60914 5.11716 12.5374 5.11716C16.4965 5.11716 19.1035 7.98272 19.1035 11.0585C19.1035 15.1267 16.8403 18.1655 13.5071 18.1655C12.3865 18.1655 11.3333 17.56 10.9736 16.8736C10.9736 16.8736 10.371 19.2629 10.2439 19.7249C10.0241 20.5225 9.59308 21.3237 9.20008 21.9462C10.1318 22.2211 11.1173 22.3707 12.1391 22.3707C17.8656 22.3707 22.509 17.7282 22.509 11.9999C22.5092 6.27197 17.8658 1.62891 12.1393 1.62891Z" fill="#FCFCFC"/>
</g>
</svg>
