<svg xmlns="http://www.w3.org/2000/svg" width="309" height="221" viewBox="0 0 309 221" fill="none">
  <path d="M146.9 48.7312L145.977 49.1154L146.9 48.7312ZM118.696 109.399L119.613 109L118.696 109.399ZM307.094 220.243L308.993 208.853L298.18 212.903L307.094 220.243ZM0.839394 -67.2547C1.63868 -67.0057 2.4365 -66.7524 3.23281 -66.4947L3.84863 -68.3975C3.04536 -68.6575 2.24053 -68.9131 1.43417 -69.1642L0.839394 -67.2547ZM7.99275 -64.8967C9.57453 -64.3466 11.1499 -63.7798 12.7184 -63.1967L13.4152 -65.0714C11.8336 -65.6593 10.245 -66.231 8.64969 -66.7858L7.99275 -64.8967ZM17.4082 -61.3977C18.9661 -60.7815 20.5168 -60.1497 22.0599 -59.5029L22.8331 -61.3474C21.2777 -61.9994 19.7144 -62.6363 18.1438 -63.2575L17.4082 -61.3977ZM26.6716 -57.5155C28.2048 -56.8367 29.7299 -56.1434 31.2466 -55.4362L32.0918 -57.2488C30.5634 -57.9615 29.0265 -58.6601 27.4813 -59.3442L26.6716 -57.5155ZM35.7802 -53.269C37.286 -52.5314 38.7829 -51.7805 40.2706 -51.0168L41.184 -52.796C39.6852 -53.5654 38.1771 -54.322 36.6599 -55.0651L35.7802 -53.269ZM44.7175 -48.6815C46.1966 -47.8873 47.6659 -47.0807 49.125 -46.2625L50.1032 -48.007C48.6336 -48.8311 47.1536 -49.6435 45.6637 -50.4436L44.7175 -48.6815ZM53.4866 -43.7647C54.9354 -42.9175 56.3735 -42.0592 57.8005 -41.1904L58.8406 -42.8986C57.4036 -43.7736 55.9553 -44.638 54.4961 -45.4912L53.4866 -43.7647ZM62.0679 -38.5401C63.4883 -37.6405 64.8969 -36.7309 66.2932 -35.8118L67.3928 -37.4824C65.9868 -38.4078 64.5684 -39.3239 63.138 -40.2297L62.0679 -38.5401ZM70.4681 -33.0113C71.8554 -32.0631 73.2298 -31.1059 74.5909 -30.1405L75.748 -31.7718C74.3775 -32.7439 72.9936 -33.7077 71.5967 -34.6625L70.4681 -33.0113ZM78.6607 -27.2003C80.0174 -26.2021 81.3597 -25.1962 82.6874 -24.1832L83.9006 -25.7732C82.5637 -26.7933 81.212 -27.8062 79.846 -28.8112L78.6607 -27.2003ZM86.6584 -21.098C87.9787 -20.0535 89.2834 -19.0025 90.5718 -17.9458L91.8401 -19.4922C90.5426 -20.5564 89.2288 -21.6148 87.8993 -22.6666L86.6584 -21.098ZM94.4254 -14.7273C95.7084 -13.6362 96.974 -12.5398 98.2216 -11.4392L99.5447 -12.939C98.288 -14.0476 97.0133 -15.1519 95.7211 -16.2508L94.4254 -14.7273ZM101.964 -8.07623C103.209 -6.93621 104.434 -5.79251 105.64 -4.64605L107.018 -6.0953C105.803 -7.2505 104.569 -8.4028 103.314 -9.5513L101.964 -8.07623ZM109.247 -1.14829C110.448 0.0387846 111.626 1.2278 112.782 2.41775L114.217 1.02414C113.051 -0.175512 111.863 -1.37405 110.653 -2.57045L109.247 -1.14829ZM116.241 6.05325C117.393 7.28924 118.519 8.52515 119.62 9.75984L121.113 8.4288C120.002 7.18308 118.866 5.93642 117.705 4.68991L116.241 6.05325ZM122.918 13.5437C124.016 14.8348 125.086 16.1233 126.126 17.4078L127.681 16.1493C126.63 14.8518 125.55 13.5507 124.441 12.2474L122.918 13.5437ZM129.234 21.3495C130.268 22.6965 131.267 24.0377 132.231 25.3714L133.852 24.1997C132.876 22.8502 131.866 21.4938 130.821 20.1321L129.234 21.3495ZM135.105 29.477C136.058 30.8855 136.969 32.2835 137.839 33.6693L139.533 32.6064C138.651 31.2004 137.726 29.7831 136.761 28.3563L135.105 29.477ZM140.414 37.9528C141.266 39.4366 142.067 40.9033 142.814 42.3503L144.591 41.4328C143.83 39.9579 143.015 38.465 142.148 36.9566L140.414 37.9528ZM144.994 46.8499C145.338 47.6119 145.666 48.3672 145.977 49.1154L147.824 48.3469C147.504 47.5798 147.169 46.8063 146.817 46.0269L144.994 46.8499ZM145.977 49.1154C146.296 49.8815 146.599 50.6436 146.886 51.4015L148.756 50.6921C148.461 49.9142 148.15 49.1324 147.824 48.3469L145.977 49.1154ZM148.462 56.0031C148.946 57.5882 149.362 59.1527 149.716 60.695L151.666 60.2478C151.301 58.6591 150.872 57.049 150.375 55.4192L148.462 56.0031ZM150.624 65.4567C150.872 67.0945 151.049 68.7038 151.161 70.2824L153.156 70.1409C153.04 68.5092 152.857 66.8472 152.601 65.1571L150.624 65.4567ZM151.303 75.1362C151.282 76.7868 151.19 78.3984 151.032 79.9682L153.022 80.1678C153.185 78.5402 153.281 76.8706 153.303 75.1619L151.303 75.1362ZM150.333 84.7582C150.019 86.381 149.637 87.9504 149.193 89.4626L151.113 90.0251C151.574 88.4527 151.971 86.8222 152.296 85.1373L150.333 84.7582ZM147.61 94.0271C146.99 95.5615 146.308 97.0213 145.576 98.4016L147.342 99.3391C148.107 97.8972 148.819 96.3743 149.464 94.7758L147.61 94.0271ZM143.08 102.532C142.137 103.908 141.145 105.173 140.123 106.32L141.616 107.65C142.696 106.438 143.74 105.106 144.73 103.663L143.08 102.532ZM136.691 109.643C135.388 110.719 134.074 111.603 132.783 112.288L133.719 114.055C135.143 113.3 136.569 112.338 137.964 111.186L136.691 109.643ZM128.446 113.847C126.848 114.13 125.381 114.035 124.097 113.574L123.421 115.456C125.087 116.055 126.915 116.149 128.795 115.816L128.446 113.847ZM120.724 110.972C120.314 110.406 119.94 109.751 119.613 109L117.779 109.798C118.159 110.67 118.602 111.454 119.106 112.147L120.724 110.972ZM119.613 109C119.254 108.175 119.02 107.429 118.894 106.756L116.928 107.124C117.087 107.971 117.372 108.863 117.779 109.798L119.613 109ZM119.783 102.921C120.559 102.078 121.834 101.394 123.675 100.944L123.2 99.0009C121.147 99.5032 119.453 100.326 118.311 101.567L119.783 102.921ZM128.481 100.365C129.972 100.321 131.615 100.368 133.397 100.506L133.551 98.5118C131.711 98.3697 129.997 98.3196 128.422 98.366L128.481 100.365ZM138.352 101.07C139.93 101.3 141.585 101.586 143.309 101.925L143.695 99.9629C141.942 99.6179 140.255 99.3267 138.642 99.0908L138.352 101.07ZM148.178 102.983C149.745 103.353 151.357 103.762 153.01 104.207L153.531 102.276C151.858 101.825 150.226 101.412 148.638 101.037L148.178 102.983ZM157.853 105.583C159.432 106.054 161.042 106.556 162.681 107.087L163.298 105.185C161.645 104.649 160.02 104.143 158.425 103.667L157.853 105.583ZM167.403 108.675C168.966 109.218 170.551 109.787 172.155 110.38L172.849 108.504C171.232 107.907 169.635 107.334 168.06 106.786L167.403 108.675ZM176.85 112.166C178.388 112.767 179.942 113.389 181.509 114.033L182.269 112.183C180.691 111.535 179.127 110.908 177.577 110.303L176.85 112.166ZM186.171 115.993C187.688 116.646 189.214 117.317 190.749 118.006L191.569 116.182C190.024 115.488 188.488 114.813 186.962 114.156L186.171 115.993ZM195.35 120.117C196.849 120.818 198.354 121.537 199.864 122.273L200.74 120.474C199.22 119.735 197.706 119.011 196.198 118.305L195.35 120.117ZM204.387 124.518C205.87 125.268 207.357 126.034 208.845 126.816L209.775 125.045C208.277 124.259 206.782 123.488 205.29 122.733L204.387 124.518ZM213.291 129.194C214.755 129.991 216.219 130.803 217.683 131.629L218.666 129.888C217.194 129.056 215.721 128.24 214.248 127.438L213.291 129.194ZM222.05 134.14C223.492 134.984 224.931 135.841 226.367 136.712L227.404 135.002C225.959 134.125 224.511 133.263 223.06 132.414L222.05 134.14ZM230.65 139.357C232.067 140.247 233.478 141.151 234.883 142.067L235.975 140.391C234.561 139.469 233.14 138.56 231.715 137.664L230.65 139.357ZM239.075 144.85C240.463 145.788 241.843 146.739 243.214 147.702L244.364 146.065C242.982 145.095 241.592 144.138 240.195 143.193L239.075 144.85ZM247.304 150.628C248.659 151.616 250.004 152.616 251.338 153.628L252.546 152.035C251.202 151.015 249.847 150.008 248.483 149.012L247.304 150.628ZM255.312 156.704C256.629 157.744 257.934 158.796 259.225 159.86L260.496 158.316C259.195 157.244 257.879 156.183 256.552 155.135L255.312 156.704ZM263.067 163.094C264.34 164.189 265.598 165.296 266.839 166.414L268.178 164.928C266.925 163.8 265.656 162.683 264.372 161.578L263.067 163.094ZM270.53 169.817C271.751 170.97 272.954 172.135 274.137 173.31L275.547 171.891C274.351 170.704 273.136 169.528 271.903 168.363L270.53 169.817ZM277.65 176.894C278.81 178.109 279.947 179.334 281.062 180.571L282.547 179.231C281.42 177.981 280.269 176.741 279.097 175.513L277.65 176.894ZM284.365 184.347C285.45 185.627 286.51 186.917 287.542 188.217L289.109 186.973C288.062 185.656 286.989 184.349 285.891 183.054L284.365 184.347ZM290.596 192.2C291.591 193.546 292.557 194.902 293.491 196.269L295.142 195.14C294.193 193.753 293.213 192.376 292.204 191.011L290.596 192.2ZM296.242 200.467C297.129 201.882 297.982 203.307 298.8 204.741L300.537 203.751C299.706 202.291 298.838 200.843 297.937 199.405L296.242 200.467ZM301.185 209.156C301.945 210.644 302.665 212.142 303.345 213.649L305.168 212.826C304.475 211.289 303.74 209.762 302.966 208.247L301.185 209.156Z" fill="white"/>
</svg>