<svg width="20" height="21" viewBox="0 0 20 21" fill="none" xmlns="http://www.w3.org/2000/svg">
<g id="round_profile_picture.svg">
<path id="Vector" d="M10.0001 2.1167C8.38383 2.11977 6.80335 2.59279 5.45114 3.47815C4.09893 4.36351 3.03336 5.62298 2.38424 7.10317C1.73511 8.58337 1.53044 10.2204 1.79514 11.8149C2.05985 13.4093 2.78252 14.8924 3.87512 16.0834C4.65547 16.9292 5.60257 17.6043 6.65674 18.066C7.71089 18.5278 8.84924 18.7661 10.0001 18.7661C11.151 18.7661 12.2893 18.5278 13.3435 18.066C14.3977 17.6043 15.3447 16.9292 16.1251 16.0834C17.2177 14.8924 17.9404 13.4093 18.2051 11.8149C18.4698 10.2204 18.2652 8.58337 17.616 7.10317C16.9669 5.62298 15.9013 4.36351 14.5491 3.47815C13.1969 2.59279 11.6164 2.11977 10.0001 2.1167ZM10.0001 17.1167C8.27384 17.1141 6.61588 16.4419 5.37512 15.2417C5.75182 14.3246 6.39264 13.5403 7.21616 12.9883C8.03968 12.4363 9.00874 12.1415 10.0001 12.1415C10.9915 12.1415 11.9606 12.4363 12.7841 12.9883C13.6076 13.5403 14.2484 14.3246 14.6251 15.2417C13.3843 16.4419 11.7264 17.1141 10.0001 17.1167ZM8.33341 8.78337C8.33341 8.45373 8.43116 8.1315 8.61433 7.85742C8.79749 7.58333 9.05774 7.36972 9.36233 7.24357C9.66683 7.11742 10.002 7.08442 10.3252 7.14872C10.6486 7.21303 10.9456 7.37177 11.1787 7.60486C11.4117 7.83794 11.5704 8.13492 11.6347 8.45822C11.6991 8.78152 11.6661 9.11662 11.5399 9.4212C11.4137 9.7257 11.2002 9.98603 10.9261 10.1691C10.652 10.3523 10.3297 10.45 10.0001 10.45C9.55808 10.45 9.13416 10.2744 8.82158 9.96187C8.50908 9.64928 8.33341 9.22537 8.33341 8.78337ZM15.7584 13.7834C15.0139 12.5099 13.868 11.5192 12.5001 10.9667C12.9244 10.4856 13.2009 9.89228 13.2963 9.25787C13.3918 8.62355 13.3022 7.97512 13.0382 7.39045C12.7743 6.80577 12.3472 6.30967 11.8084 5.96167C11.2695 5.61367 10.6416 5.42857 10.0001 5.42857C9.35866 5.42857 8.73074 5.61367 8.19186 5.96167C7.65296 6.30967 7.22593 6.80577 6.96199 7.39045C6.69806 7.97512 6.60844 8.62355 6.70389 9.25787C6.79934 9.89228 7.07581 10.4856 7.50012 10.9667C6.13229 11.5192 4.98634 12.5099 4.24179 13.7834C3.6484 12.7726 3.33489 11.6221 3.33345 10.45C3.33345 8.68192 4.03583 6.98623 5.28607 5.73599C6.53632 4.48574 8.23201 3.78337 10.0001 3.78337C11.7682 3.78337 13.4639 4.48574 14.7142 5.73599C15.9644 6.98623 16.6667 8.68192 16.6667 10.45C16.6653 11.6221 16.3518 12.7726 15.7584 13.7834Z" fill="#FCFCFC"/>
</g>
</svg>
