<svg width="25" height="24" viewBox="0 0 25 24" fill="none" xmlns="http://www.w3.org/2000/svg">
<g id="Bold / Money / Sale ">
<path id="Subtract" fill-rule="evenodd" clip-rule="evenodd" d="M9.73449 3.20027C9.49097 3.4078 9.3692 3.51158 9.23915 3.59874C8.94105 3.79854 8.60626 3.93721 8.25419 4.00672C8.1006 4.03705 7.94112 4.04977 7.62217 4.07522C6.82079 4.13918 6.42009 4.17115 6.0858 4.28923C5.3126 4.56233 4.70442 5.17051 4.43132 5.94371C4.31324 6.278 4.28127 6.6787 4.21731 7.48008C4.19186 7.79903 4.17914 7.95851 4.14881 8.1121C4.0793 8.46417 3.94063 8.79896 3.74083 9.09706C3.65367 9.22711 3.5499 9.34887 3.34236 9.5924C2.82092 10.2043 2.56019 10.5102 2.40731 10.8301C2.05368 11.57 2.05368 12.43 2.40731 13.1699C2.5602 13.4898 2.82092 13.7957 3.34236 14.4076C3.54987 14.6511 3.65367 14.7729 3.74083 14.9029C3.94063 15.201 4.0793 15.5358 4.14881 15.8879C4.17914 16.0415 4.19186 16.201 4.21731 16.5199C4.28127 17.3213 4.31324 17.722 4.43132 18.0563C4.70442 18.8295 5.3126 19.4377 6.0858 19.7108C6.42009 19.8288 6.82079 19.8608 7.62217 19.9248C7.94112 19.9502 8.1006 19.963 8.25419 19.9933C8.60626 20.0628 8.94105 20.2015 9.23915 20.4013C9.3692 20.4884 9.49096 20.5922 9.73449 20.7997C10.3464 21.3212 10.6523 21.5819 10.9722 21.7348C11.712 22.0884 12.5721 22.0884 13.312 21.7348C13.6319 21.5819 13.9378 21.3212 14.5497 20.7997C14.7932 20.5922 14.915 20.4884 15.045 20.4013C15.3431 20.2015 15.6779 20.0628 16.03 19.9933C16.1836 19.963 16.3431 19.9502 16.662 19.9248C17.4634 19.8608 17.8641 19.8288 18.1984 19.7108C18.9716 19.4377 19.5798 18.8295 19.8529 18.0563C19.9709 17.722 20.0029 17.3213 20.0669 16.5199C20.0923 16.201 20.105 16.0415 20.1354 15.8879C20.2049 15.5358 20.3435 15.201 20.5434 14.9029C20.6305 14.7729 20.7343 14.6511 20.9418 14.4076C21.4633 13.7957 21.724 13.4898 21.8769 13.1699C22.2305 12.43 22.2305 11.57 21.8769 10.8301C21.724 10.5102 21.4633 10.2043 20.9418 9.5924C20.7343 9.34887 20.6305 9.22711 20.5434 9.09706C20.3435 8.79896 20.2049 8.46417 20.1354 8.1121C20.105 7.95851 20.0923 7.79903 20.0669 7.48008C20.0029 6.6787 19.9709 6.278 19.8529 5.94371C19.5798 5.17051 18.9716 4.56233 18.1984 4.28923C17.8641 4.17115 17.4634 4.13918 16.662 4.07522C16.3431 4.04977 16.1836 4.03705 16.03 4.00672C15.6779 3.93721 15.3431 3.79854 15.045 3.59874C14.915 3.51158 14.7932 3.40781 14.5497 3.20027C13.9378 2.67883 13.6319 2.41811 13.312 2.26522C12.5721 1.91159 11.712 1.91159 10.9722 2.26522C10.6523 2.4181 10.3464 2.67883 9.73449 3.20027ZM15.973 8.16959C16.2908 8.48742 16.2908 9.00273 15.973 9.32056L9.46212 15.8314C9.14429 16.1493 8.62898 16.1493 8.31115 15.8314C7.99332 15.5136 7.99332 14.9983 8.31115 14.6805L14.822 8.16959C15.1399 7.85176 15.6552 7.85176 15.973 8.16959ZM15.9401 14.7134C15.9401 15.3127 15.4543 15.7985 14.8549 15.7985C14.2556 15.7985 13.7698 15.3127 13.7698 14.7134C13.7698 14.1141 14.2556 13.6282 14.8549 13.6282C15.4543 13.6282 15.9401 14.1141 15.9401 14.7134ZM9.42921 10.3728C10.0285 10.3728 10.5144 9.88696 10.5144 9.28765C10.5144 8.68834 10.0285 8.2025 9.42921 8.2025C8.8299 8.2025 8.34406 8.68834 8.34406 9.28765C8.34406 9.88696 8.8299 10.3728 9.42921 10.3728Z" fill="white"/>
</g>
</svg>
