<svg xmlns="http://www.w3.org/2000/svg" width="20" height="20" viewBox="0 0 20 20" fill="none">
<g clip-path="url(#clip0_270_18103)">
<path fill-rule="evenodd" clip-rule="evenodd" d="M0 18.5417C0 18.919 0.149792 19.2808 0.416667 19.5475C0.428542 19.5596 0.440416 19.5715 0.452499 19.5833C0.719166 19.8502 1.08104 20 1.45833 20C1.62125 20 1.78374 19.9858 1.94416 19.9575C3.10749 19.7521 8.8225 18.7438 8.8225 18.7438C8.99875 18.7125 9.13542 18.5723 9.16209 18.3952L10 12.8087L10.8379 18.3952C10.8646 18.5723 11.0012 18.7125 11.1775 18.7438C11.1775 18.7438 16.8925 19.7521 18.0558 19.9575C18.2163 19.9858 18.3787 20 18.5417 20C18.919 20 19.2808 19.8502 19.5475 19.5833C19.5596 19.5715 19.5715 19.5596 19.5833 19.5475C19.8502 19.2808 20 18.919 20 18.5417C20 18.3413 19.9544 18.1433 19.8662 17.9633C19.0575 16.3069 13.1169 4.14313 11.5733 0.982502C11.2798 0.38125 10.669 0 10 0C9.33104 0 8.72021 0.38125 8.42667 0.982502C6.88312 4.14313 0.942506 16.3069 0.133756 17.9633C0.045631 18.1433 0 18.3413 0 18.5417Z" fill="url(#paint0_linear_270_18103)"/>
</g>
<defs>
<linearGradient id="paint0_linear_270_18103" x1="-4.6875" y1="14.4578" x2="3.80835" y2="-2.70984" gradientUnits="userSpaceOnUse">
<stop stop-color="#E202BB"/>
<stop offset="1" stop-color="#6902E7"/>
</linearGradient>
<clipPath id="clip0_270_18103">
<rect width="20" height="20" fill="white" transform="matrix(0 -1 1 0 0 20)"/>
</clipPath>
</defs>
</svg>