<svg width="20" height="21" viewBox="0 0 20 21" fill="none" xmlns="http://www.w3.org/2000/svg">
<g id="swatchbook.svg">
<path id="Vector" d="M5.83317 13.7933C5.66835 13.7933 5.50724 13.8421 5.3702 13.9337C5.23315 14.0253 5.12635 14.1554 5.06327 14.3077C5.0002 14.4599 4.9837 14.6275 5.01585 14.7892C5.048 14.9508 5.12737 15.0993 5.24391 15.2158C5.36046 15.3324 5.50895 15.4118 5.6706 15.4439C5.83225 15.4761 5.9998 15.4596 6.15207 15.3965C6.30435 15.3334 6.4345 15.2266 6.52606 15.0896C6.61763 14.9525 6.6665 14.7914 6.6665 14.6266C6.6665 14.4056 6.5787 14.1936 6.42243 14.0373C6.26615 13.8811 6.05419 13.7933 5.83317 13.7933ZM15.8832 10.4599L16.9082 9.43492C17.3763 8.96617 17.6393 8.33075 17.6393 7.66825C17.6393 7.00575 17.3763 6.37034 16.9082 5.90159L14.5498 3.55159C14.0811 3.08342 13.4457 2.82045 12.7832 2.82045C12.1207 2.82045 11.4853 3.08342 11.0165 3.55159L9.99984 4.57659C9.98675 3.92225 9.71759 3.29914 9.25017 2.84105C8.78275 2.38297 8.1543 2.12645 7.49984 2.12659H4.1665C3.50346 2.12659 2.86758 2.38998 2.39874 2.85882C1.9299 3.32766 1.6665 3.96355 1.6665 4.62659V16.2933C1.6665 16.9563 1.9299 17.5922 2.39874 18.061C2.86758 18.5298 3.50346 18.7933 4.1665 18.7933H15.8332C16.4962 18.7933 17.1321 18.5298 17.6009 18.061C18.0698 17.5922 18.3332 16.9563 18.3332 16.2933V12.9599C18.3333 12.3054 18.0768 11.677 17.6187 11.2096C17.1606 10.7422 16.5375 10.473 15.8832 10.4599ZM8.33317 16.2933C8.33317 16.5143 8.24537 16.7263 8.0891 16.8825C7.93281 17.0388 7.72085 17.1266 7.49984 17.1266H4.1665C3.94549 17.1266 3.73353 17.0388 3.57725 16.8825C3.42097 16.7263 3.33317 16.5143 3.33317 16.2933V4.62659C3.33317 4.40557 3.42097 4.19361 3.57725 4.03733C3.73353 3.88105 3.94549 3.79325 4.1665 3.79325H7.49984C7.72085 3.79325 7.93281 3.88105 8.0891 4.03733C8.24537 4.19361 8.33317 4.40557 8.33317 4.62659V16.2933ZM9.99984 6.92659L12.1998 4.72659C12.356 4.57138 12.5672 4.48426 12.7873 4.48426C13.0075 4.48426 13.2187 4.57138 13.3748 4.72659L15.7332 7.12659C15.8883 7.28272 15.9755 7.49393 15.9755 7.71409C15.9755 7.93425 15.8883 8.14545 15.7332 8.30159L13.3332 10.7016L9.99984 13.9933V6.92659ZM16.6665 16.2933C16.6665 16.5143 16.5787 16.7263 16.4224 16.8825C16.2662 17.0388 16.0542 17.1266 15.8332 17.1266H9.84984C9.93534 16.8796 9.98309 16.6212 9.9915 16.3599L14.2248 12.1266H15.8332C16.0542 12.1266 16.2662 12.2144 16.4224 12.3707C16.5787 12.5269 16.6665 12.7389 16.6665 12.9599V16.2933Z" fill="#FCFCFC"/>
</g>
</svg>
