<svg width="20" height="21" viewBox="0 0 20 21" fill="none" xmlns="http://www.w3.org/2000/svg">
<g id="text_to_photo.svg">
<path id="Vector" d="M11.6666 2.11667C11.2063 2.11667 10.8333 2.48977 10.8333 2.95V4.61667C10.8333 5.0769 11.2063 5.45 11.6666 5.45C12.1268 5.45 12.4999 5.0769 12.4999 4.61667V3.78334H14.1666V7.95H13.3333C12.873 7.95 12.4999 8.32309 12.4999 8.78334C12.4999 9.24359 12.873 9.61667 13.3333 9.61667H16.6666C17.1268 9.61667 17.4999 9.24359 17.4999 8.78334C17.4999 8.32309 17.1268 7.95 16.6666 7.95H15.8333V3.78334H17.4999V4.61667C17.4999 5.0769 17.873 5.45 18.3333 5.45C18.7935 5.45 19.1666 5.0769 19.1666 4.61667V2.95C19.1666 2.48977 18.7935 2.11667 18.3333 2.11667H11.6666Z" fill="#FCFCFC"/>
<path id="Vector_2" d="M9.16667 2.95001H5C4.33696 2.95001 3.70107 3.2134 3.23223 3.68225C2.76339 4.15109 2.5 4.78697 2.5 5.45001V15.45C2.5 16.1131 2.76339 16.7489 3.23223 17.2178C3.70107 17.6866 4.33696 17.95 5 17.95H15C15.6631 17.95 16.2989 17.6866 16.7677 17.2178C17.2366 16.7489 17.5 16.1131 17.5 15.45V11.2833C17.5 10.8231 17.1269 10.45 16.6667 10.45C16.2064 10.45 15.8333 10.8231 15.8333 11.2833V15.45C15.8333 15.671 15.7455 15.883 15.5892 16.0393C15.433 16.1955 15.221 16.2833 15 16.2833H5C4.77898 16.2833 4.56702 16.1955 4.41074 16.0393C4.25447 15.883 4.16667 15.671 4.16667 15.45V14.1285L7.74426 10.5509C7.90052 10.3948 8.11241 10.307 8.33333 10.307C8.55425 10.307 8.76625 10.3948 8.9225 10.551L12.7441 14.3726C13.0695 14.698 13.5972 14.698 13.9226 14.3726C14.248 14.0472 14.248 13.5195 13.9226 13.1941L10.1009 9.37243C9.63208 8.90376 8.99625 8.64037 8.33333 8.64037C7.67042 8.64037 7.03465 8.90368 6.56583 9.37235L4.16667 11.7715V5.45001C4.16667 5.229 4.25447 5.01704 4.41074 4.86075C4.56702 4.70448 4.77898 4.61668 5 4.61668H9.16667C9.62692 4.61668 10 4.24358 10 3.78335C10 3.32311 9.62692 2.95001 9.16667 2.95001Z" fill="#FCFCFC"/>
</g>
</svg>
