<svg width="24" height="24" viewBox="0 0 24 24" fill="none" xmlns="http://www.w3.org/2000/svg">
<g id="volume-up_9434259 1" clip-path="url(#clip0_47_2660)">
<g id="Group">
<path id="Vector" d="M12.7371 3.69278C11.9369 3.45953 11.168 3.77892 10.4306 4.24415C9.6899 4.71139 8.79095 5.45231 7.66624 6.37929L6.6694 7.20087C6.47825 7.35841 6.40095 7.42186 6.32434 7.47895C5.67567 7.96232 4.89775 8.24158 4.08975 8.28112C3.99433 8.28579 3.89433 8.28599 3.64662 8.28599L3.60678 8.28598C3.39325 8.28592 3.22872 8.28587 3.08163 8.30234C1.85819 8.43923 0.892516 9.4049 0.755618 10.6283C0.739158 10.7755 0.739205 10.94 0.739265 11.1535V12.3322C0.739205 12.5457 0.739158 12.7102 0.755618 12.8573C0.892516 14.0807 1.85819 15.0465 3.08163 15.1833C3.22873 15.1998 3.39326 15.1998 3.60679 15.1997H3.64662C3.89433 15.1997 3.99433 15.1999 4.08975 15.2046C4.89775 15.2441 5.67567 15.5233 6.32434 16.0067C6.40095 16.0638 6.47825 16.1273 6.6694 16.2848L7.66623 17.1064C8.79095 18.0334 9.6899 18.7743 10.4306 19.2416C11.168 19.7067 11.9369 20.0261 12.7371 19.7929C13.0028 19.7155 13.2545 19.5967 13.4832 19.441C14.1721 18.9718 14.4146 18.1754 14.5246 17.3104C14.6351 16.4417 14.6351 15.2767 14.6351 13.8192V9.66644C14.6351 8.20895 14.6351 7.04402 14.5246 6.17528C14.4146 5.31029 14.1721 4.51384 13.4832 4.04465C13.2545 3.88893 13.0028 3.77019 12.7371 3.69278Z" fill="#B6B6B6"/>
<path id="Vector_2" d="M19.2162 4.52629C18.9356 4.24559 18.4805 4.24559 18.1998 4.52628C17.9191 4.80697 17.9191 5.26206 18.1998 5.54274L18.8706 6.21358C19.454 6.79692 19.7116 7.05564 19.9055 7.28762C22.0608 9.86678 22.0608 13.6189 19.9055 16.1981C19.7116 16.4301 19.454 16.6888 18.8706 17.2721L18.1998 17.9429C17.9191 18.2236 17.9191 18.6787 18.1998 18.9594C18.4805 19.2401 18.9356 19.2401 19.2162 18.9594L19.9212 18.2544C20.4613 17.7144 20.7681 17.4075 21.0086 17.1198C23.6098 14.0071 23.6098 9.47863 21.0086 6.36585C20.7681 6.07817 20.4613 5.7713 19.9212 5.23125L19.2162 4.52629Z" fill="#B6B6B6"/>
<path id="Vector_3" d="M17.2992 7.40128C17.0186 7.12059 16.5635 7.12059 16.2828 7.40128C16.0021 7.68198 16.0021 8.13706 16.2828 8.41775L16.6661 8.80109C16.7252 8.86021 16.7494 8.88442 16.7689 8.90441C18.3048 10.485 18.3048 13.0007 16.7689 14.5813C16.7494 14.6013 16.7252 14.6255 16.6661 14.6846L16.2828 15.0679C16.0021 15.3486 16.0021 15.8037 16.2828 16.0844C16.5635 16.3651 17.0186 16.3651 17.2992 16.0844L17.6877 15.6959C17.7401 15.6435 17.7722 15.6114 17.7997 15.5831C19.8779 13.4446 19.8779 10.0411 17.7997 7.90259C17.7722 7.87428 17.7402 7.84226 17.6877 7.78971L17.2992 7.40128Z" fill="#B6B6B6"/>
</g>
</g>
<defs>
<clipPath id="clip0_47_2660">
<rect width="23" height="23" fill="white" transform="translate(0.5 0.5)"/>
</clipPath>
</defs>
</svg>
